{"glyphs":{"0":{"ha":1008,"x_min":42,"x_max":967,"o":"m 698 8 q 659 -2 698 8 q 504 -12 619 -12 q 310 8 389 -12 q 168 82 232 28 q 42 500 42 189 q 174 907 42 800 q 317 981 239 960 q 503 1001 394 1001 q 691 981 613 1001 q 835 907 769 960 q 967 500 967 800 q 840 82 967 189 q 698 8 776 28 m 475 224 q 505 206 486 206 q 535 224 524 206 q 553 307 546 243 q 560 489 560 371 q 553 673 560 607 q 535 760 546 739 q 505 782 524 782 q 475 761 486 782 q 447 489 447 714 q 475 224 447 265 z "},"1":{"ha":629,"x_min":21,"x_max":574,"o":"m 574 33 q 489 9 574 18 q 319 0 404 0 q 210 8 235 0 q 186 33 186 15 l 186 633 l 44 633 q 21 735 21 633 q 44 918 21 836 q 192 967 51 944 q 407 989 332 989 q 507 983 482 989 q 544 970 532 978 q 564 953 557 963 q 574 924 574 938 l 574 33 z "},"2":{"ha":853,"x_min":42,"x_max":811,"o":"m 138 626 q 70 718 99 626 q 42 894 42 810 q 85 938 42 914 q 215 982 128 963 q 406 1001 303 1001 q 804 722 804 1001 q 771 576 804 644 q 697 467 738 508 q 603 392 657 426 q 483 331 540 353 l 761 331 q 779 323 769 331 q 800 278 789 315 q 811 187 811 242 q 804 95 811 132 q 788 42 797 58 q 750 1 767 4 l 743 0 l 135 0 q 47 274 47 0 q 228 442 47 304 q 353 551 296 492 q 410 649 410 611 q 347 690 410 690 q 216 658 285 690 q 138 626 147 626 z "},"3":{"ha":846,"x_min":42,"x_max":804,"o":"m 792 742 q 681 532 792 601 q 720 499 696 525 q 761 446 744 472 q 804 285 804 378 q 694 60 804 132 q 393 -12 585 -12 q 215 3 299 -12 q 86 40 131 19 q 42 76 42 60 q 58 211 42 153 q 96 294 75 269 q 136 318 117 318 q 210 293 142 318 q 344 268 278 268 q 410 310 410 268 q 269 371 410 367 q 208 374 214 372 q 179 496 179 383 q 208 619 179 608 q 269 622 214 622 q 410 679 410 625 q 349 721 410 721 q 215 692 289 721 q 135 663 142 663 q 76 756 103 663 q 50 888 50 849 q 131 961 50 924 q 392 1001 219 1001 q 792 742 792 1001 z "},"4":{"ha":858,"x_min":21,"x_max":803,"o":"m 803 33 q 718 9 803 18 q 549 0 633 0 q 440 8 464 0 q 415 33 415 15 l 415 204 l 68 204 q 21 435 21 204 q 134 661 21 461 q 290 924 247 861 q 415 968 307 947 q 626 989 524 989 q 803 924 803 989 l 803 33 m 439 421 l 440 724 l 343 421 l 439 421 z "},"5":{"ha":849,"x_min":42,"x_max":807,"o":"m 42 93 q 67 256 42 183 q 122 329 92 329 q 211 295 131 329 q 331 261 292 261 q 391 274 369 261 q 413 307 413 286 q 131 397 413 383 q 82 694 82 400 q 128 989 82 989 l 742 989 q 778 878 778 989 q 765 731 778 811 q 719 651 751 651 l 331 651 l 331 589 q 714 503 599 589 q 807 294 807 432 q 704 72 807 157 q 375 -12 601 -12 q 135 21 228 -12 q 42 93 42 54 z "},"6":{"ha":919,"x_min":42,"x_max":878,"o":"m 429 608 q 435 613 429 608 q 496 636 442 618 q 619 654 550 654 q 735 634 688 654 q 810 583 783 614 q 853 507 838 553 q 878 354 878 432 q 872 237 878 276 q 841 149 865 197 q 776 67 817 100 q 659 10 735 33 q 482 -12 583 -12 q 153 108 264 -12 q 42 497 42 228 q 146 884 42 765 q 463 1003 250 1003 q 716 981 608 1003 q 824 931 824 960 q 797 804 824 894 q 747 714 769 714 q 706 721 740 714 q 533 740 611 740 q 433 702 456 740 q 411 590 411 664 q 429 608 417 597 m 460 482 q 419 333 419 482 q 460 183 419 183 q 503 333 503 183 q 460 482 503 482 z "},"7":{"ha":749,"x_min":14,"x_max":735,"o":"m 547 33 q 455 9 543 18 q 281 0 367 0 q 171 8 194 0 q 147 33 147 15 q 335 653 147 63 l 50 653 q 19 719 31 653 q 14 804 14 751 q 28 923 14 857 q 75 989 43 989 l 633 989 q 719 958 701 989 q 735 897 735 935 q 703 713 735 858 q 620 354 671 567 q 547 33 569 142 z "},"8":{"ha":915,"x_min":42,"x_max":874,"o":"m 874 311 q 458 -12 874 -12 q 42 311 42 -12 q 108 531 42 457 q 75 603 90 551 q 60 707 60 656 q 161 934 60 867 q 457 1001 263 1001 q 753 934 651 1001 q 856 707 856 867 q 840 603 856 656 q 807 531 825 551 q 874 311 874 457 m 413 301 q 413 267 413 301 q 424 210 413 232 q 458 189 435 189 q 491 210 481 189 q 501 301 501 232 q 491 394 501 371 q 458 417 481 417 q 424 394 435 417 q 413 301 413 371 m 458 633 q 501 716 501 633 q 458 799 501 799 q 413 716 413 799 q 458 633 413 633 z "},"9":{"ha":919,"x_min":42,"x_max":878,"o":"m 285 350 q 103 437 165 350 q 42 665 42 524 q 119 883 42 785 q 243 970 161 938 q 438 1003 325 1003 q 768 889 658 1003 q 878 499 878 775 q 775 105 878 222 q 457 -12 672 -12 q 201 6 307 -12 q 96 54 96 25 q 123 179 96 89 q 172 269 150 269 q 214 264 179 269 q 390 250 315 250 q 486 290 464 250 q 508 394 508 329 q 423 365 489 379 q 285 350 357 350 m 460 522 q 500 665 500 522 q 460 807 500 807 q 417 665 417 807 q 460 522 417 522 z "}," ":{"ha":313,"x_min":0,"x_max":0,"o":""},"!":{"ha":461,"x_min":43,"x_max":419,"o":"m 43 972 q 122 997 42 988 q 311 1006 203 1006 q 419 974 419 1006 q 394 304 419 933 q 344 242 393 269 q 207 214 296 214 q 81 279 86 214 l 43 972 m 404 13 q 359 -85 404 -58 q 233 -112 314 -112 q 108 -88 151 -112 q 65 13 65 -64 q 235 138 65 138 q 404 13 404 138 z "},"\"":{"ha":725,"x_min":42,"x_max":683,"o":"m 42 958 q 68 1059 42 1035 q 176 1083 94 1083 q 290 1061 258 1083 q 321 958 321 1039 q 181 607 321 607 q 42 958 42 607 m 404 958 q 431 1059 404 1035 q 539 1083 457 1083 q 652 1061 621 1083 q 683 958 683 1039 q 544 607 683 607 q 404 958 404 607 z "},"#":{"ha":1131,"x_min":14,"x_max":1117,"o":"m 146 0 q 102 19 115 0 q 89 58 89 38 q 115 181 89 79 l 51 181 q 25 206 36 181 q 14 280 14 232 q 44 377 14 328 q 104 426 75 426 l 182 426 l 218 560 l 132 560 q 106 585 117 560 q 94 659 94 611 q 125 756 94 707 q 185 806 156 806 l 285 806 q 314 913 296 850 q 528 988 335 988 q 600 939 600 988 q 567 806 600 931 l 713 806 q 742 913 724 850 q 956 988 763 988 q 1028 939 1028 988 q 994 806 1028 931 l 1081 806 q 1117 715 1117 806 q 1088 615 1117 669 q 1032 560 1058 560 l 928 560 l 892 426 l 1000 426 q 1036 336 1036 426 q 1007 235 1036 290 q 951 181 978 181 l 826 181 l 794 61 q 574 0 778 0 q 530 19 543 0 q 517 58 517 38 q 543 181 517 79 l 399 181 l 367 61 q 146 0 350 0 m 500 560 l 464 426 l 610 426 l 646 560 l 500 560 z "},"$":{"ha":922,"x_min":42,"x_max":881,"o":"m 326 994 q 379 1055 326 1026 q 518 1083 432 1083 q 604 1056 585 1083 q 618 1019 618 1036 l 618 978 q 836 919 775 961 q 861 888 861 903 q 827 732 861 815 q 761 649 793 649 q 725 661 756 649 q 573 701 633 701 q 491 690 513 701 q 469 656 469 679 q 500 621 469 633 q 576 599 531 608 q 674 569 621 590 q 774 519 728 549 q 850 433 819 490 q 881 315 881 375 q 869 217 881 256 q 831 136 858 178 q 749 62 804 94 q 618 14 694 29 l 618 -8 q 565 -69 618 -40 q 426 -97 513 -97 q 340 -69 360 -97 q 326 -33 326 -50 l 326 8 q 169 35 236 17 q 42 110 42 69 q 64 272 42 188 q 117 356 86 356 q 232 318 122 356 q 397 281 342 281 q 469 292 453 281 q 486 326 486 304 q 456 365 486 349 q 379 390 425 381 q 280 421 333 400 q 181 469 226 442 q 104 551 135 497 q 74 678 74 606 q 326 976 74 933 l 326 994 z "},"%":{"ha":1354,"x_min":42,"x_max":1313,"o":"m 536 61 q 490 16 519 32 q 393 0 461 0 q 325 36 325 0 q 328 47 325 39 l 819 917 q 842 951 832 939 q 881 974 853 963 q 950 986 908 986 q 1036 949 1036 986 q 1033 936 1036 942 l 536 61 m 311 457 q 205 468 250 457 q 121 507 160 479 q 42 728 42 564 q 125 942 42 888 q 311 988 196 988 q 499 942 425 988 q 582 728 582 888 q 503 507 582 563 q 311 457 431 457 m 311 592 q 329 600 322 592 q 347 699 347 619 q 342 808 347 778 q 329 844 336 838 q 311 851 322 851 q 275 722 275 851 q 311 592 275 592 m 1042 -14 q 935 -3 981 -14 q 851 36 890 8 q 772 257 772 93 q 856 469 772 417 q 1042 517 926 517 q 1229 469 1156 517 q 1313 257 1313 417 q 1233 36 1313 92 q 1042 -14 1161 -14 m 1042 121 q 1060 128 1053 121 q 1078 228 1078 149 q 1072 337 1078 307 q 1060 374 1067 367 q 1042 381 1053 381 q 1006 251 1006 381 q 1042 121 1006 121 z "},"&":{"ha":1078,"x_min":42,"x_max":1057,"o":"m 621 608 l 994 608 q 1057 503 1057 608 q 1045 412 1057 453 q 1019 371 1033 371 l 950 371 l 950 331 q 938 131 950 149 q 453 -12 839 -12 q 151 60 261 -12 q 42 285 42 132 q 122 485 42 408 q 165 518 140 503 q 153 525 161 521 q 126 547 146 529 q 92 588 107 565 q 54 728 54 646 q 454 988 54 988 q 647 972 567 988 q 762 933 728 956 q 796 888 796 911 q 769 756 796 849 q 711 663 743 663 q 631 685 704 663 q 497 707 557 707 q 436 665 436 707 q 489 619 436 629 q 621 608 543 608 m 588 278 l 589 293 l 589 369 q 436 310 436 367 q 511 268 436 268 q 588 278 546 268 z "},"'":{"ha":363,"x_min":42,"x_max":321,"o":"m 42 958 q 68 1059 42 1035 q 176 1083 94 1083 q 290 1061 258 1083 q 321 958 321 1039 q 181 607 321 607 q 42 958 42 607 z "},"(":{"ha":625,"x_min":49,"x_max":583,"o":"m 539 -207 q 49 410 49 -207 q 175 855 49 710 q 525 1000 301 1000 q 583 932 583 1000 q 573 828 583 876 q 539 781 563 781 q 450 682 481 781 q 419 402 419 583 q 451 117 419 221 q 529 14 483 14 q 569 -17 557 14 q 581 -103 581 -47 q 572 -183 581 -158 q 539 -207 564 -207 z "},")":{"ha":625,"x_min":42,"x_max":576,"o":"m 86 -207 q 53 -183 61 -207 q 44 -103 44 -158 q 96 14 44 14 q 174 117 142 14 q 206 402 206 221 q 175 682 206 583 q 86 781 144 781 q 52 828 63 781 q 42 932 42 876 q 100 1000 42 1000 q 450 855 324 1000 q 576 410 576 710 q 86 -207 576 -207 z "},"*":{"ha":775,"x_min":21,"x_max":754,"o":"m 21 763 q 44 859 21 808 q 110 910 68 910 q 184 887 139 910 q 289 819 229 864 q 279 999 279 953 q 299 1065 279 1046 q 384 1083 319 1083 q 472 1066 449 1083 q 496 986 496 1049 q 486 897 496 964 q 472 819 476 831 q 497 835 488 829 q 522 850 507 842 q 551 867 536 858 q 582 883 565 875 q 614 897 599 892 q 668 911 644 911 q 731 861 708 911 q 754 764 754 811 q 695 707 754 731 q 578 675 636 683 l 519 668 q 667 490 667 547 q 616 417 667 457 q 531 378 565 378 q 388 585 476 378 q 317 442 358 503 q 242 381 275 381 q 160 417 210 381 q 111 483 111 454 q 144 556 111 511 q 242 667 176 600 q 235 667 242 667 q 180 675 229 667 q 76 707 131 683 q 21 763 21 731 z "},"+":{"ha":768,"x_min":42,"x_max":726,"o":"m 351 43 q 261 79 261 43 l 261 264 l 79 264 q 53 290 64 264 q 42 363 42 315 q 72 460 42 411 q 132 510 103 510 l 261 510 l 261 665 q 308 710 261 692 q 405 728 354 728 q 481 717 456 728 q 507 690 507 706 l 507 510 l 690 510 q 726 419 726 510 q 697 319 726 374 q 642 264 668 264 l 507 264 l 507 100 q 455 60 507 76 q 351 43 403 43 z "},",":{"ha":407,"x_min":56,"x_max":351,"o":"m 65 67 q 56 146 56 94 q 85 231 56 197 q 203 265 114 265 q 322 231 292 265 q 351 125 351 196 q 124 -212 351 -212 q 83 -162 103 -212 q 63 -83 63 -112 q 72 -54 63 -54 q 118 -41 100 -54 q 140 -14 136 -28 l 144 0 q 65 67 89 0 z "},"-":{"ha":768,"x_min":42,"x_max":726,"o":"m 642 264 l 79 264 q 53 290 64 264 q 42 363 42 315 q 72 460 42 411 q 132 510 103 510 l 690 510 q 726 419 726 510 q 697 319 726 374 q 642 264 668 264 z "},".":{"ha":407,"x_min":56,"x_max":351,"o":"m 351 131 q 351 90 351 131 q 314 18 351 49 q 203 -12 276 -12 q 93 18 131 -12 q 56 131 56 49 q 94 240 56 213 q 204 267 132 267 q 314 240 276 267 q 351 131 351 213 z "},"/":{"ha":581,"x_min":35,"x_max":546,"o":"m 92 0 q 48 19 61 0 q 35 58 35 38 q 260 913 35 79 q 474 988 281 988 q 546 939 546 988 q 313 61 546 931 q 92 0 296 0 z "},":":{"ha":407,"x_min":56,"x_max":351,"o":"m 351 581 q 351 540 351 581 q 314 469 351 499 q 203 439 276 439 q 93 469 131 439 q 56 581 56 499 q 94 691 56 664 q 204 718 132 718 q 314 691 276 718 q 351 581 351 664 m 351 131 q 351 90 351 131 q 314 18 351 49 q 203 -12 276 -12 q 93 18 131 -12 q 56 131 56 49 q 94 240 56 213 q 204 267 132 267 q 314 240 276 267 q 351 131 351 213 z "},";":{"ha":407,"x_min":56,"x_max":351,"o":"m 351 581 q 351 540 351 581 q 314 469 351 499 q 203 439 276 439 q 93 469 131 439 q 56 581 56 499 q 94 691 56 664 q 204 718 132 718 q 314 691 276 718 q 351 581 351 664 m 56 146 q 56 172 56 146 q 85 231 56 197 q 203 265 114 265 q 322 231 292 265 q 351 125 351 196 q 124 -212 351 -212 q 83 -162 103 -212 q 63 -83 63 -112 q 72 -54 63 -54 q 131 -29 108 -54 q 144 0 144 -14 q 86 28 114 3 q 65 67 74 40 q 56 146 56 94 z "},"<":{"ha":503,"x_min":21,"x_max":461,"o":"m 299 400 q 461 33 461 67 q 389 0 461 0 q 234 13 274 0 q 175 55 194 25 q 88 227 156 85 q 21 394 21 369 q 55 492 21 419 q 131 645 89 564 q 179 740 174 726 q 201 767 185 753 q 264 794 217 782 q 386 806 311 806 q 461 757 461 806 q 299 400 461 728 z "},"=":{"ha":768,"x_min":42,"x_max":726,"o":"m 642 440 l 79 440 q 53 466 64 440 q 42 540 42 492 q 72 637 42 588 q 132 686 103 686 l 690 686 q 726 596 726 686 q 697 495 726 550 q 642 440 668 440 m 642 103 l 79 103 q 53 128 64 103 q 42 202 42 154 q 72 299 42 250 q 132 349 103 349 l 690 349 q 726 258 726 349 q 697 158 726 213 q 642 103 668 103 z "},">":{"ha":503,"x_min":42,"x_max":482,"o":"m 42 757 q 211 806 42 806 q 328 731 294 806 q 372 644 329 726 q 482 401 482 433 q 415 227 482 369 q 328 56 347 85 q 285 13 310 26 q 198 0 260 0 q 97 5 136 0 q 50 17 58 10 q 42 36 42 24 q 82 140 42 49 q 204 400 122 232 q 42 757 42 726 z "},"?":{"ha":832,"x_min":28,"x_max":790,"o":"m 124 613 q 56 705 85 613 q 28 882 28 797 q 71 926 28 901 q 201 969 114 950 q 392 988 289 988 q 790 710 790 988 q 758 573 790 631 q 679 489 725 515 q 508 436 586 438 l 476 435 q 483 386 476 419 q 490 328 490 353 q 415 294 490 306 q 283 282 339 282 q 178 324 199 282 q 158 500 158 365 q 278 547 158 532 q 359 576 322 554 q 396 638 396 599 q 333 676 396 676 q 202 644 271 676 q 124 613 133 613 m 342 235 q 486 210 436 235 q 536 110 536 186 q 342 -15 536 -15 q 147 110 147 -15 q 342 235 147 235 z "},"@":{"ha":1092,"x_min":56,"x_max":1036,"o":"m 599 326 l 593 326 q 482 253 572 253 q 297 397 297 253 q 323 475 297 443 q 389 522 349 507 q 535 546 458 546 l 561 546 q 549 582 561 565 q 509 599 538 599 q 437 579 481 599 q 390 560 393 560 q 351 603 376 560 q 326 679 326 647 q 422 725 326 707 q 547 736 476 736 q 663 720 617 736 q 731 683 708 704 q 765 628 753 663 q 779 574 778 594 q 781 524 781 554 l 781 371 l 825 371 q 878 405 865 371 q 892 514 892 439 q 878 646 892 589 q 831 753 865 703 q 549 851 763 851 q 265 756 333 851 q 219 649 231 706 q 207 513 207 592 q 211 392 207 435 q 234 294 215 349 q 288 210 253 240 q 389 158 322 179 q 550 136 456 136 q 579 102 565 136 q 593 38 593 68 q 550 -14 593 -14 q 253 44 354 -14 q 111 197 158 97 q 56 499 56 314 q 85 726 56 631 q 160 873 115 821 q 274 955 204 925 q 406 992 344 985 q 551 1000 468 1000 q 917 884 797 1000 q 1036 561 1036 768 q 919 283 1036 336 q 851 262 881 265 q 776 258 821 258 q 599 326 599 258 m 563 388 l 563 482 q 528 464 542 482 q 515 424 515 446 q 539 371 515 371 q 563 388 563 371 z "},"A":{"ha":1025,"x_min":14,"x_max":1011,"o":"m 439 71 q 397 15 436 31 q 254 0 357 0 q 83 19 151 0 q 14 67 14 38 q 138 492 14 100 q 279 944 261 885 q 391 974 286 963 q 616 986 496 986 q 749 944 736 986 q 1011 58 1011 72 q 994 31 1011 44 q 840 0 956 0 q 589 58 594 0 l 579 149 l 446 149 l 439 71 m 550 413 l 529 663 l 499 663 l 475 413 l 550 413 z "},"B":{"ha":979,"x_min":56,"x_max":938,"o":"m 476 0 l 172 0 q 79 10 103 0 q 56 40 56 19 l 56 933 q 457 1000 56 1000 q 775 956 688 1000 q 889 839 864 910 q 903 742 903 797 q 866 579 903 633 q 786 518 829 525 q 894 454 851 504 q 938 285 938 404 q 853 79 938 146 q 628 6 779 21 q 476 0 564 0 m 478 606 q 549 700 549 606 q 530 770 549 747 q 488 793 511 793 l 443 793 l 443 606 l 478 606 m 443 207 l 478 207 q 549 301 549 207 q 530 372 549 349 q 488 394 511 394 l 443 394 l 443 207 z "},"C":{"ha":911,"x_min":42,"x_max":869,"o":"m 751 10 q 724 4 751 10 q 638 -8 696 -3 q 526 -12 581 -12 q 441 -10 471 -12 q 363 4 411 -7 q 274 35 314 15 q 188 92 233 54 q 113 181 143 129 q 42 489 42 300 q 81 713 42 615 q 177 863 121 810 q 306 947 233 915 q 540 1000 422 1000 q 783 972 710 1000 q 843 933 817 960 q 869 857 869 907 q 845 731 869 807 q 775 654 821 654 q 672 676 761 654 q 551 699 583 699 q 469 644 503 699 q 435 490 435 590 q 465 335 435 390 q 543 279 494 279 q 669 308 578 279 q 775 336 760 336 q 842 257 818 336 q 867 129 867 178 q 837 52 867 81 q 751 10 807 24 z "},"D":{"ha":1015,"x_min":56,"x_max":974,"o":"m 499 0 l 171 0 q 79 10 103 0 q 56 42 56 19 l 56 918 q 86 970 56 954 q 192 986 117 986 l 504 986 q 872 881 771 986 q 974 500 974 776 q 868 112 974 224 q 499 0 763 0 m 488 779 q 443 774 454 779 l 443 213 l 496 207 q 559 274 538 207 q 581 504 581 340 q 558 724 581 668 q 488 779 536 779 z "},"E":{"ha":847,"x_min":56,"x_max":806,"o":"m 760 0 l 171 0 q 79 10 103 0 q 56 40 56 19 l 56 919 q 88 971 56 956 q 206 986 121 986 l 764 986 q 793 890 793 986 q 781 742 793 793 q 747 692 768 692 q 443 710 657 692 l 443 617 q 711 625 649 625 q 749 538 749 625 q 734 405 749 450 q 694 360 719 360 l 443 365 l 443 276 q 776 294 685 294 q 806 197 806 294 q 793 50 806 100 q 760 0 781 0 z "},"F":{"ha":814,"x_min":56,"x_max":772,"o":"m 443 40 q 353 10 443 19 q 183 0 264 0 q 79 10 103 0 q 56 40 56 19 l 56 921 q 92 972 56 957 q 228 988 128 988 l 743 988 q 772 883 772 988 q 759 723 772 778 q 725 668 746 668 l 443 682 l 443 588 q 690 596 628 596 q 719 574 711 596 q 726 488 726 551 q 713 367 726 425 q 674 310 699 310 l 443 318 l 443 40 z "},"G":{"ha":936,"x_min":42,"x_max":894,"o":"m 357 -11 q 269 -1 310 -11 q 185 40 229 8 q 111 122 142 71 q 42 474 42 239 q 76 701 42 603 q 164 855 111 800 q 290 944 217 910 q 428 990 364 979 q 564 1000 492 1000 q 799 972 731 1000 q 867 863 867 943 q 843 724 867 799 q 774 650 819 650 q 679 672 763 650 q 554 693 596 693 q 435 492 435 693 q 463 341 435 390 q 532 286 490 292 l 532 411 q 603 475 532 446 q 739 504 674 504 q 834 496 804 504 q 875 472 864 488 q 894 428 894 447 l 894 43 q 822 14 894 25 q 670 3 749 3 q 571 10 592 3 q 547 53 550 18 l 538 135 l 526 135 q 477 32 517 75 q 357 -11 438 -11 z "},"H":{"ha":1010,"x_min":56,"x_max":954,"o":"m 443 40 q 359 11 443 22 q 190 0 275 0 q 80 10 104 0 q 56 40 56 19 l 56 894 q 136 958 56 929 q 311 986 217 986 q 443 924 443 986 l 443 618 l 567 618 l 567 894 q 648 958 567 929 q 824 986 729 986 q 954 924 954 986 l 954 40 q 869 11 954 22 q 700 0 785 0 q 591 10 615 0 q 567 40 567 19 l 567 358 l 443 358 l 443 40 z "},"I":{"ha":499,"x_min":56,"x_max":443,"o":"m 443 33 q 358 9 443 18 q 188 0 274 0 q 79 8 103 0 q 56 33 56 15 l 56 897 q 136 958 56 928 q 317 988 217 988 q 433 950 406 988 q 443 922 443 936 l 443 33 z "},"J":{"ha":569,"x_min":14,"x_max":514,"o":"m 470 -103 q 457 -127 470 -103 q 391 -169 443 -150 q 273 -187 339 -187 q 176 -185 207 -187 q 112 -174 146 -183 q 58 -150 78 -165 q 14 -33 14 -112 q 72 81 14 81 q 100 86 90 81 q 126 172 126 99 l 126 896 q 206 956 126 926 q 376 986 286 986 q 514 921 514 986 l 514 153 q 506 0 514 57 q 470 -103 497 -57 z "},"K":{"ha":985,"x_min":56,"x_max":964,"o":"m 443 43 q 358 14 443 25 q 188 3 272 3 q 79 13 103 3 q 56 43 56 22 l 56 894 q 134 958 56 931 q 315 986 213 986 q 425 953 400 986 q 443 910 443 929 l 443 681 l 454 681 q 496 796 454 688 q 611 1000 575 1000 q 803 960 679 1000 q 906 903 863 940 q 949 822 949 867 q 892 715 949 794 q 722 501 836 635 q 789 431 749 474 q 897 302 829 388 q 964 181 964 217 q 899 97 964 144 q 760 19 833 49 q 650 -11 686 -11 q 585 60 626 -11 q 486 275 544 132 l 443 224 l 443 43 z "},"L":{"ha":756,"x_min":56,"x_max":728,"o":"m 172 0 q 79 8 103 0 q 56 33 56 15 l 56 897 q 136 958 56 928 q 317 988 217 988 q 433 950 406 988 q 443 922 443 936 l 443 307 q 699 318 613 318 q 728 226 728 318 q 715 67 728 133 q 682 0 703 0 l 172 0 z "},"M":{"ha":1222,"x_min":56,"x_max":1167,"o":"m 269 0 q 169 0 235 0 q 79 10 103 0 q 56 40 56 19 l 56 917 q 141 967 56 949 q 324 986 226 986 q 463 961 421 986 q 511 908 504 936 l 606 542 l 618 542 l 707 892 q 798 958 717 929 q 976 986 879 986 q 1120 971 1074 986 q 1167 932 1167 956 l 1167 40 q 1088 11 1167 22 q 894 0 1008 0 q 781 40 781 0 q 804 431 781 150 l 792 431 l 719 68 q 685 38 715 47 q 596 28 656 28 q 523 36 536 28 q 506 68 510 44 l 431 431 l 418 431 q 443 40 443 144 q 269 0 443 4 z "},"N":{"ha":1019,"x_min":56,"x_max":964,"o":"m 443 40 q 358 11 443 22 q 188 0 272 0 q 79 10 103 0 q 56 40 56 19 l 56 893 q 135 957 56 928 q 317 986 215 986 q 371 983 353 986 q 438 924 418 976 l 571 565 l 576 565 l 576 893 q 656 957 576 928 q 836 986 735 986 q 947 953 924 986 q 964 910 964 929 l 964 40 q 878 11 964 22 q 691 0 793 0 q 579 26 589 0 l 450 368 l 443 368 l 443 40 z "},"O":{"ha":1050,"x_min":35,"x_max":1015,"o":"m 525 -12 q 327 9 410 -12 q 175 86 244 31 q 35 507 35 196 q 73 735 35 638 q 179 889 111 832 q 525 1000 313 1000 q 716 981 635 1000 q 869 910 797 961 q 1015 507 1015 804 q 883 114 1015 240 q 525 -12 751 -12 m 479 226 q 488 216 479 226 q 525 206 496 206 q 571 226 554 206 q 599 312 588 246 q 610 496 610 378 q 599 678 610 614 q 571 761 588 742 q 525 781 554 781 q 479 761 496 781 q 451 678 463 742 q 440 496 440 614 q 451 312 440 378 q 479 226 463 246 z "},"P":{"ha":982,"x_min":56,"x_max":947,"o":"m 442 40 q 357 11 442 22 q 188 0 272 0 q 79 10 103 0 q 56 40 56 19 l 56 933 q 456 1000 56 1000 q 775 967 697 1000 q 903 861 869 928 q 947 640 947 775 q 883 372 947 456 q 792 293 838 311 q 716 267 746 275 q 642 256 686 260 q 475 250 581 250 l 442 251 l 442 40 m 443 482 l 476 482 q 518 490 503 482 q 545 531 533 497 q 557 627 557 565 q 544 722 557 689 q 517 760 531 754 q 486 767 504 767 l 443 767 l 443 482 z "},"Q":{"ha":1036,"x_min":28,"x_max":1008,"o":"m 28 518 q 66 740 28 646 q 172 890 104 835 q 518 1000 307 1000 q 673 989 606 1000 q 806 947 740 978 q 914 864 872 915 q 1008 536 1008 749 q 946 201 1008 324 q 771 33 883 78 q 833 -86 833 -69 q 803 -138 833 -117 q 725 -169 772 -160 q 578 -187 638 -187 q 495 -176 518 -187 q 457 -128 472 -164 l 397 0 q 128 126 228 0 q 28 518 28 251 m 454 272 q 465 239 454 272 q 518 206 475 206 q 582 272 561 206 q 603 480 603 338 q 592 684 603 622 q 564 763 581 746 q 518 781 547 781 q 472 764 489 781 q 433 530 433 722 q 454 272 433 338 z "},"R":{"ha":994,"x_min":56,"x_max":981,"o":"m 444 40 q 360 11 444 22 q 190 0 275 0 q 80 10 104 0 q 56 40 56 19 l 56 933 q 147 985 56 969 q 376 1000 238 1000 q 556 999 515 1000 q 653 994 597 999 q 741 981 708 990 q 813 956 774 971 q 875 916 853 940 q 918 858 897 892 q 956 688 956 799 q 919 502 956 578 q 821 388 882 426 q 981 68 981 136 q 707 0 981 0 q 597 7 628 0 q 558 38 567 14 l 468 324 l 444 325 l 444 40 m 444 539 l 481 539 q 561 664 561 539 q 540 754 561 728 q 490 781 518 781 l 444 781 l 444 539 z "},"S":{"ha":908,"x_min":35,"x_max":874,"o":"m 763 58 q 742 43 763 58 q 647 8 721 28 q 455 -12 572 -12 q 232 7 338 -12 q 81 50 126 26 q 35 96 35 74 q 57 258 35 174 q 110 342 79 342 q 225 304 115 342 q 390 267 335 267 q 463 278 446 267 q 479 313 479 290 q 449 352 479 335 q 372 383 418 369 q 273 421 326 396 q 174 476 219 446 q 97 563 128 507 q 67 692 67 619 q 435 1000 67 1000 q 672 983 572 1000 q 813 944 772 965 q 854 901 854 922 q 820 746 854 829 q 754 663 786 663 q 718 675 749 663 q 566 715 626 715 q 484 704 506 715 q 463 670 463 693 q 493 633 463 647 q 569 606 524 618 q 667 570 614 594 q 767 513 721 546 q 843 421 813 481 q 874 282 874 361 q 831 131 874 199 q 763 58 804 89 z "},"T":{"ha":904,"x_min":28,"x_max":876,"o":"m 646 33 q 560 9 646 18 q 390 0 475 0 q 281 8 304 0 q 258 33 258 15 l 258 631 l 65 631 q 39 669 50 631 q 28 785 28 708 q 44 924 28 863 q 89 986 61 986 l 840 986 q 869 947 861 986 q 876 835 876 908 q 861 696 876 761 q 819 631 846 631 l 646 631 l 646 33 z "},"U":{"ha":1008,"x_min":56,"x_max":953,"o":"m 953 388 q 838 88 953 188 q 506 -11 724 -11 q 172 88 289 -11 q 56 388 56 188 l 56 897 q 134 960 56 932 q 317 988 213 988 q 425 956 400 988 q 443 913 443 931 l 443 499 q 455 291 443 342 q 506 240 467 240 q 555 290 544 240 q 565 500 565 339 l 565 897 q 644 960 565 932 q 825 988 722 988 q 936 956 913 988 q 953 913 953 931 l 953 388 z "},"V":{"ha":1010,"x_min":14,"x_max":996,"o":"m 14 888 q 50 927 14 904 q 152 968 86 950 q 296 986 218 986 q 410 964 374 986 q 449 915 446 942 l 497 410 l 517 410 l 560 903 q 654 964 564 942 q 822 986 744 986 q 938 973 900 986 q 985 946 975 960 q 996 920 996 932 q 976 855 996 908 q 933 740 956 801 q 685 43 860 546 q 446 0 669 0 q 354 10 376 0 q 324 43 332 19 q 128 579 242 279 q 14 888 14 879 z "},"W":{"ha":1411,"x_min":14,"x_max":1397,"o":"m 438 0 q 350 10 371 0 q 321 43 329 19 l 14 890 q 113 951 14 917 q 314 986 213 986 q 453 904 444 986 l 500 464 l 519 464 l 558 904 q 746 986 565 986 q 839 967 815 986 q 865 918 863 949 l 911 464 l 931 464 l 967 904 q 1062 965 971 944 q 1242 986 1153 986 q 1365 960 1332 986 q 1397 904 1397 933 l 1100 43 q 894 0 1085 0 q 818 10 838 0 q 792 43 799 19 l 719 285 l 703 285 l 629 43 q 438 0 617 0 z "},"X":{"ha":1001,"x_min":14,"x_max":988,"o":"m 290 0 q 101 17 189 0 q 14 68 14 35 q 72 195 14 88 q 246 500 129 303 q 38 911 38 892 q 126 964 38 942 q 287 986 214 986 q 406 964 360 986 q 457 919 453 942 l 511 674 l 518 674 l 557 917 q 590 943 558 926 q 676 973 622 960 q 799 986 729 986 q 917 969 869 986 q 964 907 964 953 q 914 769 964 883 q 763 453 864 656 q 988 68 988 88 q 822 0 988 0 q 558 67 576 0 l 504 260 l 496 260 l 451 67 q 290 0 436 0 z "},"Y":{"ha":969,"x_min":14,"x_max":956,"o":"m 676 40 q 592 11 676 22 q 423 0 507 0 q 314 9 339 0 q 289 40 289 18 l 289 282 q 14 893 14 844 q 107 954 14 922 q 303 986 200 986 q 443 908 435 986 l 481 535 l 496 535 l 522 899 q 621 962 525 938 q 803 986 717 986 q 922 961 889 986 q 956 908 956 936 q 676 282 956 882 l 676 40 z "},"Z":{"ha":871,"x_min":28,"x_max":843,"o":"m 808 704 q 735 589 808 679 q 514 344 661 499 l 807 344 q 833 303 822 344 q 843 188 843 263 q 826 57 843 114 q 779 0 808 0 l 103 0 q 45 81 63 0 q 28 256 28 161 q 106 369 28 276 q 340 629 183 463 l 71 629 q 33 750 33 629 q 51 910 33 835 q 97 986 69 986 l 738 986 q 808 704 808 986 z "},"[":{"ha":653,"x_min":69,"x_max":583,"o":"m 186 -199 q 93 -191 117 -199 q 69 -165 69 -183 l 69 953 q 93 978 69 971 q 186 986 117 986 l 538 986 q 571 947 558 986 q 583 858 583 908 q 554 765 583 765 q 408 776 478 765 l 408 11 q 554 22 468 22 q 583 -71 583 22 q 571 -160 583 -121 q 538 -199 558 -199 l 186 -199 z "},"\\":{"ha":511,"x_min":0,"x_max":511,"o":"m 0 939 q 183 988 0 988 q 250 965 222 988 q 286 913 278 943 q 511 61 511 79 q 343 0 511 0 q 272 17 304 0 q 233 61 240 35 q 0 939 0 931 z "},"]":{"ha":653,"x_min":69,"x_max":583,"o":"m 467 -199 l 115 -199 q 82 -160 94 -199 q 69 -71 69 -121 q 99 22 69 22 q 244 11 175 22 l 244 776 q 99 765 185 765 q 69 858 69 765 q 82 947 69 908 q 115 986 94 986 l 467 986 q 560 978 536 986 q 583 953 583 971 l 583 -165 q 560 -191 583 -183 q 467 -199 536 -199 z "},"^":{"ha":611,"x_min":56,"x_max":556,"o":"m 56 972 q 158 1035 56 988 q 309 1083 260 1083 q 457 1036 358 1083 q 556 972 556 989 q 540 885 556 924 q 500 847 525 847 q 306 901 481 847 q 111 847 129 847 q 71 885 86 847 q 56 972 56 924 z "},"_":{"ha":824,"x_min":21,"x_max":803,"o":"m 746 -201 l 58 -201 q 21 -131 21 -201 q 41 -47 21 -81 q 90 -14 61 -14 l 767 -14 q 785 -18 778 -14 q 803 -82 803 -29 q 787 -168 803 -135 q 746 -201 771 -201 z "},"`":{"ha":528,"x_min":69,"x_max":458,"o":"m 167 1083 q 355 1042 251 1083 q 458 958 458 1001 q 437 881 458 914 q 389 847 415 847 q 190 863 310 847 q 69 900 69 879 q 102 1031 69 978 q 167 1083 135 1083 z "},"a":{"ha":922,"x_min":42,"x_max":874,"o":"m 313 -12 q 114 47 186 -12 q 63 121 85 72 q 42 235 42 169 q 73 349 42 300 q 149 424 104 397 q 253 467 193 450 q 451 490 343 490 l 497 490 q 458 571 497 547 q 408 581 442 581 q 326 563 374 581 q 246 526 278 544 q 203 507 214 507 q 135 573 178 507 q 92 693 92 639 q 143 740 92 711 q 288 794 194 769 q 471 818 382 818 q 624 803 560 818 q 730 768 689 789 q 799 713 771 747 q 842 650 828 678 q 864 578 857 622 q 874 451 874 526 l 874 33 q 799 9 874 18 q 652 0 725 0 q 558 4 579 0 q 532 14 536 8 q 525 33 528 19 l 514 113 l 503 113 q 313 -12 468 -12 m 499 218 l 499 381 q 440 350 463 381 q 418 281 418 319 q 460 189 418 189 q 488 198 478 189 q 499 218 499 207 z "},"b":{"ha":928,"x_min":49,"x_max":886,"o":"m 125 14 q 49 72 49 33 l 49 953 q 131 1013 49 983 q 303 1042 213 1042 q 425 978 425 1042 l 425 821 l 410 725 l 421 725 q 452 756 429 738 q 500 786 475 774 q 635 818 561 818 q 751 799 708 818 q 819 751 793 781 q 860 675 844 721 q 886 478 886 596 q 842 178 886 282 q 697 31 797 74 q 415 -12 597 -12 q 125 14 233 -12 m 424 192 l 467 192 q 511 405 511 192 q 465 618 511 618 l 424 618 l 424 192 z "},"c":{"ha":764,"x_min":35,"x_max":729,"o":"m 228 24 q 156 69 194 39 q 93 142 118 100 q 35 403 35 242 q 67 581 35 503 q 144 703 99 660 q 250 774 190 746 q 442 818 346 818 q 666 793 603 818 q 729 708 729 768 q 708 581 729 649 q 651 514 686 514 q 584 538 640 514 q 487 561 528 561 q 424 528 446 561 q 403 402 403 496 q 422 274 403 308 q 483 240 442 240 q 585 268 524 240 q 653 296 646 296 q 703 233 679 296 q 728 122 728 171 q 650 17 728 47 q 440 -12 572 -12 q 228 24 307 -12 z "},"d":{"ha":922,"x_min":35,"x_max":874,"o":"m 310 -12 q 214 3 258 -12 q 141 40 169 18 q 92 100 113 63 q 60 172 71 138 q 43 256 49 206 q 35 424 35 329 q 106 717 35 617 q 300 818 176 818 q 483 758 426 818 q 503 725 496 744 l 514 725 l 497 821 l 497 994 q 575 1054 497 1025 q 743 1083 653 1083 q 864 1047 838 1083 q 874 1019 874 1033 l 874 33 q 797 9 874 18 q 648 0 719 0 q 556 5 576 0 q 531 15 536 10 q 525 33 526 21 l 514 113 l 503 113 q 453 31 490 64 q 310 -12 406 -12 m 465 190 q 499 218 488 190 l 499 589 q 484 610 499 603 q 458 618 469 618 q 411 401 411 618 q 424 238 411 286 q 465 190 438 190 z "},"e":{"ha":889,"x_min":35,"x_max":854,"o":"m 414 314 q 500 224 414 224 q 631 258 550 224 q 715 292 711 292 q 785 213 742 292 q 828 96 828 133 q 717 14 828 42 q 499 -14 606 -14 q 322 3 393 -14 q 205 45 250 19 q 126 108 160 71 q 75 180 92 146 q 49 256 58 214 q 35 382 35 317 q 167 731 35 635 q 313 799 232 779 q 503 818 393 818 q 854 574 854 818 q 460 314 854 314 l 414 314 m 411 517 l 411 425 q 477 457 451 425 q 503 535 503 489 q 460 618 503 618 q 411 517 411 618 z "},"f":{"ha":776,"x_min":14,"x_max":749,"o":"m 497 458 l 497 33 q 421 9 497 18 q 233 0 344 0 q 122 33 122 0 l 122 458 l 51 458 q 14 585 14 458 q 31 678 14 635 q 76 722 49 722 l 122 722 q 149 885 122 815 q 215 991 176 954 q 307 1050 253 1028 q 490 1083 388 1083 q 749 999 749 1083 q 731 849 749 907 q 682 790 713 790 q 635 799 669 790 q 571 808 601 808 q 490 753 490 808 q 497 722 490 739 l 682 722 q 719 600 719 722 q 703 502 719 546 q 661 458 688 458 l 497 458 z "},"g":{"ha":915,"x_min":35,"x_max":867,"o":"m 513 92 l 513 172 l 501 172 q 482 155 496 165 q 413 126 468 144 q 290 108 358 108 q 174 129 221 108 q 100 181 126 150 q 58 265 74 213 q 35 488 35 347 q 103 735 35 649 q 181 794 129 769 q 293 818 233 818 q 392 805 353 818 q 450 774 431 792 q 494 706 489 735 l 496 693 l 507 693 l 519 747 q 739 806 533 806 q 850 778 831 806 q 864 747 861 761 q 867 703 867 732 l 867 121 q 760 -129 867 -43 q 446 -215 653 -215 q 147 -172 226 -215 q 113 -132 113 -153 q 140 -19 113 -99 q 190 60 167 60 q 229 50 196 60 q 401 22 335 22 q 490 39 467 22 q 513 92 513 56 m 457 267 q 482 278 472 267 q 492 303 492 289 l 492 589 q 461 618 486 618 q 408 444 408 618 q 422 315 408 364 q 457 267 435 267 z "},"h":{"ha":924,"x_min":49,"x_max":875,"o":"m 500 33 l 500 419 q 492 571 500 524 q 451 618 483 618 q 424 581 424 618 l 424 33 q 343 9 424 18 q 178 0 263 0 q 71 8 93 0 q 49 33 49 15 l 49 996 q 129 1054 49 1025 q 299 1083 210 1083 q 417 1049 392 1083 q 425 1025 425 1038 l 425 821 l 410 725 l 419 725 q 481 776 439 754 q 650 818 558 818 q 828 734 782 818 q 875 461 875 650 l 875 33 q 794 9 875 18 q 628 0 713 0 q 522 8 544 0 q 500 33 500 15 z "},"i":{"ha":486,"x_min":49,"x_max":438,"o":"m 431 718 l 431 33 q 351 9 431 18 q 187 0 271 0 q 78 8 103 0 q 54 33 54 15 l 54 693 q 133 753 54 724 q 304 783 211 783 q 431 718 431 783 m 242 1083 q 385 1056 333 1083 q 438 958 438 1029 q 243 833 438 833 q 49 958 49 833 q 242 1083 49 1083 z "},"j":{"ha":556,"x_min":0,"x_max":507,"o":"m 500 125 q 423 -131 500 -46 q 211 -215 346 -215 q 38 -190 76 -215 q 0 -74 0 -164 q 35 19 0 15 q 103 44 83 26 q 124 111 124 63 l 124 693 q 202 753 124 724 q 372 783 281 783 q 500 718 500 783 l 500 125 m 507 963 q 313 833 507 833 q 118 960 118 833 q 170 1057 118 1031 q 315 1083 222 1083 q 458 1059 408 1083 q 507 963 507 1035 z "},"k":{"ha":883,"x_min":49,"x_max":876,"o":"m 424 33 q 346 9 424 18 q 183 0 268 0 q 74 8 99 0 q 49 33 49 15 l 49 994 q 127 1054 49 1025 q 296 1083 206 1083 q 424 1019 424 1083 l 424 500 l 442 500 q 540 818 508 818 q 735 781 621 818 q 849 697 849 743 q 793 569 849 664 q 678 415 738 475 q 876 133 876 178 q 750 32 876 92 q 572 -28 624 -28 q 519 33 547 -28 q 460 214 492 93 l 424 171 l 424 33 z "},"l":{"ha":472,"x_min":49,"x_max":424,"o":"m 424 1019 l 424 33 q 344 9 424 18 q 181 0 265 0 q 73 8 97 0 q 49 33 49 15 l 49 994 q 127 1054 49 1025 q 296 1083 206 1083 q 424 1019 424 1083 z "},"m":{"ha":1363,"x_min":49,"x_max":1314,"o":"m 1314 458 l 1314 33 q 1235 9 1314 18 q 1073 0 1157 0 q 964 8 989 0 q 939 33 939 15 l 939 418 q 899 617 939 617 q 879 608 889 617 q 869 579 869 600 l 869 33 q 791 9 869 18 q 628 0 713 0 q 519 8 543 0 q 494 33 494 15 l 494 418 q 475 603 494 572 q 450 617 465 617 q 424 579 424 617 l 424 33 q 344 9 424 18 q 181 0 265 0 q 73 8 97 0 q 49 33 49 15 l 49 718 q 128 776 49 747 q 297 806 208 806 q 397 754 386 806 l 410 693 l 419 693 q 553 806 460 772 q 653 818 592 818 q 831 693 775 818 q 921 776 849 735 q 1081 818 993 818 q 1266 733 1218 818 q 1314 458 1314 647 z "},"n":{"ha":935,"x_min":49,"x_max":886,"o":"m 886 461 l 886 33 q 807 9 886 18 q 644 0 728 0 q 535 8 560 0 q 511 33 511 15 l 511 475 q 506 557 511 538 q 497 592 501 576 q 463 618 488 618 q 424 581 424 618 l 424 33 q 345 9 424 18 q 183 0 267 0 q 74 8 99 0 q 49 33 49 15 l 49 718 q 128 776 49 747 q 297 806 208 806 q 397 754 386 806 l 410 693 l 419 693 q 558 806 460 774 q 647 818 599 818 q 837 734 788 818 q 886 461 886 650 z "},"o":{"ha":951,"x_min":35,"x_max":917,"o":"m 476 -12 q 297 6 372 -12 q 161 69 222 24 q 35 411 35 161 q 164 729 35 633 q 476 818 285 818 q 617 810 558 818 q 735 778 675 803 q 833 710 796 753 q 893 591 869 667 q 917 411 917 515 q 797 94 917 200 q 476 -12 678 -12 m 428 258 q 433 233 428 258 q 448 199 438 208 q 476 189 458 189 q 503 199 493 189 q 523 258 514 208 q 532 384 532 308 q 528 501 532 460 q 520 564 525 542 q 507 599 515 586 q 477 617 494 617 q 449 606 460 617 q 428 545 438 596 q 418 401 418 494 q 428 258 418 308 z "},"p":{"ha":921,"x_min":49,"x_max":886,"o":"m 49 -168 l 49 715 q 126 775 49 744 q 294 806 204 806 q 360 796 336 806 q 389 776 383 786 q 410 693 394 767 l 421 693 q 446 732 424 706 q 491 775 468 758 q 557 805 514 792 q 658 818 600 818 q 763 792 715 818 q 833 733 810 767 q 869 647 856 699 q 884 563 882 594 q 886 473 886 532 q 882 356 886 414 q 867 239 878 299 q 835 136 856 179 q 782 58 814 93 q 594 -11 718 -11 q 516 2 550 -11 q 465 33 482 15 q 425 100 431 71 l 424 114 l 413 114 l 432 -11 l 432 -168 q 352 -192 432 -183 q 188 -201 272 -201 q 76 -194 104 -201 q 49 -168 49 -186 m 510 407 q 497 572 510 525 q 460 619 485 619 q 424 592 435 619 l 424 228 q 461 192 424 192 q 510 407 510 192 z "},"q":{"ha":921,"x_min":35,"x_max":872,"o":"m 455 22 q 445 16 455 22 q 399 -1 436 10 q 303 -11 363 -11 q 190 12 243 -11 q 108 69 138 35 q 61 158 79 104 q 35 368 35 242 q 145 713 35 608 q 503 818 256 818 q 700 808 640 818 q 796 790 760 799 q 872 732 872 772 l 872 -168 q 795 -192 872 -183 q 607 -201 718 -201 q 496 -168 496 -201 l 496 -11 l 513 85 l 501 85 q 488 54 501 74 q 455 22 474 35 m 456 617 q 411 404 411 617 q 458 192 411 192 q 483 199 469 192 q 497 218 497 206 l 497 611 q 456 617 488 617 z "},"r":{"ha":814,"x_min":49,"x_max":793,"o":"m 424 439 l 424 33 q 345 9 424 18 q 183 0 267 0 q 74 8 99 0 q 49 33 49 15 l 49 718 q 126 775 49 744 q 294 806 203 806 q 396 756 385 806 l 410 692 l 419 692 q 513 781 439 744 q 660 818 586 818 q 763 794 733 818 q 793 734 793 771 q 788 640 793 697 q 760 517 782 583 q 704 450 739 450 q 617 471 690 450 q 495 492 543 492 q 435 478 447 492 q 424 439 424 464 z "},"s":{"ha":849,"x_min":35,"x_max":814,"o":"m 426 -12 q 89 32 196 -12 q 35 78 35 56 q 68 211 35 135 q 126 288 101 288 q 220 257 140 288 q 355 226 300 226 q 427 233 410 226 q 444 260 444 240 q 417 292 444 281 q 347 308 389 304 q 258 325 306 313 q 168 357 210 338 q 99 422 126 376 q 71 519 71 467 q 74 597 71 571 q 97 669 76 622 q 153 744 117 715 q 267 797 190 774 q 440 821 344 821 q 601 815 536 821 q 702 799 665 808 q 763 776 739 789 q 803 731 803 756 q 764 606 803 676 q 702 535 725 535 q 603 559 679 535 q 490 583 526 583 q 432 550 432 583 q 472 519 432 529 q 567 497 511 508 q 678 466 622 486 q 774 393 735 446 q 814 260 814 340 q 426 -12 814 -12 z "},"t":{"ha":669,"x_min":14,"x_max":635,"o":"m 594 13 q 582 1 594 13 q 481 -11 569 -11 q 333 1 392 -11 q 222 47 275 13 q 121 331 121 115 l 121 547 l 51 547 q 25 579 36 547 q 14 667 14 611 q 31 765 14 722 q 76 807 49 807 l 121 807 l 121 975 q 205 1044 121 1018 q 369 1071 289 1071 q 496 1008 496 1071 l 496 807 l 599 807 q 635 703 635 807 q 619 591 635 635 q 578 547 603 547 l 496 547 l 496 293 q 528 240 496 256 q 584 224 560 224 q 614 200 608 224 q 619 129 619 176 q 594 13 619 36 z "},"u":{"ha":942,"x_min":49,"x_max":893,"o":"m 328 -12 q 110 68 172 -12 q 49 349 49 149 l 49 726 q 131 780 49 754 q 303 806 213 806 q 424 743 424 806 l 424 390 q 432 237 424 285 q 474 189 440 189 q 518 226 518 189 l 518 726 q 604 781 518 756 q 792 806 690 806 q 893 751 893 806 l 893 36 q 806 8 893 17 q 633 0 718 0 q 547 22 549 0 l 533 113 l 522 113 q 472 31 510 63 q 415 1 453 14 q 328 -12 376 -12 z "},"v":{"ha":943,"x_min":7,"x_max":936,"o":"m 7 707 q 47 744 7 721 q 157 786 88 767 q 293 806 226 806 q 432 740 428 806 l 467 299 l 485 299 l 515 718 q 611 779 518 753 q 775 806 704 806 q 881 793 846 806 q 926 767 917 781 q 936 744 936 754 q 877 601 936 735 q 642 33 818 468 q 415 0 628 0 q 328 8 349 0 q 300 33 307 15 q 106 488 204 275 q 7 707 7 701 z "},"w":{"ha":1365,"x_min":7,"x_max":1358,"o":"m 1103 33 q 915 0 1085 0 q 738 33 744 0 l 690 286 l 671 286 l 626 33 q 383 0 622 0 q 295 8 317 0 q 265 33 274 15 q 7 701 7 668 q 108 770 7 735 q 301 806 208 806 q 425 742 421 806 l 472 361 l 489 361 l 506 668 q 576 729 507 703 q 717 756 646 756 q 823 738 788 756 q 860 696 858 721 l 875 361 l 890 361 l 936 718 q 1030 778 940 751 q 1188 806 1119 806 q 1294 786 1256 806 q 1358 714 1358 756 q 1233 375 1358 710 q 1103 33 1107 40 z "},"x":{"ha":943,"x_min":7,"x_max":936,"o":"m 425 53 q 301 0 414 0 q 98 13 189 0 q 7 54 7 26 q 65 158 7 71 q 242 404 124 246 q 19 721 19 707 q 117 776 19 747 q 281 806 214 806 q 384 790 347 806 q 425 754 421 774 l 486 542 l 499 542 l 521 742 q 553 765 522 750 q 638 792 585 779 q 739 806 690 806 q 922 743 922 806 q 868 634 922 724 q 706 385 814 544 q 936 54 936 72 q 779 0 936 0 q 525 53 536 0 l 471 235 l 461 235 l 425 53 z "},"y":{"ha":918,"x_min":49,"x_max":869,"o":"m 517 90 l 517 172 l 506 172 q 485 154 499 165 q 419 125 471 143 q 305 107 368 107 q 194 127 242 107 q 118 181 146 147 q 75 272 90 215 q 49 528 49 363 l 49 719 q 131 777 49 749 q 303 806 213 806 q 424 743 424 806 l 424 568 q 468 290 424 290 q 494 328 494 290 l 494 719 q 582 777 494 749 q 769 806 669 806 q 869 751 869 806 l 869 94 q 450 -215 869 -215 q 150 -172 229 -215 q 115 -132 115 -153 q 143 -20 115 -99 q 194 58 171 58 q 233 50 200 58 q 405 22 336 22 q 495 38 474 22 q 517 90 517 53 z "},"z":{"ha":800,"x_min":35,"x_max":765,"o":"m 738 594 q 680 491 738 575 q 507 260 622 407 l 731 260 q 765 163 765 260 q 747 49 765 99 q 703 0 729 0 l 104 0 q 51 66 67 0 q 35 208 35 132 q 99 309 35 225 q 293 546 164 393 l 81 546 q 46 643 46 546 q 63 756 46 707 q 108 806 81 806 l 671 806 q 738 594 738 806 z "},"{":{"ha":647,"x_min":14,"x_max":585,"o":"m 503 999 q 532 999 503 999 q 572 988 560 999 q 585 920 585 978 q 563 820 585 863 q 506 778 542 778 q 434 731 451 778 q 417 606 417 683 q 408 498 417 529 q 386 447 399 467 q 326 393 360 411 q 415 200 415 333 q 434 56 415 97 q 503 15 453 15 q 585 -143 585 15 q 569 -192 585 -174 q 513 -210 553 -210 q 440 -206 474 -210 q 355 -194 407 -203 q 261 -162 303 -185 q 181 -104 219 -139 q 96 121 96 -31 q 67 300 96 276 q 43 314 56 310 q 14 397 14 321 q 36 475 14 472 q 89 556 79 482 q 96 671 96 599 q 118 801 96 743 q 180 893 140 858 q 261 951 219 928 q 356 983 303 974 q 503 999 447 999 z "},"|":{"ha":389,"x_min":63,"x_max":326,"o":"m 326 929 l 326 -140 q 138 -201 326 -201 q 63 -140 63 -201 l 63 904 q 240 986 63 986 q 326 929 326 986 z "},"}":{"ha":647,"x_min":63,"x_max":633,"o":"m 142 778 q 84 820 106 778 q 63 920 63 863 q 75 988 63 978 q 131 999 88 999 q 207 995 174 999 q 292 983 240 992 q 386 951 344 974 q 467 893 428 928 q 551 668 551 819 q 583 489 551 515 q 601 480 592 482 q 617 472 610 478 q 633 405 633 458 q 625 334 633 351 q 605 313 617 317 q 581 300 593 310 q 551 121 551 278 q 467 -104 551 -31 q 292 -194 383 -178 q 147 -210 200 -210 q 78 -192 94 -210 q 63 -143 63 -174 q 144 15 63 15 q 213 56 194 15 q 232 169 232 97 q 242 277 232 242 q 264 333 251 313 q 321 393 292 374 q 292 413 311 396 q 261 447 274 431 q 231 567 231 494 q 213 731 231 683 q 142 778 196 778 z "},"~":{"ha":779,"x_min":56,"x_max":724,"o":"m 724 957 q 652 892 724 936 q 527 847 581 847 q 399 872 474 847 q 303 896 325 896 q 221 872 282 896 q 135 847 160 847 q 83 897 110 847 q 56 972 56 946 q 131 1040 56 996 q 257 1083 207 1083 q 380 1060 307 1083 q 485 1036 453 1036 q 553 1060 494 1036 q 640 1083 613 1083 q 695 1032 667 1083 q 724 957 724 981 z "},"¡":{"ha":461,"x_min":42,"x_max":418,"o":"m 418 -168 q 339 -192 419 -183 q 150 -201 258 -201 q 42 -169 42 -201 q 67 408 64 378 q 119 465 71 438 q 254 493 167 493 q 381 428 375 493 l 418 -168 m 58 693 q 103 791 58 764 q 230 818 149 818 q 354 794 311 818 q 397 693 397 769 q 228 568 397 568 q 58 693 58 568 z "},"¢":{"ha":757,"x_min":35,"x_max":729,"o":"m 556 -74 q 367 -135 556 -135 q 292 -74 292 -135 l 292 1 q 35 401 35 64 q 292 803 35 739 l 292 858 q 469 940 292 940 q 556 883 556 940 l 556 814 q 690 781 650 807 q 729 702 729 756 q 708 581 729 649 q 651 514 686 514 q 584 538 640 514 q 487 561 528 561 q 424 528 446 561 q 403 402 403 496 q 422 274 403 308 q 483 240 442 240 q 585 268 524 240 q 653 296 646 296 q 703 233 679 296 q 728 122 728 171 q 556 -6 728 15 l 556 -74 z "},"£":{"ha":825,"x_min":14,"x_max":783,"o":"m 135 357 q 125 417 135 388 l 51 417 q 24 453 33 417 q 14 538 14 490 q 26 623 14 586 q 51 670 38 660 q 78 681 64 681 l 122 681 q 156 872 122 790 q 247 997 189 953 q 502 1083 358 1083 q 697 1059 646 1083 q 749 990 749 1035 q 731 851 749 914 q 685 789 713 789 q 636 799 668 789 q 574 808 604 808 q 524 776 543 808 q 501 713 504 744 l 499 681 l 683 681 q 708 656 697 681 q 719 594 719 632 q 657 417 719 417 l 494 417 q 439 299 494 328 l 439 290 q 749 304 703 304 q 783 186 783 304 q 771 53 783 83 q 739 1 750 4 l 735 0 l 89 0 q 21 128 21 0 q 69 283 21 283 q 135 357 135 283 z "},"¤":{"ha":1001,"x_min":50,"x_max":951,"o":"m 694 19 q 497 -12 606 -12 q 299 19 388 -12 l 238 -42 q 197 -57 221 -57 q 136 -21 172 -57 q 50 119 50 67 q 68 163 50 144 l 99 193 q 54 410 54 285 q 96 619 54 536 l 68 647 q 50 690 50 665 q 136 831 50 744 q 207 867 172 867 q 238 851 225 867 l 299 789 q 500 818 389 818 q 696 790 611 818 l 754 849 q 797 868 774 868 q 850 839 821 868 q 951 689 951 738 q 940 663 951 674 l 896 618 q 936 410 936 531 q 892 196 936 289 l 940 147 q 951 121 951 136 q 850 -29 951 72 q 797 -58 821 -58 q 754 -39 774 -58 l 694 19 m 496 189 q 579 403 579 189 q 496 617 579 617 q 410 403 410 617 q 496 189 410 189 z "},"¥":{"ha":969,"x_min":14,"x_max":956,"o":"m 760 108 l 676 108 l 676 40 q 592 11 676 22 q 423 0 507 0 q 314 9 339 0 q 289 40 289 18 l 289 108 l 156 108 q 135 165 135 108 q 152 221 135 193 q 186 249 169 249 l 289 249 l 289 303 l 183 303 q 163 358 163 303 q 180 416 163 388 q 214 444 197 444 l 257 444 q 14 893 14 850 q 107 954 14 922 q 303 986 200 986 q 443 908 435 986 l 481 535 l 496 535 l 522 899 q 621 962 525 938 q 803 986 717 986 q 922 961 889 986 q 956 909 956 936 q 706 444 956 882 l 815 444 q 836 393 836 444 q 819 335 836 367 q 788 303 803 303 l 676 303 l 676 249 l 788 249 q 808 197 808 249 q 791 140 808 171 q 760 108 774 108 z "},"¦":{"ha":389,"x_min":63,"x_max":326,"o":"m 326 929 l 326 510 q 138 449 326 449 q 63 510 63 449 l 63 904 q 240 986 63 986 q 326 929 326 986 m 326 281 l 326 -139 q 138 -200 326 -200 q 63 -139 63 -200 l 63 256 q 240 338 63 338 q 326 281 326 338 z "},"§":{"ha":804,"x_min":28,"x_max":776,"o":"m 404 -147 q 81 -97 189 -147 q 28 -50 28 -74 q 60 83 28 7 q 115 158 92 158 q 206 124 129 158 q 336 90 283 90 q 405 97 389 90 q 421 124 421 104 q 394 156 421 144 q 328 172 368 168 q 242 189 288 176 q 156 221 196 201 q 89 285 115 240 q 63 397 63 331 q 160 619 63 551 q 63 799 63 671 q 92 947 63 894 q 133 997 106 969 q 197 1043 160 1025 q 429 1085 283 1085 q 728 1040 646 1085 q 765 994 765 1019 q 728 870 765 940 q 669 800 692 800 q 583 824 647 800 q 488 849 519 849 q 410 815 410 849 q 506 769 410 782 q 681 713 594 760 q 749 642 722 690 q 776 525 776 593 q 672 315 776 383 q 776 124 776 253 q 404 -147 776 -147 m 428 489 q 339 444 339 489 q 414 419 358 419 q 503 464 503 419 q 428 489 483 489 z "},"¨":{"ha":792,"x_min":56,"x_max":736,"o":"m 313 860 q 294 847 313 860 q 203 833 275 833 q 93 860 131 833 q 56 960 56 888 q 94 1058 56 1033 q 203 1083 132 1083 q 313 1058 275 1083 q 351 960 351 1033 q 313 860 351 888 m 698 860 q 679 847 698 860 q 588 833 660 833 q 478 860 515 833 q 440 960 440 888 q 478 1058 440 1033 q 588 1083 517 1083 q 698 1058 660 1083 q 736 960 736 1033 q 698 860 736 888 z "},"©":{"ha":951,"x_min":35,"x_max":917,"o":"m 791 69 q 760 46 791 69 q 654 6 729 24 q 476 -12 579 -12 q 297 6 372 -12 q 161 69 222 24 q 35 411 35 161 q 119 710 35 611 q 216 778 156 753 q 335 810 276 803 q 476 818 394 818 q 617 810 558 818 q 735 778 675 803 q 833 710 796 753 q 893 591 869 667 q 917 400 917 515 q 885 199 917 285 q 791 69 853 114 m 151 410 q 235 165 151 232 q 476 99 318 99 q 716 165 633 99 q 799 410 799 232 q 703 657 799 600 q 603 697 654 686 q 484 707 551 707 q 373 701 417 707 q 285 678 329 696 q 214 628 240 660 q 151 410 151 556 m 472 206 q 364 233 421 206 q 309 296 331 251 q 288 407 288 340 q 488 613 288 613 q 619 561 619 613 q 610 505 619 536 q 582 474 600 474 q 540 483 576 474 q 488 492 504 492 q 459 470 472 492 q 446 407 446 449 q 489 324 446 324 q 539 335 503 324 q 582 346 575 346 q 608 315 599 346 q 618 260 618 283 q 472 206 618 206 z "},"ª":{"ha":461,"x_min":21,"x_max":440,"o":"m 196 669 q 126 644 192 644 q 41 653 61 644 q 21 666 21 661 q 33 714 21 671 q 117 972 71 851 q 179 982 118 978 q 290 986 240 986 q 347 972 340 986 q 417 758 394 844 q 440 668 440 672 q 355 644 440 644 q 268 665 269 644 l 264 697 l 199 697 l 196 669 m 251 789 l 243 874 l 219 874 l 210 789 l 251 789 z "},"«":{"ha":994,"x_min":21,"x_max":953,"o":"m 354 400 q 517 33 517 67 q 442 0 517 0 q 322 8 367 0 q 262 25 276 15 q 224 63 247 35 q 111 230 201 90 q 21 400 21 369 q 117 568 21 431 q 190 672 151 618 q 237 740 228 726 q 259 767 246 754 q 320 792 272 779 q 442 806 368 806 q 517 757 517 806 q 354 400 517 728 m 790 400 q 953 33 953 67 q 878 0 953 0 q 758 8 803 0 q 698 25 713 15 q 660 63 683 35 q 547 230 638 90 q 457 400 457 369 q 553 568 457 431 q 626 672 588 618 q 673 740 664 726 q 695 767 682 754 q 756 792 708 779 q 878 806 804 806 q 953 757 953 806 q 790 400 953 728 z "},"¬":{"ha":768,"x_min":42,"x_max":729,"o":"m 729 428 l 729 143 q 674 119 729 128 q 552 111 618 111 q 486 132 486 111 l 486 264 l 88 264 q 42 351 42 264 q 71 460 42 411 q 132 510 100 510 l 692 510 q 729 428 729 510 z "},"­":{"ha":1157,"x_min":0,"x_max":0,"o":""},"®":{"ha":951,"x_min":35,"x_max":917,"o":"m 791 69 q 760 46 791 69 q 654 6 729 24 q 476 -12 579 -12 q 297 6 372 -12 q 161 69 222 24 q 35 411 35 161 q 119 710 35 611 q 216 778 156 753 q 335 810 276 803 q 476 818 394 818 q 617 810 558 818 q 735 778 675 803 q 833 710 796 753 q 893 591 869 667 q 917 400 917 515 q 885 199 917 285 q 791 69 853 114 m 151 410 q 235 165 151 232 q 476 99 318 99 q 716 165 633 99 q 799 410 799 232 q 703 657 799 600 q 603 697 654 686 q 484 707 551 707 q 373 701 417 707 q 285 678 329 696 q 214 628 240 660 q 151 410 151 556 m 457 225 q 387 210 457 210 q 317 225 317 210 l 317 579 q 325 594 317 589 q 452 606 343 606 q 607 580 561 606 q 653 469 653 554 q 590 349 653 383 q 664 237 664 264 q 565 210 664 210 q 522 213 531 210 q 510 225 513 215 l 467 326 l 457 328 l 457 225 m 457 425 l 474 425 q 501 433 492 425 q 511 469 511 442 q 478 513 511 513 l 457 513 l 457 425 z "},"¯":{"ha":768,"x_min":42,"x_max":726,"o":"m 642 847 l 79 847 q 53 873 64 847 q 42 942 42 899 q 73 1027 42 985 q 132 1069 104 1069 l 690 1069 q 726 979 726 1069 q 697 891 726 935 q 642 847 668 847 z "},"°":{"ha":521,"x_min":63,"x_max":458,"o":"m 458 820 q 458 770 458 820 q 407 683 458 721 q 260 644 356 644 q 114 683 165 644 q 63 820 63 721 q 114 953 63 919 q 260 986 165 986 q 406 953 354 986 q 458 820 458 919 m 207 815 q 260 768 207 768 q 314 815 314 768 q 300 852 314 843 q 265 861 286 861 q 233 858 243 861 q 207 815 207 851 z "},"±":{"ha":768,"x_min":42,"x_max":726,"o":"m 351 301 q 261 338 261 301 l 261 522 l 79 522 q 53 548 64 522 q 42 622 42 574 q 72 719 42 669 q 132 768 103 768 l 261 768 l 261 924 q 308 968 261 950 q 405 986 354 986 q 481 975 456 986 q 507 949 507 964 l 507 768 l 690 768 q 726 678 726 768 q 697 577 726 632 q 642 522 668 522 l 507 522 l 507 358 q 455 318 507 335 q 351 301 403 301 m 642 0 l 79 0 q 53 26 64 0 q 42 99 42 51 q 72 197 42 147 q 132 246 103 246 l 690 246 q 726 156 726 246 q 697 55 726 110 q 642 0 668 0 z "},"²":{"ha":503,"x_min":35,"x_max":468,"o":"m 86 828 q 50 882 65 828 q 35 983 35 936 q 58 1006 35 993 q 222 1039 114 1039 q 397 1003 329 1039 q 464 889 464 967 q 444 813 464 849 q 399 758 424 778 q 340 719 374 738 q 268 690 297 697 l 440 690 q 468 611 468 690 q 459 547 468 571 q 442 519 450 522 l 432 515 l 83 515 q 38 660 38 515 q 85 705 38 672 q 182 776 133 738 q 231 839 231 814 q 197 861 231 861 q 128 844 164 861 q 86 828 92 828 z "},"³":{"ha":506,"x_min":35,"x_max":464,"o":"m 35 556 q 64 681 35 638 q 82 696 75 696 q 125 683 89 696 q 196 669 161 669 q 231 692 231 669 q 164 725 231 722 q 136 725 138 725 q 119 774 119 732 q 136 824 119 817 q 164 825 139 825 q 231 856 231 828 q 198 878 231 878 q 127 862 165 878 q 85 846 89 846 q 53 901 67 846 q 40 974 40 956 q 58 1006 40 992 q 224 1039 106 1039 q 400 998 343 1039 q 457 900 457 957 q 442 839 457 865 q 399 789 424 804 q 444 742 424 779 q 464 667 464 706 q 395 547 464 586 q 221 508 326 508 q 58 536 122 508 q 35 556 35 547 z "},"´":{"ha":528,"x_min":69,"x_max":458,"o":"m 361 1083 q 426 1031 393 1083 q 458 900 458 978 q 338 863 458 879 q 139 847 218 847 q 91 881 113 847 q 69 958 69 914 q 173 1042 69 1001 q 361 1083 276 1083 z "},"µ":{"ha":956,"x_min":56,"x_max":900,"o":"m 343 43 l 338 43 q 431 -174 431 -147 q 192 -215 431 -215 q 64 -200 81 -215 q 56 -183 56 -194 l 56 726 q 144 781 56 757 q 311 806 232 806 q 431 739 431 806 l 431 368 q 440 231 431 272 q 485 189 450 189 q 525 236 525 189 l 525 725 q 616 782 525 758 q 792 806 707 806 q 900 751 900 806 l 900 35 q 819 9 900 18 q 647 0 738 0 q 554 24 557 0 l 540 113 l 529 113 q 526 101 528 108 q 517 74 525 93 q 497 39 508 54 q 421 0 467 0 q 343 43 375 0 z "},"¶":{"ha":976,"x_min":28,"x_max":914,"o":"m 308 274 q 95 368 163 274 q 28 611 28 463 q 108 892 28 800 q 344 992 181 972 q 513 1000 414 1000 q 914 928 914 1000 l 914 -168 q 743 -201 914 -201 q 676 -168 676 -201 l 676 746 l 615 746 l 615 -168 q 444 -201 615 -201 q 378 -168 378 -201 l 378 274 l 308 274 z "},"·":{"ha":407,"x_min":56,"x_max":351,"o":"m 351 422 q 351 381 351 422 q 314 310 351 340 q 203 279 276 279 q 93 310 131 279 q 56 422 56 340 q 94 531 56 504 q 204 558 132 558 q 314 531 276 558 q 351 422 351 504 z "},"¸":{"ha":372,"x_min":56,"x_max":317,"o":"m 118 -103 l 78 -104 q 56 -61 56 -104 l 56 4 q 89 25 56 15 q 159 35 122 35 q 196 14 196 35 l 196 -21 q 317 -117 317 -25 q 275 -187 317 -160 q 187 -222 233 -214 q 88 -229 140 -229 q 69 -208 76 -229 q 63 -162 63 -186 q 74 -139 63 -139 q 176 -117 176 -139 q 118 -103 176 -103 z "},"¹":{"ha":382,"x_min":21,"x_max":326,"o":"m 171 510 q 108 528 108 510 l 108 839 l 33 839 q 21 895 21 839 q 33 989 21 951 q 117 1015 36 1003 q 262 1026 197 1026 q 326 992 326 1026 l 326 528 q 171 510 326 510 z "},"º":{"ha":521,"x_min":63,"x_max":458,"o":"m 458 820 q 458 770 458 820 q 407 683 458 721 q 260 644 356 644 q 114 683 165 644 q 63 820 63 721 q 114 953 63 919 q 260 986 165 986 q 406 953 354 986 q 458 820 458 919 m 263 772 q 290 816 290 772 q 260 860 290 860 q 231 818 231 860 q 240 785 231 797 q 263 772 249 772 z "},"»":{"ha":964,"x_min":42,"x_max":943,"o":"m 42 757 q 211 806 42 806 q 300 765 267 806 q 315 747 304 761 q 343 711 326 732 q 442 559 360 690 q 524 399 524 428 q 440 230 524 369 q 331 58 356 90 q 282 13 306 26 q 197 0 258 0 q 97 5 136 0 q 50 17 58 10 q 42 36 42 24 q 82 140 42 49 q 204 400 122 232 q 42 757 42 726 m 461 757 q 631 806 461 806 q 719 765 686 806 q 735 747 724 761 q 763 711 746 732 q 861 559 779 690 q 943 399 943 428 q 859 230 943 369 q 750 58 775 90 q 701 13 725 26 q 617 0 678 0 q 517 5 556 0 q 469 17 478 10 q 461 36 461 24 q 501 140 461 49 q 624 400 542 232 q 461 757 461 726 z "},"¼":{"ha":1071,"x_min":42,"x_max":1029,"o":"m 386 61 q 340 16 369 32 q 243 0 311 0 q 175 36 175 0 q 178 47 175 39 l 669 917 q 692 951 682 939 q 731 974 703 963 q 800 986 758 986 q 886 949 886 986 q 883 936 886 942 l 386 61 m 192 454 q 129 472 129 454 l 129 783 l 54 783 q 42 840 42 783 q 54 933 42 896 q 138 959 57 947 q 283 971 218 971 q 347 936 347 971 l 347 472 q 192 454 347 454 m 872 0 q 811 18 811 0 l 811 101 l 619 101 q 594 224 594 101 q 657 342 594 238 q 744 482 719 447 q 817 506 754 494 q 935 517 879 517 q 1029 482 1029 517 l 1029 18 q 872 0 1029 0 m 824 217 l 824 376 l 772 217 l 824 217 z "},"½":{"ha":1150,"x_min":42,"x_max":1108,"o":"m 372 61 q 326 16 356 32 q 229 0 297 0 q 161 36 161 0 q 164 47 161 39 l 656 917 q 678 951 668 939 q 717 974 689 963 q 786 986 744 986 q 872 949 872 986 q 869 936 872 942 l 372 61 m 192 454 q 129 472 129 454 l 129 783 l 54 783 q 42 840 42 783 q 54 933 42 896 q 138 959 57 947 q 283 971 218 971 q 347 936 347 971 l 347 472 q 192 454 347 454 m 726 313 q 690 367 706 313 q 675 468 675 421 q 697 492 675 478 q 862 524 754 524 q 1037 488 969 524 q 1104 374 1104 451 q 1084 298 1104 333 q 1039 242 1064 263 q 981 206 1014 222 q 908 175 938 182 l 1081 175 q 1108 96 1108 175 q 1099 31 1108 56 q 1081 3 1090 7 l 1072 0 l 724 0 q 678 144 678 0 q 726 190 678 157 q 823 260 775 222 q 871 324 871 299 q 837 346 871 346 q 767 329 803 346 q 726 313 731 313 z "},"¾":{"ha":1110,"x_min":42,"x_max":1068,"o":"m 450 61 q 404 16 433 32 q 307 0 375 0 q 239 36 239 0 q 242 47 239 39 l 733 917 q 756 951 746 939 q 794 974 767 963 q 864 986 822 986 q 950 949 950 986 q 947 936 950 942 l 450 61 m 42 504 q 71 628 42 586 q 89 644 82 644 q 132 631 96 644 q 203 618 168 618 q 238 640 238 618 q 172 672 238 671 q 143 674 144 674 q 126 724 126 681 q 143 772 126 767 q 172 775 146 774 q 238 804 238 776 q 205 826 238 826 q 134 810 172 826 q 92 794 96 794 q 60 849 74 794 q 47 922 47 904 q 65 953 47 940 q 231 988 113 988 q 407 947 350 988 q 464 849 464 906 q 450 786 464 814 q 406 738 431 753 q 451 691 431 728 q 471 615 471 654 q 402 496 471 535 q 228 457 333 457 q 65 486 129 457 q 42 504 42 496 m 911 0 q 850 18 850 0 l 850 101 l 658 101 q 633 224 633 101 q 696 342 633 238 q 783 482 758 447 q 856 506 793 494 q 974 517 918 517 q 1068 482 1068 517 l 1068 18 q 911 0 1068 0 m 863 217 l 863 376 l 811 217 l 863 217 z "},"¿":{"ha":832,"x_min":42,"x_max":804,"o":"m 708 160 q 776 67 747 160 q 804 -110 804 -25 q 761 -153 804 -129 q 631 -197 718 -178 q 440 -215 543 -215 q 42 64 42 -215 q 74 203 42 143 q 153 292 107 263 q 322 361 247 354 l 356 365 q 349 415 356 382 q 342 472 342 449 q 417 506 342 494 q 549 518 493 518 q 653 476 633 518 q 674 300 674 435 q 554 239 674 269 q 472 201 510 228 q 435 138 435 175 q 498 96 435 96 q 630 128 561 96 q 708 160 699 160 m 490 569 q 346 594 396 569 q 296 694 296 618 q 490 819 296 819 q 685 694 685 819 q 490 569 685 569 z "},"À":{"ha":1039,"x_min":21,"x_max":1018,"o":"m 446 71 q 403 15 443 31 q 261 0 364 0 q 90 19 158 0 q 21 67 21 38 q 144 492 21 100 q 286 944 268 885 q 398 974 293 963 q 623 986 503 986 q 756 944 743 986 q 1018 58 1018 72 q 1001 31 1018 44 q 847 0 963 0 q 596 58 601 0 l 586 149 l 453 149 l 446 71 m 557 413 l 536 663 l 506 663 l 482 413 l 557 413 m 339 1264 q 527 1223 424 1264 q 631 1138 631 1182 q 609 1061 631 1094 q 561 1028 588 1028 q 362 1044 482 1028 q 242 1081 242 1060 q 274 1211 242 1158 q 339 1264 307 1264 z "},"Á":{"ha":1039,"x_min":21,"x_max":1018,"o":"m 446 71 q 403 15 443 31 q 261 0 364 0 q 90 19 158 0 q 21 67 21 38 q 144 492 21 100 q 286 944 268 885 q 398 974 293 963 q 623 986 503 986 q 756 944 743 986 q 1018 58 1018 72 q 1001 31 1018 44 q 847 0 963 0 q 596 58 601 0 l 586 149 l 453 149 l 446 71 m 557 413 l 536 663 l 506 663 l 482 413 l 557 413 m 672 1264 q 737 1211 704 1264 q 769 1081 769 1158 q 649 1044 769 1060 q 450 1028 529 1028 q 402 1061 424 1028 q 381 1138 381 1094 q 484 1223 381 1182 q 672 1264 588 1264 z "},"Â":{"ha":1039,"x_min":21,"x_max":1018,"o":"m 446 71 q 403 15 443 31 q 261 0 364 0 q 90 19 158 0 q 21 67 21 38 q 144 492 21 100 q 286 944 268 885 q 398 974 293 963 q 623 986 503 986 q 756 944 743 986 q 1018 58 1018 72 q 1001 31 1018 44 q 847 0 963 0 q 596 58 601 0 l 586 149 l 453 149 l 446 71 m 557 413 l 536 663 l 506 663 l 482 413 l 557 413 m 269 1139 q 372 1202 269 1154 q 523 1250 474 1250 q 671 1203 572 1250 q 769 1139 769 1156 q 754 1052 769 1090 q 714 1014 739 1014 q 519 1068 694 1014 q 325 1014 343 1014 q 285 1052 300 1014 q 269 1139 269 1090 z "},"Ã":{"ha":1039,"x_min":21,"x_max":1018,"o":"m 446 71 q 403 15 443 31 q 261 0 364 0 q 90 19 158 0 q 21 67 21 38 q 144 492 21 100 q 286 944 268 885 q 398 974 293 963 q 623 986 503 986 q 756 944 743 986 q 1018 58 1018 72 q 1001 31 1018 44 q 847 0 963 0 q 596 58 601 0 l 586 149 l 453 149 l 446 71 m 557 413 l 536 663 l 506 663 l 482 413 l 557 413 m 865 1138 q 794 1072 865 1117 q 669 1028 722 1028 q 541 1052 615 1028 q 445 1076 467 1076 q 363 1052 424 1076 q 276 1028 301 1028 q 224 1077 251 1028 q 197 1153 197 1126 q 273 1220 197 1176 q 399 1264 349 1264 q 522 1240 449 1264 q 626 1217 594 1217 q 695 1240 636 1217 q 781 1264 754 1264 q 837 1213 808 1264 q 865 1138 865 1161 z "},"Ä":{"ha":1039,"x_min":21,"x_max":1018,"o":"m 446 71 q 403 15 443 31 q 261 0 364 0 q 90 19 158 0 q 21 67 21 38 q 144 492 21 100 q 286 944 268 885 q 398 974 293 963 q 623 986 503 986 q 756 944 743 986 q 1018 58 1018 72 q 1001 31 1018 44 q 847 0 963 0 q 596 58 601 0 l 586 149 l 453 149 l 446 71 m 557 413 l 536 663 l 506 663 l 482 413 l 557 413 m 444 1041 q 425 1027 444 1041 q 333 1014 406 1014 q 224 1041 261 1014 q 186 1141 186 1068 q 224 1239 186 1214 q 334 1264 263 1264 q 444 1239 406 1264 q 482 1141 482 1214 q 444 1041 482 1068 m 828 1041 q 809 1027 828 1041 q 718 1014 790 1014 q 608 1041 646 1014 q 571 1141 571 1068 q 609 1239 571 1214 q 719 1264 647 1264 q 828 1239 790 1264 q 867 1141 867 1214 q 828 1041 867 1068 z "},"Å":{"ha":1039,"x_min":21,"x_max":1018,"o":"m 446 71 q 403 15 443 31 q 261 0 364 0 q 90 19 158 0 q 21 67 21 38 q 144 492 21 100 q 286 944 268 885 q 398 974 293 963 q 623 986 503 986 q 756 944 743 986 q 1018 58 1018 72 q 1001 31 1018 44 q 847 0 963 0 q 596 58 601 0 l 586 149 l 453 149 l 446 71 m 557 413 l 536 663 l 506 663 l 482 413 l 557 413 m 679 1135 q 679 1100 679 1135 q 640 1040 679 1065 q 519 1014 601 1014 q 399 1040 438 1014 q 360 1135 360 1065 q 399 1228 360 1206 q 519 1250 438 1250 q 640 1228 601 1250 q 679 1135 679 1206 m 482 1133 q 482 1125 482 1133 q 490 1113 482 1118 q 519 1107 497 1107 q 549 1113 542 1107 q 557 1133 557 1118 q 549 1152 557 1147 q 519 1157 540 1157 q 490 1152 497 1157 q 482 1133 482 1147 z "},"Æ":{"ha":1394,"x_min":21,"x_max":1353,"o":"m 1307 0 l 718 0 q 626 10 650 0 q 603 40 603 19 l 603 149 l 444 149 l 421 71 q 365 15 408 31 q 241 0 322 0 q 108 11 160 0 q 21 67 21 29 q 178 442 21 93 q 413 933 335 792 q 512 963 422 951 q 733 975 601 975 l 1311 975 q 1340 878 1340 975 q 1328 733 1340 782 q 1294 685 1315 685 q 990 703 1240 685 l 990 610 q 1258 618 1196 618 q 1296 531 1296 618 q 1281 398 1296 443 q 1242 353 1267 353 l 990 358 l 990 269 q 1324 288 1232 288 q 1353 192 1353 288 q 1307 0 1353 0 m 603 413 l 603 647 l 521 413 l 603 413 z "},"Ç":{"ha":918,"x_min":49,"x_max":876,"o":"m 533 -12 q 560 -12 533 -12 q 645 -8 588 -12 q 758 10 703 -3 q 844 52 814 24 q 874 129 874 81 q 849 257 874 178 q 782 336 825 336 q 676 308 767 336 q 550 279 585 279 q 472 335 501 279 q 442 490 442 390 q 476 644 442 590 q 558 699 510 699 q 679 676 590 699 q 782 654 768 654 q 852 731 828 654 q 876 857 876 807 q 850 933 876 907 q 790 972 824 960 q 547 1000 717 1000 q 314 947 429 1000 q 184 863 240 915 q 88 713 128 810 q 49 489 49 615 q 119 181 49 300 q 195 92 150 129 q 281 35 240 54 q 369 4 321 15 q 448 -10 418 -7 q 533 -12 478 -12 m 494 -117 l 454 -118 q 432 -75 432 -118 l 432 -10 q 465 11 432 1 q 535 21 499 21 q 572 0 572 21 l 572 -35 q 693 -131 693 -39 q 651 -201 693 -174 q 563 -235 610 -228 q 464 -243 517 -243 q 446 -222 453 -243 q 439 -176 439 -200 q 450 -153 439 -153 q 553 -131 553 -153 q 494 -117 553 -117 z "},"È":{"ha":854,"x_min":63,"x_max":813,"o":"m 767 0 l 178 0 q 86 10 110 0 q 63 40 63 19 l 63 919 q 95 971 63 956 q 213 986 128 986 l 771 986 q 800 890 800 986 q 788 742 800 793 q 754 692 775 692 q 450 710 664 692 l 450 617 q 718 625 656 625 q 756 538 756 625 q 741 405 756 450 q 701 360 726 360 l 450 365 l 450 276 q 783 294 692 294 q 813 197 813 294 q 800 50 813 100 q 767 0 788 0 m 288 1264 q 476 1223 372 1264 q 579 1138 579 1182 q 558 1061 579 1094 q 510 1028 536 1028 q 310 1044 431 1028 q 190 1081 190 1060 q 223 1211 190 1158 q 288 1264 256 1264 z "},"É":{"ha":854,"x_min":63,"x_max":813,"o":"m 767 0 l 178 0 q 86 10 110 0 q 63 40 63 19 l 63 919 q 95 971 63 956 q 213 986 128 986 l 771 986 q 800 890 800 986 q 788 742 800 793 q 754 692 775 692 q 450 710 664 692 l 450 617 q 718 625 656 625 q 756 538 756 625 q 741 405 756 450 q 701 360 726 360 l 450 365 l 450 276 q 783 294 692 294 q 813 197 813 294 q 800 50 813 100 q 767 0 788 0 m 579 1264 q 644 1211 611 1264 q 676 1081 676 1158 q 556 1044 676 1060 q 357 1028 436 1028 q 309 1061 331 1028 q 288 1138 288 1094 q 391 1223 288 1182 q 579 1264 494 1264 z "},"Ê":{"ha":854,"x_min":63,"x_max":813,"o":"m 767 0 l 178 0 q 86 10 110 0 q 63 40 63 19 l 63 919 q 95 971 63 956 q 213 986 128 986 l 771 986 q 800 890 800 986 q 788 742 800 793 q 754 692 775 692 q 450 710 664 692 l 450 617 q 718 625 656 625 q 756 538 756 625 q 741 405 756 450 q 701 360 726 360 l 450 365 l 450 276 q 783 294 692 294 q 813 197 813 294 q 800 50 813 100 q 767 0 788 0 m 176 1139 q 278 1202 176 1154 q 430 1250 381 1250 q 578 1203 479 1250 q 676 1139 676 1156 q 661 1052 676 1090 q 621 1014 646 1014 q 426 1068 601 1014 q 232 1014 250 1014 q 192 1052 207 1014 q 176 1139 176 1090 z "},"Ë":{"ha":854,"x_min":63,"x_max":813,"o":"m 767 0 l 178 0 q 86 10 110 0 q 63 40 63 19 l 63 919 q 95 971 63 956 q 213 986 128 986 l 771 986 q 800 890 800 986 q 788 742 800 793 q 754 692 775 692 q 450 710 664 692 l 450 617 q 718 625 656 625 q 756 538 756 625 q 741 405 756 450 q 701 360 726 360 l 450 365 l 450 276 q 783 294 692 294 q 813 197 813 294 q 800 50 813 100 q 767 0 788 0 m 351 1041 q 332 1027 351 1041 q 240 1014 313 1014 q 131 1041 168 1014 q 93 1141 93 1068 q 131 1239 93 1214 q 241 1264 169 1264 q 351 1239 313 1264 q 389 1141 389 1214 q 351 1041 389 1068 m 735 1041 q 716 1027 735 1041 q 625 1014 697 1014 q 515 1041 553 1014 q 478 1141 478 1068 q 516 1239 478 1214 q 626 1264 554 1264 q 735 1239 697 1264 q 774 1141 774 1214 q 735 1041 774 1068 z "},"Ì":{"ha":513,"x_min":21,"x_max":450,"o":"m 450 33 q 365 9 450 18 q 195 0 281 0 q 86 8 110 0 q 63 33 63 15 l 63 897 q 143 958 63 928 q 324 988 224 988 q 439 950 413 988 q 450 922 450 936 l 450 33 m 118 1264 q 306 1223 203 1264 q 410 1138 410 1182 q 388 1061 410 1094 q 340 1028 367 1028 q 141 1044 261 1028 q 21 1081 21 1060 q 53 1211 21 1158 q 118 1264 86 1264 z "},"Í":{"ha":513,"x_min":63,"x_max":493,"o":"m 450 33 q 365 9 450 18 q 195 0 281 0 q 86 8 110 0 q 63 33 63 15 l 63 897 q 143 958 63 928 q 324 988 224 988 q 439 950 413 988 q 450 922 450 936 l 450 33 m 396 1264 q 460 1211 428 1264 q 493 1081 493 1158 q 373 1044 493 1060 q 174 1028 253 1028 q 126 1061 147 1028 q 104 1138 104 1094 q 208 1223 104 1182 q 396 1264 311 1264 z "},"Î":{"ha":513,"x_min":13,"x_max":513,"o":"m 450 33 q 365 9 450 18 q 195 0 281 0 q 86 8 110 0 q 63 33 63 15 l 63 897 q 143 958 63 928 q 324 988 224 988 q 439 950 413 988 q 450 922 450 936 l 450 33 m 13 1139 q 115 1202 13 1154 q 266 1250 217 1250 q 414 1203 315 1250 q 513 1139 513 1156 q 497 1052 513 1090 q 457 1014 482 1014 q 263 1068 438 1014 q 68 1014 86 1014 q 28 1052 43 1014 q 13 1139 13 1090 z "},"Ï":{"ha":513,"x_min":-76,"x_max":604,"o":"m 450 33 q 365 9 450 18 q 195 0 281 0 q 86 8 110 0 q 63 33 63 15 l 63 897 q 143 958 63 928 q 324 988 224 988 q 439 950 413 988 q 450 922 450 936 l 450 33 m 181 1041 q 162 1027 181 1041 q 71 1014 143 1014 q -39 1041 -1 1014 q -76 1141 -76 1068 q -38 1239 -76 1214 q 72 1264 0 1264 q 181 1239 143 1264 q 219 1141 219 1214 q 181 1041 219 1068 m 566 1041 q 547 1027 566 1041 q 456 1014 528 1014 q 346 1041 383 1014 q 308 1141 308 1068 q 347 1239 308 1214 q 456 1264 385 1264 q 566 1239 528 1264 q 604 1141 604 1214 q 566 1041 604 1068 z "},"Ð":{"ha":1078,"x_min":14,"x_max":1029,"o":"m 111 379 l 51 379 q 25 405 36 379 q 14 478 14 431 q 44 576 14 526 q 104 625 75 625 l 111 625 l 111 918 q 142 970 111 954 q 247 986 172 986 l 560 986 q 928 881 826 986 q 1029 500 1029 776 q 924 112 1029 224 q 554 0 818 0 l 226 0 q 135 10 158 0 q 111 42 111 19 l 111 379 m 543 779 q 499 774 510 779 l 499 625 l 554 625 q 590 535 590 625 q 561 434 590 489 q 506 379 532 379 l 499 379 l 499 211 q 551 207 519 207 q 615 274 593 207 q 636 504 636 340 q 614 724 636 668 q 543 779 592 779 z "},"Ñ":{"ha":1019,"x_min":56,"x_max":964,"o":"m 443 40 q 358 11 443 22 q 188 0 272 0 q 79 10 103 0 q 56 40 56 19 l 56 893 q 135 957 56 928 q 317 986 215 986 q 371 983 353 986 q 438 924 418 976 l 571 565 l 576 565 l 576 893 q 656 957 576 928 q 836 986 735 986 q 947 953 924 986 q 964 910 964 929 l 964 40 q 878 11 964 22 q 691 0 793 0 q 579 26 589 0 l 450 368 l 443 368 l 443 40 m 836 1124 q 765 1058 836 1103 q 640 1014 693 1014 q 512 1038 586 1014 q 416 1063 438 1063 q 333 1038 394 1063 q 247 1014 272 1014 q 195 1063 222 1014 q 168 1139 168 1113 q 244 1206 168 1163 q 369 1250 319 1250 q 492 1226 419 1250 q 597 1203 565 1203 q 666 1226 607 1203 q 752 1250 725 1250 q 808 1199 779 1250 q 836 1124 836 1147 z "},"Ò":{"ha":1078,"x_min":49,"x_max":1029,"o":"m 539 -12 q 341 9 424 -12 q 189 86 258 31 q 49 507 49 196 q 87 735 49 638 q 193 889 125 832 q 539 1000 326 1000 q 730 981 649 1000 q 883 910 811 961 q 1029 507 1029 804 q 897 114 1029 240 q 539 -12 765 -12 m 493 226 q 501 216 493 226 q 539 206 510 206 q 585 226 568 206 q 613 312 601 246 q 624 496 624 378 q 613 678 624 614 q 585 761 601 742 q 539 781 568 781 q 493 761 510 781 q 465 678 476 742 q 454 496 454 614 q 465 312 454 378 q 493 226 476 246 m 372 1264 q 560 1223 457 1264 q 664 1138 664 1182 q 642 1061 664 1094 q 594 1028 621 1028 q 395 1044 515 1028 q 275 1081 275 1060 q 308 1211 275 1158 q 372 1264 340 1264 z "},"Ó":{"ha":1078,"x_min":49,"x_max":1029,"o":"m 539 -12 q 341 9 424 -12 q 189 86 258 31 q 49 507 49 196 q 87 735 49 638 q 193 889 125 832 q 539 1000 326 1000 q 730 981 649 1000 q 883 910 811 961 q 1029 507 1029 804 q 897 114 1029 240 q 539 -12 765 -12 m 493 226 q 501 216 493 226 q 539 206 510 206 q 585 226 568 206 q 613 312 601 246 q 624 496 624 378 q 613 678 624 614 q 585 761 601 742 q 539 781 568 781 q 493 761 510 781 q 465 678 476 742 q 454 496 454 614 q 465 312 454 378 q 493 226 476 246 m 692 1278 q 756 1225 724 1278 q 789 1094 789 1172 q 669 1058 789 1074 q 469 1042 549 1042 q 422 1075 443 1042 q 400 1152 400 1108 q 503 1237 400 1196 q 692 1278 607 1278 z "},"Ô":{"ha":1078,"x_min":49,"x_max":1029,"o":"m 539 -12 q 341 9 424 -12 q 189 86 258 31 q 49 507 49 196 q 87 735 49 638 q 193 889 125 832 q 539 1000 326 1000 q 730 981 649 1000 q 883 910 811 961 q 1029 507 1029 804 q 897 114 1029 240 q 539 -12 765 -12 m 493 226 q 501 216 493 226 q 539 206 510 206 q 585 226 568 206 q 613 312 601 246 q 624 496 624 378 q 613 678 624 614 q 585 761 601 742 q 539 781 568 781 q 493 761 510 781 q 465 678 476 742 q 454 496 454 614 q 465 312 454 378 q 493 226 476 246 m 289 1153 q 391 1216 289 1168 q 542 1264 493 1264 q 690 1217 592 1264 q 789 1153 789 1169 q 774 1066 789 1104 q 733 1028 758 1028 q 539 1082 714 1028 q 344 1028 363 1028 q 304 1066 319 1028 q 289 1153 289 1104 z "},"Õ":{"ha":1078,"x_min":49,"x_max":1029,"o":"m 539 -12 q 341 9 424 -12 q 189 86 258 31 q 49 507 49 196 q 87 735 49 638 q 193 889 125 832 q 539 1000 326 1000 q 730 981 649 1000 q 883 910 811 961 q 1029 507 1029 804 q 897 114 1029 240 q 539 -12 765 -12 m 493 226 q 501 216 493 226 q 539 206 510 206 q 585 226 568 206 q 613 312 601 246 q 624 496 624 378 q 613 678 624 614 q 585 761 601 742 q 539 781 568 781 q 493 761 510 781 q 465 678 476 742 q 454 496 454 614 q 465 312 454 378 q 493 226 476 246 m 879 1138 q 808 1072 879 1117 q 683 1028 736 1028 q 555 1052 629 1028 q 459 1076 481 1076 q 376 1052 438 1076 q 290 1028 315 1028 q 238 1077 265 1028 q 211 1153 211 1126 q 287 1220 211 1176 q 413 1264 363 1264 q 535 1240 463 1264 q 640 1217 608 1217 q 709 1240 650 1217 q 795 1264 768 1264 q 851 1213 822 1264 q 879 1138 879 1161 z "},"Ö":{"ha":1078,"x_min":49,"x_max":1029,"o":"m 539 -12 q 341 9 424 -12 q 189 86 258 31 q 49 507 49 196 q 87 735 49 638 q 193 889 125 832 q 539 1000 326 1000 q 730 981 649 1000 q 883 910 811 961 q 1029 507 1029 804 q 897 114 1029 240 q 539 -12 765 -12 m 493 226 q 501 216 493 226 q 539 206 510 206 q 585 226 568 206 q 613 312 601 246 q 624 496 624 378 q 613 678 624 614 q 585 761 601 742 q 539 781 568 781 q 493 761 510 781 q 465 678 476 742 q 454 496 454 614 q 465 312 454 378 q 493 226 476 246 m 456 1041 q 437 1027 456 1041 q 346 1014 418 1014 q 236 1041 274 1014 q 199 1141 199 1068 q 237 1239 199 1214 q 347 1264 275 1264 q 456 1239 418 1264 q 494 1141 494 1214 q 456 1041 494 1068 m 841 1041 q 822 1027 841 1041 q 731 1014 803 1014 q 621 1041 658 1014 q 583 1141 583 1068 q 622 1239 583 1214 q 731 1264 660 1264 q 841 1239 803 1264 q 879 1141 879 1214 q 841 1041 879 1068 z "},"×":{"ha":768,"x_min":72,"x_max":699,"o":"m 251 89 q 141 145 210 89 q 72 236 72 201 q 115 289 72 244 q 211 386 158 333 q 129 467 169 428 q 83 513 89 506 q 78 531 78 519 q 140 621 78 578 q 254 664 203 664 q 293 647 269 664 q 385 560 317 629 q 499 672 490 665 q 510 678 507 678 q 517 679 514 679 l 522 679 q 629 622 567 679 q 692 529 692 565 q 669 494 692 514 q 560 386 625 451 q 627 319 615 331 q 650 297 639 308 q 667 279 661 286 q 680 267 674 272 q 689 257 686 261 q 694 250 692 253 q 698 244 697 247 q 699 239 699 242 l 699 233 q 629 145 699 196 q 525 94 560 94 q 492 108 508 94 q 385 213 476 121 q 346 172 364 192 q 317 142 328 153 q 296 120 306 131 q 281 106 286 110 q 265 91 268 92 q 258 90 261 90 q 251 89 256 89 z "},"Ø":{"ha":1078,"x_min":49,"x_max":1029,"o":"m 540 -12 q 447 -65 540 -47 q 319 -75 396 -75 q 276 -56 289 -75 q 263 -17 263 -37 q 269 33 263 3 q 49 507 49 132 q 247 944 49 843 q 379 988 313 976 q 533 1000 446 1000 q 747 1075 550 1075 q 819 1026 819 1075 q 786 963 819 1003 q 1029 507 1029 871 q 833 47 1029 153 q 540 -12 719 -12 m 493 226 q 501 216 493 226 q 539 206 510 206 q 585 226 568 206 q 613 312 601 246 q 624 496 624 378 q 613 678 624 614 q 585 761 601 742 q 539 781 568 781 q 493 761 510 781 q 465 678 476 742 q 454 496 454 614 q 465 312 454 378 q 493 226 476 246 z "},"Ù":{"ha":1022,"x_min":63,"x_max":960,"o":"m 960 388 q 845 88 960 188 q 513 -11 731 -11 q 179 88 296 -11 q 63 388 63 188 l 63 897 q 141 960 63 932 q 324 988 219 988 q 432 956 407 988 q 450 913 450 931 l 450 499 q 462 291 450 342 q 513 240 474 240 q 562 290 551 240 q 572 500 572 339 l 572 897 q 651 960 572 932 q 832 988 729 988 q 942 956 919 988 q 960 913 960 931 l 960 388 m 358 1264 q 547 1223 443 1264 q 650 1138 650 1182 q 628 1061 650 1094 q 581 1028 607 1028 q 381 1044 501 1028 q 261 1081 261 1060 q 294 1211 261 1158 q 358 1264 326 1264 z "},"Ú":{"ha":1022,"x_min":63,"x_max":960,"o":"m 960 388 q 845 88 960 188 q 513 -11 731 -11 q 179 88 296 -11 q 63 388 63 188 l 63 897 q 141 960 63 932 q 324 988 219 988 q 432 956 407 988 q 450 913 450 931 l 450 499 q 462 291 450 342 q 513 240 474 240 q 562 290 551 240 q 572 500 572 339 l 572 897 q 651 960 572 932 q 832 988 729 988 q 942 956 919 988 q 960 913 960 931 l 960 388 m 678 1264 q 742 1211 710 1264 q 775 1081 775 1158 q 655 1044 775 1060 q 456 1028 535 1028 q 408 1061 429 1028 q 386 1138 386 1094 q 490 1223 386 1182 q 678 1264 593 1264 z "},"Û":{"ha":1022,"x_min":63,"x_max":960,"o":"m 960 388 q 845 88 960 188 q 513 -11 731 -11 q 179 88 296 -11 q 63 388 63 188 l 63 897 q 141 960 63 932 q 324 988 219 988 q 432 956 407 988 q 450 913 450 931 l 450 499 q 462 291 450 342 q 513 240 474 240 q 562 290 551 240 q 572 500 572 339 l 572 897 q 651 960 572 932 q 832 988 729 988 q 942 956 919 988 q 960 913 960 931 l 960 388 m 261 1139 q 363 1202 261 1154 q 515 1250 465 1250 q 663 1203 564 1250 q 761 1139 761 1156 q 746 1052 761 1090 q 706 1014 731 1014 q 511 1068 686 1014 q 317 1014 335 1014 q 276 1052 292 1014 q 261 1139 261 1090 z "},"Ü":{"ha":1022,"x_min":63,"x_max":960,"o":"m 960 388 q 845 88 960 188 q 513 -11 731 -11 q 179 88 296 -11 q 63 388 63 188 l 63 897 q 141 960 63 932 q 324 988 219 988 q 432 956 407 988 q 450 913 450 931 l 450 499 q 462 291 450 342 q 513 240 474 240 q 562 290 551 240 q 572 500 572 339 l 572 897 q 651 960 572 932 q 832 988 729 988 q 942 956 919 988 q 960 913 960 931 l 960 388 m 428 1041 q 409 1027 428 1041 q 318 1014 390 1014 q 208 1041 246 1014 q 171 1141 171 1068 q 209 1239 171 1214 q 319 1264 247 1264 q 428 1239 390 1264 q 467 1141 467 1214 q 428 1041 467 1068 m 813 1041 q 794 1027 813 1041 q 703 1014 775 1014 q 593 1041 631 1014 q 556 1141 556 1068 q 594 1239 556 1214 q 703 1264 632 1264 q 813 1239 775 1264 q 851 1141 851 1214 q 813 1041 851 1068 z "},"Ý":{"ha":969,"x_min":14,"x_max":956,"o":"m 676 40 q 592 11 676 22 q 423 0 507 0 q 314 9 339 0 q 289 40 289 18 l 289 282 q 14 893 14 844 q 107 954 14 922 q 303 986 200 986 q 443 908 435 986 l 481 535 l 496 535 l 522 899 q 621 962 525 938 q 803 986 717 986 q 922 961 889 986 q 956 908 956 936 q 676 282 956 882 l 676 40 m 651 1264 q 716 1211 683 1264 q 749 1081 749 1158 q 628 1044 749 1060 q 429 1028 508 1028 q 381 1061 403 1028 q 360 1138 360 1094 q 463 1223 360 1182 q 651 1264 567 1264 z "},"Þ":{"ha":997,"x_min":63,"x_max":956,"o":"m 450 967 l 450 875 q 747 854 679 875 q 878 786 846 824 q 947 636 933 719 q 956 524 956 586 q 947 410 956 461 q 927 322 939 360 q 892 256 915 285 q 847 208 868 228 q 789 176 825 189 q 724 155 753 163 q 650 144 696 147 q 483 139 585 139 l 450 140 l 450 33 q 379 10 450 19 q 226 0 308 0 q 113 4 144 0 q 72 15 81 8 q 63 33 63 22 l 63 942 q 144 994 63 971 q 321 1018 226 1018 q 450 967 450 1018 m 451 357 l 485 357 q 526 363 513 357 q 553 406 540 369 q 565 502 565 442 q 559 594 565 563 q 539 639 553 626 q 494 656 521 656 l 451 656 l 451 357 z "},"ß":{"ha":1276,"x_min":14,"x_max":1193,"o":"m 257 0 q 153 7 182 0 q 124 39 124 14 l 124 392 l 53 392 q 26 429 38 392 q 14 519 14 467 q 33 613 14 571 q 78 656 53 656 l 119 656 q 216 924 119 831 q 519 1018 313 1018 q 815 976 726 1018 q 904 824 904 935 q 885 719 904 781 q 867 619 867 657 q 891 560 867 582 q 951 525 915 538 q 1030 492 988 513 q 1108 447 1072 472 q 1169 374 1144 422 q 1193 257 1193 325 q 1166 137 1193 189 q 1100 56 1139 85 q 1006 11 1061 28 q 811 -15 918 -15 q 560 88 560 -15 q 580 215 560 150 q 625 281 600 281 q 685 256 631 281 q 776 232 740 232 q 839 261 839 232 q 772 311 839 296 q 649 375 708 324 q 601 451 619 399 q 582 601 582 504 q 573 741 582 699 q 541 783 564 783 q 508 762 518 783 q 499 669 499 740 l 499 36 q 257 0 499 0 z "},"à":{"ha":915,"x_min":35,"x_max":867,"o":"m 306 -12 q 108 47 179 -12 q 56 121 78 72 q 35 235 35 169 q 66 349 35 300 q 142 424 97 397 q 246 467 186 450 q 444 490 336 490 l 490 490 q 450 571 490 547 q 401 581 435 581 q 319 563 367 581 q 239 526 271 544 q 196 507 207 507 q 128 573 171 507 q 85 693 85 639 q 136 740 85 711 q 281 794 188 769 q 464 818 375 818 q 617 803 553 818 q 723 768 682 789 q 792 713 764 747 q 835 650 821 678 q 858 578 850 622 q 867 451 867 526 l 867 33 q 792 9 867 18 q 645 0 718 0 q 551 4 572 0 q 525 14 529 8 q 518 33 521 19 l 507 113 l 496 113 q 306 -12 461 -12 m 492 218 l 492 381 q 433 350 456 381 q 411 281 411 319 q 453 189 411 189 q 481 198 471 189 q 492 218 492 207 m 332 1083 q 520 1042 417 1083 q 624 958 624 1001 q 602 881 624 914 q 554 847 581 847 q 355 863 475 847 q 235 900 235 879 q 267 1031 235 978 q 332 1083 300 1083 z "},"á":{"ha":915,"x_min":35,"x_max":867,"o":"m 306 -12 q 108 47 179 -12 q 56 121 78 72 q 35 235 35 169 q 66 349 35 300 q 142 424 97 397 q 246 467 186 450 q 444 490 336 490 l 490 490 q 450 571 490 547 q 401 581 435 581 q 319 563 367 581 q 239 526 271 544 q 196 507 207 507 q 128 573 171 507 q 85 693 85 639 q 136 740 85 711 q 281 794 188 769 q 464 818 375 818 q 617 803 553 818 q 723 768 682 789 q 792 713 764 747 q 835 650 821 678 q 858 578 850 622 q 867 451 867 526 l 867 33 q 792 9 867 18 q 645 0 718 0 q 551 4 572 0 q 525 14 529 8 q 518 33 521 19 l 507 113 l 496 113 q 306 -12 461 -12 m 492 218 l 492 381 q 433 350 456 381 q 411 281 411 319 q 453 189 411 189 q 481 198 471 189 q 492 218 492 207 m 610 1083 q 674 1031 642 1083 q 707 900 707 978 q 587 863 707 879 q 388 847 467 847 q 340 881 361 847 q 318 958 318 914 q 422 1042 318 1001 q 610 1083 525 1083 z "},"â":{"ha":915,"x_min":35,"x_max":867,"o":"m 306 -12 q 108 47 179 -12 q 56 121 78 72 q 35 235 35 169 q 66 349 35 300 q 142 424 97 397 q 246 467 186 450 q 444 490 336 490 l 490 490 q 450 571 490 547 q 401 581 435 581 q 319 563 367 581 q 239 526 271 544 q 196 507 207 507 q 128 573 171 507 q 85 693 85 639 q 136 740 85 711 q 281 794 188 769 q 464 818 375 818 q 617 803 553 818 q 723 768 682 789 q 792 713 764 747 q 835 650 821 678 q 858 578 850 622 q 867 451 867 526 l 867 33 q 792 9 867 18 q 645 0 718 0 q 551 4 572 0 q 525 14 529 8 q 518 33 521 19 l 507 113 l 496 113 q 306 -12 461 -12 m 492 218 l 492 381 q 433 350 456 381 q 411 281 411 319 q 453 189 411 189 q 481 198 471 189 q 492 218 492 207 m 249 972 q 351 1035 249 988 q 502 1083 453 1083 q 650 1036 551 1083 q 749 972 749 989 q 733 885 749 924 q 693 847 718 847 q 499 901 674 847 q 304 847 322 847 q 264 885 279 847 q 249 972 249 924 z "},"ã":{"ha":915,"x_min":35,"x_max":867,"o":"m 306 -12 q 108 47 179 -12 q 56 121 78 72 q 35 235 35 169 q 66 349 35 300 q 142 424 97 397 q 246 467 186 450 q 444 490 336 490 l 490 490 q 450 571 490 547 q 401 581 435 581 q 319 563 367 581 q 239 526 271 544 q 196 507 207 507 q 128 573 171 507 q 85 693 85 639 q 136 740 85 711 q 281 794 188 769 q 464 818 375 818 q 617 803 553 818 q 723 768 682 789 q 792 713 764 747 q 835 650 821 678 q 858 578 850 622 q 867 451 867 526 l 867 33 q 792 9 867 18 q 645 0 718 0 q 551 4 572 0 q 525 14 529 8 q 518 33 521 19 l 507 113 l 496 113 q 306 -12 461 -12 m 492 218 l 492 381 q 433 350 456 381 q 411 281 411 319 q 453 189 411 189 q 481 198 471 189 q 492 218 492 207 m 804 957 q 733 892 804 936 q 608 847 661 847 q 480 872 554 847 q 384 896 406 896 q 301 872 363 896 q 215 847 240 847 q 163 897 190 847 q 136 972 136 946 q 212 1040 136 996 q 338 1083 288 1083 q 460 1060 388 1083 q 565 1036 533 1036 q 634 1060 575 1036 q 720 1083 693 1083 q 776 1032 747 1083 q 804 957 804 981 z "},"ä":{"ha":915,"x_min":35,"x_max":867,"o":"m 306 -12 q 108 47 179 -12 q 56 121 78 72 q 35 235 35 169 q 66 349 35 300 q 142 424 97 397 q 246 467 186 450 q 444 490 336 490 l 490 490 q 450 571 490 547 q 401 581 435 581 q 319 563 367 581 q 239 526 271 544 q 196 507 207 507 q 128 573 171 507 q 85 693 85 639 q 136 740 85 711 q 281 794 188 769 q 464 818 375 818 q 617 803 553 818 q 723 768 682 789 q 792 713 764 747 q 835 650 821 678 q 858 578 850 622 q 867 451 867 526 l 867 33 q 792 9 867 18 q 645 0 718 0 q 551 4 572 0 q 525 14 529 8 q 518 33 521 19 l 507 113 l 496 113 q 306 -12 461 -12 m 492 218 l 492 381 q 433 350 456 381 q 411 281 411 319 q 453 189 411 189 q 481 198 471 189 q 492 218 492 207 m 377 859 q 358 845 377 859 q 267 832 339 832 q 157 859 194 832 q 119 959 119 886 q 158 1057 119 1032 q 267 1082 196 1082 q 377 1057 339 1082 q 415 959 415 1032 q 377 859 415 886 m 762 859 q 743 845 762 859 q 651 832 724 832 q 542 859 579 832 q 504 959 504 886 q 542 1057 504 1032 q 652 1082 581 1082 q 762 1057 724 1082 q 800 959 800 1032 q 762 859 800 886 z "},"å":{"ha":915,"x_min":35,"x_max":867,"o":"m 306 -12 q 108 47 179 -12 q 56 121 78 72 q 35 235 35 169 q 66 349 35 300 q 142 424 97 397 q 246 467 186 450 q 444 490 336 490 l 490 490 q 450 571 490 547 q 414 581 435 581 q 276 547 350 581 q 196 514 201 514 q 128 590 171 514 q 85 721 85 667 q 215 794 85 761 q 433 819 313 819 q 617 805 553 819 q 723 769 682 790 q 792 713 764 749 q 835 650 821 678 q 858 579 850 622 q 867 451 867 528 l 867 33 q 792 9 867 18 q 645 0 718 0 q 551 4 572 0 q 525 14 529 8 q 518 33 521 19 l 507 113 l 496 113 q 306 -12 461 -12 m 492 218 l 492 381 q 433 350 456 381 q 411 281 411 319 q 453 189 411 189 q 481 198 471 189 q 492 218 492 207 m 635 969 q 635 934 635 969 q 596 873 635 899 q 475 847 557 847 q 354 873 393 847 q 315 969 315 899 q 354 1061 315 1039 q 475 1083 393 1083 q 596 1061 557 1083 q 635 969 635 1039 m 438 966 q 438 959 438 966 q 445 946 438 951 q 475 940 453 940 q 505 946 497 940 q 513 966 513 951 q 504 985 513 981 q 474 990 496 990 q 445 985 453 990 q 438 966 438 981 z "},"æ":{"ha":1347,"x_min":35,"x_max":1313,"o":"m 871 314 q 957 224 871 224 q 1088 258 1007 224 q 1174 292 1169 292 q 1242 213 1199 292 q 1285 96 1285 133 q 1175 15 1285 42 q 939 -12 1065 -12 q 610 82 725 -12 q 306 -12 547 -12 q 108 47 179 -12 q 56 121 78 72 q 35 235 35 169 q 66 349 35 300 q 142 424 97 397 q 246 467 186 450 q 444 490 336 490 l 490 490 q 450 571 490 547 q 414 581 435 581 q 276 547 350 581 q 196 514 201 514 q 128 590 171 514 q 85 721 85 667 q 142 769 85 743 q 472 818 249 818 q 703 778 618 818 q 961 818 803 818 q 1313 574 1313 818 q 917 314 1313 314 l 871 314 m 868 517 l 868 425 q 934 457 908 425 q 960 535 960 489 q 917 618 960 618 q 868 517 868 618 m 492 218 l 492 381 q 433 350 456 381 q 411 281 411 319 q 453 189 411 189 q 481 198 471 189 q 492 218 492 207 z "},"ç":{"ha":757,"x_min":35,"x_max":729,"o":"m 388 -117 l 347 -118 q 325 -75 325 -118 l 325 -6 q 35 403 35 42 q 67 581 35 503 q 144 703 99 660 q 250 774 190 746 q 442 818 346 818 q 666 793 603 818 q 729 708 729 768 q 708 581 729 649 q 651 514 686 514 q 584 538 640 514 q 487 561 528 561 q 424 528 446 561 q 403 402 403 496 q 422 274 403 308 q 483 240 442 240 q 585 268 524 240 q 653 296 646 296 q 703 233 679 296 q 728 122 728 171 q 660 21 728 51 q 465 -12 592 -10 l 465 -35 q 586 -131 586 -39 q 544 -201 586 -174 q 456 -235 503 -228 q 357 -243 410 -243 q 339 -222 346 -243 q 332 -176 332 -200 q 343 -153 332 -153 q 446 -131 446 -153 q 388 -117 446 -117 z "},"è":{"ha":889,"x_min":35,"x_max":854,"o":"m 414 314 q 500 224 414 224 q 631 258 550 224 q 715 292 711 292 q 785 213 742 292 q 828 96 828 133 q 717 14 828 42 q 499 -14 606 -14 q 322 3 393 -14 q 205 45 250 19 q 126 108 160 71 q 75 180 92 146 q 49 256 58 214 q 35 382 35 317 q 167 731 35 635 q 313 799 232 779 q 503 818 393 818 q 854 574 854 818 q 460 314 854 314 l 414 314 m 411 517 l 411 425 q 477 457 451 425 q 503 535 503 489 q 460 618 503 618 q 411 517 411 618 m 306 1083 q 494 1042 390 1083 q 597 958 597 1001 q 576 881 597 914 q 528 847 554 847 q 328 863 449 847 q 208 900 208 879 q 241 1031 208 978 q 306 1083 274 1083 z "},"é":{"ha":889,"x_min":35,"x_max":854,"o":"m 414 314 q 500 224 414 224 q 631 258 550 224 q 715 292 711 292 q 785 213 742 292 q 828 96 828 133 q 717 14 828 42 q 499 -14 606 -14 q 322 3 393 -14 q 205 45 250 19 q 126 108 160 71 q 75 180 92 146 q 49 256 58 214 q 35 382 35 317 q 167 731 35 635 q 313 799 232 779 q 503 818 393 818 q 854 574 854 818 q 460 314 854 314 l 414 314 m 411 517 l 411 425 q 477 457 451 425 q 503 535 503 489 q 460 618 503 618 q 411 517 411 618 m 610 1083 q 674 1031 642 1083 q 707 900 707 978 q 587 863 707 879 q 388 847 467 847 q 340 881 361 847 q 318 958 318 914 q 422 1042 318 1001 q 610 1083 525 1083 z "},"ê":{"ha":889,"x_min":35,"x_max":854,"o":"m 414 314 q 500 224 414 224 q 631 258 550 224 q 715 292 711 292 q 785 213 742 292 q 828 96 828 133 q 717 14 828 42 q 499 -14 606 -14 q 322 3 393 -14 q 205 45 250 19 q 126 108 160 71 q 75 180 92 146 q 49 256 58 214 q 35 382 35 317 q 167 731 35 635 q 313 799 232 779 q 503 818 393 818 q 854 574 854 818 q 460 314 854 314 l 414 314 m 411 517 l 411 425 q 477 457 451 425 q 503 535 503 489 q 460 618 503 618 q 411 517 411 618 m 208 972 q 310 1035 208 988 q 462 1083 413 1083 q 610 1036 511 1083 q 708 972 708 989 q 693 885 708 924 q 653 847 678 847 q 458 901 633 847 q 264 847 282 847 q 224 885 239 847 q 208 972 208 924 z "},"ë":{"ha":889,"x_min":35,"x_max":854,"o":"m 414 314 q 500 224 414 224 q 631 258 550 224 q 715 292 711 292 q 785 213 742 292 q 828 96 828 133 q 717 14 828 42 q 499 -14 606 -14 q 322 3 393 -14 q 205 45 250 19 q 126 108 160 71 q 75 180 92 146 q 49 256 58 214 q 35 382 35 317 q 167 731 35 635 q 313 799 232 779 q 503 818 393 818 q 854 574 854 818 q 460 314 854 314 l 414 314 m 411 517 l 411 425 q 477 457 451 425 q 503 535 503 489 q 460 618 503 618 q 411 517 411 618 m 374 860 q 355 847 374 860 q 264 833 336 833 q 154 860 192 833 q 117 960 117 888 q 155 1058 117 1033 q 265 1083 193 1083 q 374 1058 336 1083 q 413 960 413 1033 q 374 860 413 888 m 759 860 q 740 847 759 860 q 649 833 721 833 q 539 860 576 833 q 501 960 501 888 q 540 1058 501 1033 q 649 1083 578 1083 q 759 1058 721 1083 q 797 960 797 1033 q 759 860 797 888 z "},"ì":{"ha":474,"x_min":1,"x_max":425,"o":"m 425 742 l 425 33 q 345 9 425 18 q 181 0 265 0 q 73 8 97 0 q 49 33 49 15 l 49 717 q 128 776 49 747 q 299 806 207 806 q 425 742 425 806 m 99 1083 q 287 1042 183 1083 q 390 958 390 1001 q 369 881 390 914 q 321 847 347 847 q 122 863 242 847 q 1 900 1 879 q 34 1031 1 978 q 99 1083 67 1083 z "},"í":{"ha":474,"x_min":49,"x_max":474,"o":"m 425 742 l 425 33 q 345 9 425 18 q 181 0 265 0 q 73 8 97 0 q 49 33 49 15 l 49 717 q 128 776 49 747 q 299 806 207 806 q 425 742 425 806 m 376 1083 q 441 1031 408 1083 q 474 900 474 978 q 353 863 474 879 q 154 847 233 847 q 106 881 128 847 q 85 958 85 914 q 188 1042 85 1001 q 376 1083 292 1083 z "},"î":{"ha":474,"x_min":-6,"x_max":494,"o":"m 425 742 l 425 33 q 345 9 425 18 q 181 0 265 0 q 73 8 97 0 q 49 33 49 15 l 49 717 q 128 776 49 747 q 299 806 207 806 q 425 742 425 806 m -6 958 q 97 1022 -6 974 q 248 1069 199 1069 q 396 1022 297 1069 q 494 958 494 975 q 479 872 494 910 q 439 833 464 833 q 244 888 419 833 q 50 833 68 833 q 10 872 25 833 q -6 958 -6 910 z "},"ï":{"ha":474,"x_min":-94,"x_max":586,"o":"m 425 742 l 425 33 q 345 9 425 18 q 181 0 265 0 q 73 8 97 0 q 49 33 49 15 l 49 717 q 128 776 49 747 q 299 806 207 806 q 425 742 425 806 m 163 860 q 144 847 163 860 q 53 833 125 833 q -57 860 -19 833 q -94 960 -94 888 q -56 1058 -94 1033 q 53 1083 -18 1083 q 163 1058 125 1083 q 201 960 201 1033 q 163 860 201 888 m 548 860 q 529 847 548 860 q 438 833 510 833 q 328 860 365 833 q 290 960 290 888 q 328 1058 290 1033 q 438 1083 367 1083 q 548 1058 510 1083 q 586 960 586 1033 q 548 860 586 888 z "},"ð":{"ha":979,"x_min":35,"x_max":965,"o":"m 881 819 l 874 819 l 874 33 q 797 9 874 18 q 648 0 719 0 q 556 5 576 0 q 531 15 536 10 q 525 33 526 21 l 514 113 l 503 113 q 453 31 490 64 q 398 1 435 14 q 310 -12 361 -12 q 214 3 258 -12 q 141 40 169 18 q 92 100 113 63 q 60 172 71 138 q 43 256 49 206 q 35 435 35 329 q 53 619 35 540 q 108 741 71 699 q 190 801 144 783 q 293 818 236 818 q 390 808 350 818 q 450 786 429 799 q 500 735 490 758 l 503 725 l 514 725 l 514 819 l 461 819 q 424 904 424 819 q 454 995 424 953 q 514 1038 485 1038 l 538 1038 q 735 1083 624 1083 q 869 1038 847 1083 l 929 1038 q 965 961 965 1038 q 936 867 965 915 q 881 819 907 819 m 465 190 q 499 218 488 190 l 499 589 q 484 610 499 603 q 458 618 469 618 q 411 401 411 618 q 424 238 411 286 q 465 190 438 190 z "},"ñ":{"ha":935,"x_min":49,"x_max":886,"o":"m 886 461 l 886 33 q 807 9 886 18 q 644 0 728 0 q 535 8 560 0 q 511 33 511 15 l 511 475 q 506 557 511 538 q 497 592 501 576 q 463 618 488 618 q 424 581 424 618 l 424 33 q 345 9 424 18 q 183 0 267 0 q 74 8 99 0 q 49 33 49 15 l 49 718 q 128 776 49 747 q 297 806 208 806 q 397 754 386 806 l 410 693 l 419 693 q 558 806 460 774 q 647 818 599 818 q 837 734 788 818 q 886 461 886 650 m 763 957 q 691 892 763 936 q 566 847 619 847 q 438 872 513 847 q 342 896 364 896 q 260 872 321 896 q 174 847 199 847 q 122 897 149 847 q 94 972 94 946 q 170 1040 94 996 q 296 1083 246 1083 q 419 1060 346 1083 q 524 1036 492 1036 q 592 1060 533 1036 q 678 1083 651 1083 q 734 1032 706 1083 q 763 957 763 981 z "},"ò":{"ha":951,"x_min":35,"x_max":917,"o":"m 476 -12 q 297 6 372 -12 q 161 69 222 24 q 35 411 35 161 q 164 729 35 633 q 476 818 285 818 q 617 810 558 818 q 735 778 675 803 q 833 710 796 753 q 893 591 869 667 q 917 411 917 515 q 797 94 917 200 q 476 -12 678 -12 m 428 258 q 433 233 428 258 q 448 199 438 208 q 476 189 458 189 q 503 199 493 189 q 523 258 514 208 q 532 384 532 308 q 528 501 532 460 q 520 564 525 542 q 507 599 515 586 q 477 617 494 617 q 449 606 460 617 q 428 545 438 596 q 418 401 418 494 q 428 258 418 308 m 322 1083 q 510 1042 407 1083 q 614 958 614 1001 q 592 881 614 914 q 544 847 571 847 q 345 863 465 847 q 225 900 225 879 q 258 1031 225 978 q 322 1083 290 1083 z "},"ó":{"ha":951,"x_min":35,"x_max":917,"o":"m 476 -12 q 297 6 372 -12 q 161 69 222 24 q 35 411 35 161 q 164 729 35 633 q 476 818 285 818 q 617 810 558 818 q 735 778 675 803 q 833 710 796 753 q 893 591 869 667 q 917 411 917 515 q 797 94 917 200 q 476 -12 678 -12 m 428 258 q 433 233 428 258 q 448 199 438 208 q 476 189 458 189 q 503 199 493 189 q 523 258 514 208 q 532 384 532 308 q 528 501 532 460 q 520 564 525 542 q 507 599 515 586 q 477 617 494 617 q 449 606 460 617 q 428 545 438 596 q 418 401 418 494 q 428 258 418 308 m 642 1083 q 706 1031 674 1083 q 739 900 739 978 q 619 863 739 879 q 419 847 499 847 q 372 881 393 847 q 350 958 350 914 q 453 1042 350 1001 q 642 1083 557 1083 z "},"ô":{"ha":951,"x_min":35,"x_max":917,"o":"m 476 -12 q 297 6 372 -12 q 161 69 222 24 q 35 411 35 161 q 164 729 35 633 q 476 818 285 818 q 617 810 558 818 q 735 778 675 803 q 833 710 796 753 q 893 591 869 667 q 917 411 917 515 q 797 94 917 200 q 476 -12 678 -12 m 428 258 q 433 233 428 258 q 448 199 438 208 q 476 189 458 189 q 503 199 493 189 q 523 258 514 208 q 532 384 532 308 q 528 501 532 460 q 520 564 525 542 q 507 599 515 586 q 477 617 494 617 q 449 606 460 617 q 428 545 438 596 q 418 401 418 494 q 428 258 418 308 m 225 972 q 327 1035 225 988 q 478 1083 429 1083 q 626 1036 528 1083 q 725 972 725 989 q 710 885 725 924 q 669 847 694 847 q 475 901 650 847 q 281 847 299 847 q 240 885 256 847 q 225 972 225 924 z "},"õ":{"ha":951,"x_min":35,"x_max":917,"o":"m 476 -12 q 297 6 372 -12 q 161 69 222 24 q 35 411 35 161 q 164 729 35 633 q 476 818 285 818 q 617 810 558 818 q 735 778 675 803 q 833 710 796 753 q 893 591 869 667 q 917 411 917 515 q 797 94 917 200 q 476 -12 678 -12 m 428 258 q 433 233 428 258 q 448 199 438 208 q 476 189 458 189 q 503 199 493 189 q 523 258 514 208 q 532 384 532 308 q 528 501 532 460 q 520 564 525 542 q 507 599 515 586 q 477 617 494 617 q 449 606 460 617 q 428 545 438 596 q 418 401 418 494 q 428 258 418 308 m 818 957 q 747 892 818 936 q 622 847 675 847 q 494 872 568 847 q 398 896 419 896 q 315 872 376 896 q 229 847 254 847 q 177 897 204 847 q 150 972 150 946 q 226 1040 150 996 q 351 1083 301 1083 q 474 1060 401 1083 q 579 1036 547 1036 q 648 1060 589 1036 q 734 1083 707 1083 q 790 1032 761 1083 q 818 957 818 981 z "},"ö":{"ha":951,"x_min":35,"x_max":917,"o":"m 476 -12 q 297 6 372 -12 q 161 69 222 24 q 35 411 35 161 q 164 729 35 633 q 476 818 285 818 q 617 810 558 818 q 735 778 675 803 q 833 710 796 753 q 893 591 869 667 q 917 411 917 515 q 797 94 917 200 q 476 -12 678 -12 m 428 258 q 433 233 428 258 q 448 199 438 208 q 476 189 458 189 q 503 199 493 189 q 523 258 514 208 q 532 384 532 308 q 528 501 532 460 q 520 564 525 542 q 507 599 515 586 q 477 617 494 617 q 449 606 460 617 q 428 545 438 596 q 418 401 418 494 q 428 258 418 308 m 392 860 q 373 847 392 860 q 282 833 354 833 q 172 860 210 833 q 135 960 135 888 q 173 1058 135 1033 q 283 1083 211 1083 q 392 1058 354 1083 q 431 960 431 1033 q 392 860 431 888 m 777 860 q 758 847 777 860 q 667 833 739 833 q 557 860 594 833 q 519 960 519 888 q 558 1058 519 1033 q 667 1083 596 1083 q 777 1058 739 1083 q 815 960 815 1033 q 777 860 815 888 z "},"÷":{"ha":740,"x_min":28,"x_max":713,"o":"m 461 10 q 446 -2 461 10 q 372 -14 431 -14 q 283 10 314 -14 q 253 101 253 35 q 284 189 253 167 q 372 211 315 211 q 460 189 429 211 q 492 101 492 167 q 461 10 492 35 m 628 264 l 65 264 q 39 290 50 264 q 28 363 28 315 q 58 460 28 411 q 118 510 89 510 l 676 510 q 713 419 713 510 q 683 319 713 374 q 628 264 654 264 m 461 590 q 446 577 461 590 q 372 565 431 565 q 283 590 314 565 q 253 680 253 614 q 284 768 253 746 q 372 790 315 790 q 460 768 429 790 q 492 680 492 746 q 461 590 492 614 z "},"ø":{"ha":951,"x_min":35,"x_max":917,"o":"m 268 -121 q 224 -102 238 -121 q 211 -61 211 -83 q 228 28 211 -39 q 35 411 35 111 q 201 772 35 693 q 313 808 257 799 q 446 818 369 817 l 458 867 q 672 942 478 942 q 744 893 744 942 q 721 785 744 875 q 917 411 917 708 q 799 75 917 168 q 669 10 740 29 q 501 -12 599 -10 l 489 -60 q 268 -121 472 -121 m 428 258 q 433 233 428 258 q 448 199 438 208 q 476 189 458 189 q 503 199 493 189 q 523 258 514 208 q 532 384 532 308 q 528 501 532 460 q 520 564 525 542 q 507 599 515 586 q 477 617 494 617 q 449 606 460 617 q 428 545 438 596 q 418 401 418 494 q 428 258 418 308 z "},"ù":{"ha":942,"x_min":49,"x_max":893,"o":"m 328 -12 q 110 68 172 -12 q 49 349 49 149 l 49 726 q 131 780 49 754 q 303 806 213 806 q 424 743 424 806 l 424 390 q 432 237 424 285 q 474 189 440 189 q 518 226 518 189 l 518 726 q 604 781 518 756 q 792 806 690 806 q 893 751 893 806 l 893 36 q 806 8 893 17 q 633 0 718 0 q 547 22 549 0 l 533 113 l 522 113 q 472 31 510 63 q 415 1 453 14 q 328 -12 376 -12 m 346 1083 q 534 1042 431 1083 q 638 958 638 1001 q 616 881 638 914 q 568 847 594 847 q 369 863 489 847 q 249 900 249 879 q 281 1031 249 978 q 346 1083 314 1083 z "},"ú":{"ha":942,"x_min":49,"x_max":893,"o":"m 547 22 l 533 113 l 522 113 l 519 100 q 472 32 514 69 q 415 1 453 14 q 328 -12 376 -12 q 110 68 172 -12 q 49 349 49 149 l 49 726 q 131 780 49 754 q 303 806 213 806 q 424 743 424 806 l 424 390 q 432 237 424 285 q 474 189 440 189 q 518 226 518 189 l 518 726 q 604 781 518 756 q 792 806 690 806 q 893 751 893 806 l 893 36 q 806 8 893 17 q 633 0 718 0 q 547 22 549 0 m 638 1083 q 702 1031 669 1083 q 735 900 735 978 q 615 863 735 879 q 415 847 494 847 q 367 881 389 847 q 346 958 346 914 q 449 1042 346 1001 q 638 1083 553 1083 z "},"û":{"ha":942,"x_min":49,"x_max":893,"o":"m 547 22 l 533 113 l 522 113 l 519 100 q 472 32 514 69 q 415 1 453 14 q 328 -12 376 -12 q 110 68 172 -12 q 49 349 49 149 l 49 726 q 131 780 49 754 q 303 806 213 806 q 424 743 424 806 l 424 390 q 432 237 424 285 q 474 189 440 189 q 518 226 518 189 l 518 726 q 604 781 518 756 q 792 806 690 806 q 893 751 893 806 l 893 36 q 806 8 893 17 q 633 0 718 0 q 547 22 549 0 m 224 958 q 326 1022 224 974 q 477 1069 428 1069 q 625 1022 526 1069 q 724 958 724 975 q 708 872 724 910 q 668 833 693 833 q 474 888 649 833 q 279 833 297 833 q 239 872 254 833 q 224 958 224 910 z "},"ü":{"ha":942,"x_min":49,"x_max":893,"o":"m 547 22 l 533 113 l 522 113 l 519 100 q 472 32 514 69 q 415 1 453 14 q 328 -12 376 -12 q 110 68 172 -12 q 49 349 49 149 l 49 726 q 131 780 49 754 q 303 806 213 806 q 424 743 424 806 l 424 390 q 432 237 424 285 q 474 189 440 189 q 518 226 518 189 l 518 726 q 604 781 518 756 q 792 806 690 806 q 893 751 893 806 l 893 36 q 806 8 893 17 q 633 0 718 0 q 547 22 549 0 m 388 860 q 369 847 388 860 q 278 833 350 833 q 168 860 206 833 q 131 960 131 888 q 169 1058 131 1033 q 278 1083 207 1083 q 388 1058 350 1083 q 426 960 426 1033 q 388 860 426 888 m 773 860 q 754 847 773 860 q 663 833 735 833 q 553 860 590 833 q 515 960 515 888 q 553 1058 515 1033 q 663 1083 592 1083 q 773 1058 735 1083 q 811 960 811 1033 q 773 860 811 888 z "},"ý":{"ha":918,"x_min":49,"x_max":869,"o":"m 517 90 l 517 172 l 506 172 q 485 154 499 165 q 419 125 471 143 q 305 107 368 107 q 194 127 242 107 q 118 181 146 147 q 75 272 90 215 q 49 528 49 363 l 49 719 q 131 777 49 749 q 303 806 213 806 q 424 743 424 806 l 424 568 q 468 290 424 290 q 494 328 494 290 l 494 719 q 582 777 494 749 q 769 806 669 806 q 869 751 869 806 l 869 94 q 450 -215 869 -215 q 150 -172 229 -215 q 115 -132 115 -153 q 143 -20 115 -99 q 194 58 171 58 q 233 50 200 58 q 405 22 336 22 q 495 38 474 22 q 517 90 517 53 m 611 1083 q 676 1031 643 1083 q 708 900 708 978 q 588 863 708 879 q 389 847 468 847 q 341 881 363 847 q 319 958 319 914 q 423 1042 319 1001 q 611 1083 526 1083 z "},"þ":{"ha":1021,"x_min":43,"x_max":881,"o":"m 43 -142 l 43 929 q 125 989 43 960 q 297 1018 207 1018 q 419 954 419 1018 l 419 821 l 404 725 l 415 725 q 513 794 453 769 q 634 818 574 818 q 738 803 694 818 q 806 758 781 789 q 848 697 832 728 q 871 614 864 665 q 881 439 881 540 q 867 263 881 338 q 821 125 853 189 q 730 25 789 61 q 589 -11 671 -11 q 510 2 544 -11 q 460 33 476 15 q 419 100 425 71 l 418 114 l 407 114 l 426 -11 l 426 -142 q 347 -166 426 -157 q 183 -175 267 -175 q 71 -167 99 -175 q 43 -142 43 -160 m 504 391 q 504 458 504 391 q 492 572 504 525 q 454 619 479 619 q 418 592 429 619 l 418 253 q 456 217 418 217 q 483 231 472 217 q 504 391 504 257 z "},"ÿ":{"ha":918,"x_min":49,"x_max":869,"o":"m 517 90 l 517 172 l 506 172 q 485 154 499 165 q 419 125 471 143 q 305 107 368 107 q 194 127 242 107 q 118 181 146 147 q 75 272 90 215 q 49 528 49 363 l 49 719 q 131 777 49 749 q 303 806 213 806 q 424 743 424 806 l 424 568 q 468 290 424 290 q 494 328 494 290 l 494 719 q 582 777 494 749 q 769 806 669 806 q 869 751 869 806 l 869 94 q 450 -215 869 -215 q 150 -172 229 -215 q 115 -132 115 -153 q 143 -20 115 -99 q 194 58 171 58 q 233 50 200 58 q 405 22 336 22 q 495 38 474 22 q 517 90 517 53 m 376 860 q 357 847 376 860 q 265 833 338 833 q 156 860 193 833 q 118 960 118 888 q 156 1058 118 1033 q 266 1083 194 1083 q 376 1058 338 1083 q 414 960 414 1033 q 376 860 414 888 m 760 860 q 741 847 760 860 q 650 833 722 833 q 540 860 578 833 q 503 960 503 888 q 541 1058 503 1033 q 651 1083 579 1083 q 760 1058 722 1083 q 799 960 799 1033 q 760 860 799 888 z "},"Ā":{"ha":1039,"x_min":21,"x_max":1018,"o":"m 446 71 q 403 15 443 31 q 261 0 364 0 q 90 19 158 0 q 21 67 21 38 q 144 492 21 100 q 286 944 268 885 q 398 974 293 963 q 623 986 503 986 q 756 944 743 986 q 1018 58 1018 72 q 1001 31 1018 44 q 847 0 963 0 q 596 58 601 0 l 586 149 l 453 149 l 446 71 m 557 413 l 536 663 l 506 663 l 482 413 l 557 413 m 781 1014 l 218 1014 q 192 1040 203 1014 q 181 1108 181 1065 q 212 1194 181 1151 q 271 1236 243 1236 l 829 1236 q 865 1146 865 1236 q 836 1058 865 1101 q 781 1014 807 1014 z "},"ā":{"ha":915,"x_min":35,"x_max":867,"o":"m 306 -12 q 108 47 179 -12 q 56 121 78 72 q 35 235 35 169 q 66 349 35 300 q 142 424 97 397 q 246 467 186 450 q 444 490 336 490 l 490 490 q 450 571 490 547 q 401 581 435 581 q 319 563 367 581 q 239 526 271 544 q 196 507 207 507 q 128 573 171 507 q 85 693 85 639 q 136 740 85 711 q 281 794 188 769 q 464 818 375 818 q 617 803 553 818 q 723 768 682 789 q 792 713 764 747 q 835 650 821 678 q 858 578 850 622 q 867 451 867 526 l 867 33 q 792 9 867 18 q 645 0 718 0 q 551 4 572 0 q 525 14 529 8 q 518 33 521 19 l 507 113 l 496 113 q 306 -12 461 -12 m 492 218 l 492 381 q 433 350 456 381 q 411 281 411 319 q 453 189 411 189 q 481 198 471 189 q 492 218 492 207 m 728 847 l 165 847 q 139 873 150 847 q 128 942 128 899 q 159 1027 128 985 q 218 1069 190 1069 l 776 1069 q 813 979 813 1069 q 783 891 813 935 q 728 847 754 847 z "},"Ă":{"ha":1039,"x_min":21,"x_max":1018,"o":"m 446 71 q 403 15 443 31 q 261 0 364 0 q 90 19 158 0 q 21 67 21 38 q 144 492 21 100 q 286 944 268 885 q 398 974 293 963 q 623 986 503 986 q 756 944 743 986 q 1018 58 1018 72 q 1001 31 1018 44 q 847 0 963 0 q 596 58 601 0 l 586 149 l 453 149 l 446 71 m 557 413 l 536 663 l 506 663 l 482 413 l 557 413 m 486 1206 q 519 1140 486 1140 q 551 1206 551 1140 q 634 1250 551 1250 q 717 1208 717 1250 q 665 1066 717 1104 q 518 1028 613 1028 q 373 1065 424 1028 q 322 1208 322 1101 q 404 1250 322 1250 q 486 1206 486 1250 z "},"ă":{"ha":915,"x_min":35,"x_max":867,"o":"m 306 -12 q 108 47 179 -12 q 56 121 78 72 q 35 235 35 169 q 66 349 35 300 q 142 424 97 397 q 246 467 186 450 q 444 490 336 490 l 490 490 q 450 571 490 547 q 401 581 435 581 q 319 563 367 581 q 239 526 271 544 q 196 507 207 507 q 128 573 171 507 q 85 693 85 639 q 136 740 85 711 q 281 794 188 769 q 464 818 375 818 q 617 803 553 818 q 723 768 682 789 q 792 713 764 747 q 835 650 821 678 q 858 578 850 622 q 867 451 867 526 l 867 33 q 792 9 867 18 q 645 0 718 0 q 551 4 572 0 q 525 14 529 8 q 518 33 521 19 l 507 113 l 496 113 q 306 -12 461 -12 m 492 218 l 492 381 q 433 350 456 381 q 411 281 411 319 q 453 189 411 189 q 481 198 471 189 q 492 218 492 207 m 421 1025 q 453 960 421 960 q 486 1025 486 960 q 569 1069 486 1069 q 651 1028 651 1069 q 599 885 651 924 q 453 847 547 847 q 308 884 358 847 q 257 1028 257 921 q 339 1069 257 1069 q 421 1025 421 1069 z "},"Ą":{"ha":1039,"x_min":21,"x_max":1018,"o":"m 446 71 q 403 15 443 31 q 261 0 364 0 q 90 19 158 0 q 21 67 21 38 q 144 492 21 100 q 286 944 268 885 q 398 974 293 963 q 623 986 503 986 q 756 944 743 986 q 1018 58 1018 72 q 1001 31 1018 44 q 847 0 963 0 q 596 58 601 0 l 586 149 l 453 149 l 446 71 m 557 413 l 536 663 l 506 663 l 482 413 l 557 413 m 624 65 q 746 53 647 65 q 844 31 844 42 q 818 1 844 19 q 792 -32 792 -18 q 826 -54 792 -54 q 897 -48 861 -54 q 940 -42 933 -42 q 958 -58 947 -42 q 988 -182 988 -100 q 919 -208 988 -200 q 801 -215 851 -215 q 627 -176 696 -215 q 558 -57 558 -137 q 575 14 558 -17 q 608 56 592 44 l 624 65 z "},"ą":{"ha":915,"x_min":35,"x_max":926,"o":"m 306 -12 q 108 47 179 -12 q 56 121 78 72 q 35 235 35 169 q 66 349 35 300 q 142 424 97 397 q 246 467 186 450 q 444 490 336 490 l 490 490 q 450 571 490 547 q 401 581 435 581 q 319 563 367 581 q 239 526 271 544 q 196 507 207 507 q 128 573 171 507 q 85 693 85 639 q 136 740 85 711 q 281 794 188 769 q 464 818 375 818 q 617 803 553 818 q 723 768 682 789 q 792 713 764 747 q 835 650 821 678 q 858 578 850 622 q 867 451 867 526 l 867 33 q 792 9 867 18 q 645 0 718 0 q 551 4 572 0 q 525 14 529 8 q 518 33 521 19 l 507 113 l 496 113 q 306 -12 461 -12 m 492 218 l 492 381 q 433 350 456 381 q 411 281 411 319 q 453 189 411 189 q 481 198 471 189 q 492 218 492 207 m 563 65 q 685 53 586 65 q 783 31 783 42 q 757 1 783 19 q 731 -32 731 -18 q 765 -54 731 -54 q 836 -48 800 -54 q 879 -42 872 -42 q 897 -58 886 -42 q 926 -182 926 -100 q 858 -208 926 -200 q 740 -215 790 -215 q 566 -176 635 -215 q 497 -57 497 -137 q 514 14 497 -17 q 547 56 531 44 l 563 65 z "},"Ć":{"ha":918,"x_min":49,"x_max":876,"o":"m 533 -12 q 505 -12 533 -12 q 448 -10 478 -12 q 369 4 418 -7 q 281 35 321 15 q 195 92 240 54 q 119 181 150 129 q 69 311 89 232 q 49 503 49 390 q 88 713 49 615 q 184 863 128 810 q 313 948 240 915 q 442 990 386 981 q 568 1000 497 1000 q 703 992 639 1000 q 790 972 757 985 q 850 933 824 960 q 876 857 876 907 q 852 731 876 807 q 782 654 828 654 q 679 676 768 654 q 558 699 590 699 q 476 644 510 699 q 442 490 442 590 q 472 335 442 390 q 550 279 501 279 q 676 308 585 279 q 782 336 767 336 q 849 257 825 336 q 874 122 874 178 q 758 11 874 38 q 645 -8 703 -3 q 533 -12 588 -12 m 664 1264 q 728 1211 696 1264 q 761 1081 761 1158 q 641 1044 761 1060 q 442 1028 521 1028 q 394 1061 415 1028 q 372 1138 372 1094 q 476 1223 372 1182 q 664 1264 579 1264 z "},"ć":{"ha":757,"x_min":35,"x_max":729,"o":"m 428 -12 q 304 0 361 -12 q 228 24 261 8 q 156 69 194 39 q 93 142 118 100 q 51 252 68 185 q 35 411 35 319 q 67 581 35 503 q 144 703 99 660 q 268 782 190 746 q 442 818 346 818 q 666 793 603 818 q 729 708 729 768 q 708 581 729 649 q 651 514 686 514 q 584 538 640 514 q 487 561 528 561 q 424 528 446 561 q 403 402 403 496 q 422 274 403 308 q 483 240 442 240 q 585 268 524 240 q 653 296 646 296 q 703 233 679 296 q 728 122 728 171 q 650 17 728 47 q 428 -12 572 -12 m 586 1083 q 651 1031 618 1083 q 683 900 683 978 q 563 863 683 879 q 364 847 443 847 q 316 881 338 847 q 294 958 294 914 q 398 1042 294 1001 q 586 1083 501 1083 z "},"Ĉ":{"ha":918,"x_min":49,"x_max":876,"o":"m 533 -12 q 505 -12 533 -12 q 448 -10 478 -12 q 369 4 418 -7 q 281 35 321 15 q 195 92 240 54 q 119 181 150 129 q 69 311 89 232 q 49 503 49 390 q 88 713 49 615 q 184 863 128 810 q 313 948 240 915 q 442 990 386 981 q 568 1000 497 1000 q 703 992 639 1000 q 790 972 757 985 q 850 933 824 960 q 876 857 876 907 q 852 731 876 807 q 782 654 828 654 q 679 676 768 654 q 558 699 590 699 q 476 644 510 699 q 442 490 442 590 q 472 335 442 390 q 550 279 501 279 q 676 308 585 279 q 782 336 767 336 q 849 257 825 336 q 874 122 874 178 q 758 11 874 38 q 645 -8 703 -3 q 533 -12 588 -12 m 299 1153 q 401 1216 299 1168 q 552 1264 503 1264 q 700 1217 601 1264 q 799 1153 799 1169 q 783 1066 799 1104 q 743 1028 768 1028 q 549 1082 724 1028 q 354 1028 372 1028 q 314 1066 329 1028 q 299 1153 299 1104 z "},"ĉ":{"ha":757,"x_min":35,"x_max":729,"o":"m 428 -12 q 304 0 361 -12 q 228 24 261 8 q 156 69 194 39 q 93 142 118 100 q 51 252 68 185 q 35 411 35 319 q 67 581 35 503 q 144 703 99 660 q 268 782 190 746 q 442 818 346 818 q 666 793 603 818 q 729 708 729 768 q 708 581 729 649 q 651 514 686 514 q 584 538 640 514 q 487 561 528 561 q 424 528 446 561 q 403 402 403 496 q 422 274 403 308 q 483 240 442 240 q 585 268 524 240 q 653 296 646 296 q 703 233 679 296 q 728 122 728 171 q 650 17 728 47 q 428 -12 572 -12 m 204 972 q 306 1035 204 988 q 458 1083 408 1083 q 606 1036 507 1083 q 704 972 704 989 q 689 885 704 924 q 649 847 674 847 q 454 901 629 847 q 260 847 278 847 q 219 885 235 847 q 204 972 204 924 z "},"Ċ":{"ha":918,"x_min":49,"x_max":876,"o":"m 533 -12 q 505 -12 533 -12 q 448 -10 478 -12 q 369 4 418 -7 q 281 35 321 15 q 195 92 240 54 q 119 181 150 129 q 69 311 89 232 q 49 503 49 390 q 88 713 49 615 q 184 863 128 810 q 313 948 240 915 q 442 990 386 981 q 568 1000 497 1000 q 703 992 639 1000 q 790 972 757 985 q 850 933 824 960 q 876 857 876 907 q 852 731 876 807 q 782 654 828 654 q 679 676 768 654 q 558 699 590 699 q 476 644 510 699 q 442 490 442 590 q 472 335 442 390 q 550 279 501 279 q 676 308 585 279 q 782 336 767 336 q 849 257 825 336 q 874 122 874 178 q 758 11 874 38 q 645 -8 703 -3 q 533 -12 588 -12 m 501 1264 q 532 1264 501 1264 q 586 1263 563 1264 q 638 1255 610 1261 q 682 1236 667 1249 q 719 1141 719 1206 q 669 1052 719 1076 q 526 1028 618 1028 q 382 1052 433 1028 q 331 1146 331 1076 q 389 1244 331 1219 q 501 1264 439 1264 z "},"ċ":{"ha":757,"x_min":35,"x_max":729,"o":"m 428 -12 q 304 0 361 -12 q 228 24 261 8 q 156 69 194 39 q 93 142 118 100 q 51 252 68 185 q 35 411 35 319 q 67 581 35 503 q 144 703 99 660 q 268 782 190 746 q 442 818 346 818 q 666 793 603 818 q 729 708 729 768 q 708 581 729 649 q 651 514 686 514 q 584 538 640 514 q 487 561 528 561 q 424 528 446 561 q 403 402 403 496 q 422 274 403 308 q 483 240 442 240 q 585 268 524 240 q 653 296 646 296 q 703 233 679 296 q 728 122 728 171 q 650 17 728 47 q 428 -12 572 -12 m 410 1083 q 441 1083 410 1083 q 496 1082 472 1083 q 548 1074 519 1081 q 592 1056 576 1068 q 629 960 629 1025 q 578 872 629 896 q 435 847 528 847 q 292 872 343 847 q 240 965 240 896 q 299 1064 240 1039 q 410 1083 349 1083 z "},"Č":{"ha":918,"x_min":49,"x_max":876,"o":"m 758 10 q 731 4 758 10 q 645 -8 703 -3 q 533 -12 588 -12 q 448 -10 478 -12 q 369 4 418 -7 q 281 35 321 15 q 195 92 240 54 q 119 181 150 129 q 49 489 49 300 q 88 713 49 615 q 184 863 128 810 q 314 947 240 915 q 547 1000 429 1000 q 790 972 717 1000 q 850 933 824 960 q 876 857 876 907 q 852 731 876 807 q 782 654 828 654 q 679 676 768 654 q 558 699 590 699 q 476 644 510 699 q 442 490 442 590 q 472 335 442 390 q 550 279 501 279 q 676 308 585 279 q 782 336 767 336 q 849 257 825 336 q 874 129 874 178 q 844 52 874 81 q 758 10 814 24 m 796 1139 q 697 1075 796 1122 q 549 1028 599 1028 q 398 1076 500 1028 q 296 1139 296 1124 q 311 1226 296 1188 q 351 1264 326 1264 q 546 1210 369 1264 q 740 1264 721 1264 q 781 1226 765 1264 q 796 1139 796 1188 z "},"č":{"ha":757,"x_min":35,"x_max":729,"o":"m 228 24 q 156 69 194 39 q 93 142 118 100 q 35 403 35 242 q 67 581 35 503 q 144 703 99 660 q 250 774 190 746 q 442 818 346 818 q 666 793 603 818 q 729 708 729 768 q 708 581 729 649 q 651 514 686 514 q 584 538 640 514 q 487 561 528 561 q 424 528 446 561 q 403 402 403 496 q 422 274 403 308 q 483 240 442 240 q 585 268 524 240 q 653 296 646 296 q 703 233 679 296 q 728 122 728 171 q 650 17 728 47 q 440 -12 572 -12 q 228 24 307 -12 m 703 958 q 604 894 703 942 q 456 847 506 847 q 305 895 407 847 q 203 958 203 943 q 218 1045 203 1007 q 258 1083 233 1083 q 453 1029 276 1083 q 647 1083 628 1083 q 688 1045 672 1083 q 703 958 703 1007 z "},"Ď":{"ha":1029,"x_min":63,"x_max":981,"o":"m 506 0 l 178 0 q 86 10 110 0 q 63 42 63 19 l 63 918 q 93 970 63 954 q 199 986 124 986 l 511 986 q 879 881 778 986 q 981 500 981 776 q 875 112 981 224 q 506 0 769 0 m 494 779 q 450 774 461 779 l 450 213 l 503 207 q 566 274 544 207 q 588 504 588 340 q 565 724 588 668 q 494 779 543 779 m 749 1139 q 650 1075 749 1122 q 502 1028 551 1028 q 351 1076 453 1028 q 249 1139 249 1124 q 264 1226 249 1188 q 304 1264 279 1264 q 499 1210 322 1264 q 693 1264 674 1264 q 733 1226 718 1264 q 749 1139 749 1188 z "},"ď":{"ha":1289,"x_min":35,"x_max":1233,"o":"m 310 -12 q 214 3 258 -12 q 141 40 169 18 q 92 100 113 63 q 60 172 71 138 q 43 256 49 206 q 35 424 35 329 q 106 717 35 617 q 300 818 176 818 q 483 758 426 818 q 503 725 496 744 l 514 725 l 497 821 l 497 994 q 575 1054 497 1025 q 743 1083 653 1083 q 864 1047 838 1083 q 874 1019 874 1033 l 874 33 q 797 9 874 18 q 648 0 719 0 q 556 5 576 0 q 531 15 536 10 q 525 33 526 21 l 514 113 l 503 113 q 453 31 490 64 q 310 -12 406 -12 m 465 190 q 499 218 488 190 l 499 589 q 484 610 499 603 q 458 618 469 618 q 411 401 411 618 q 424 238 411 286 q 465 190 438 190 m 1033 607 q 975 672 993 607 q 954 811 957 742 q 950 1010 950 914 q 1175 1083 950 1083 q 1224 1033 1214 1083 q 1233 861 1233 983 q 1033 607 1233 607 z "},"Đ":{"ha":1078,"x_min":14,"x_max":1029,"o":"m 111 379 l 51 379 q 25 405 36 379 q 14 478 14 431 q 44 576 14 526 q 104 625 75 625 l 111 625 l 111 918 q 142 970 111 954 q 247 986 172 986 l 560 986 q 928 881 826 986 q 1029 500 1029 776 q 924 112 1029 224 q 554 0 818 0 l 226 0 q 135 10 158 0 q 111 42 111 19 l 111 379 m 543 779 q 499 774 510 779 l 499 625 l 554 625 q 590 535 590 625 q 561 434 590 489 q 506 379 532 379 l 499 379 l 499 211 q 551 207 519 207 q 615 274 593 207 q 636 504 636 340 q 614 724 636 668 q 543 779 592 779 z "},"đ":{"ha":979,"x_min":35,"x_max":965,"o":"m 881 819 l 874 819 l 874 33 q 797 9 874 18 q 648 0 719 0 q 556 5 576 0 q 531 15 536 10 q 525 33 526 21 l 514 113 l 503 113 q 453 31 490 64 q 398 1 435 14 q 310 -12 361 -12 q 214 3 258 -12 q 141 40 169 18 q 92 100 113 63 q 60 172 71 138 q 43 256 49 206 q 35 435 35 329 q 53 619 35 540 q 108 741 71 699 q 190 801 144 783 q 293 818 236 818 q 390 808 350 818 q 450 786 429 799 q 500 735 490 758 l 503 725 l 514 725 l 514 819 l 461 819 q 424 904 424 819 q 454 995 424 953 q 514 1038 485 1038 l 538 1038 q 735 1083 624 1083 q 869 1038 847 1083 l 929 1038 q 965 961 965 1038 q 936 867 965 915 q 881 819 907 819 m 465 190 q 499 218 488 190 l 499 589 q 484 610 499 603 q 458 618 469 618 q 411 401 411 618 q 424 238 411 286 q 465 190 438 190 z "},"Ē":{"ha":854,"x_min":63,"x_max":813,"o":"m 767 0 l 178 0 q 86 10 110 0 q 63 40 63 19 l 63 919 q 95 971 63 956 q 213 986 128 986 l 771 986 q 800 890 800 986 q 788 742 800 793 q 754 692 775 692 q 450 710 664 692 l 450 617 q 718 625 656 625 q 756 538 756 625 q 741 405 756 450 q 701 360 726 360 l 450 365 l 450 276 q 783 294 692 294 q 813 197 813 294 q 800 50 813 100 q 767 0 788 0 m 682 1014 l 119 1014 q 93 1040 104 1014 q 82 1108 82 1065 q 113 1194 82 1151 q 172 1236 144 1236 l 731 1236 q 767 1146 767 1236 q 738 1058 767 1101 q 682 1014 708 1014 z "},"ē":{"ha":889,"x_min":35,"x_max":854,"o":"m 414 314 q 500 224 414 224 q 631 258 550 224 q 715 292 711 292 q 785 213 742 292 q 828 96 828 133 q 717 14 828 42 q 499 -14 606 -14 q 322 3 393 -14 q 205 45 250 19 q 126 108 160 71 q 75 180 92 146 q 49 256 58 214 q 35 382 35 317 q 167 731 35 635 q 313 799 232 779 q 503 818 393 818 q 854 574 854 818 q 460 314 854 314 l 414 314 m 411 517 l 411 425 q 477 457 451 425 q 503 535 503 489 q 460 618 503 618 q 411 517 411 618 m 715 847 l 153 847 q 126 873 138 847 q 115 942 115 899 q 147 1027 115 985 q 206 1069 178 1069 l 764 1069 q 800 979 800 1069 q 771 891 800 935 q 715 847 742 847 z "},"Ĕ":{"ha":854,"x_min":63,"x_max":813,"o":"m 767 0 l 178 0 q 86 10 110 0 q 63 40 63 19 l 63 919 q 95 971 63 956 q 213 986 128 986 l 771 986 q 800 890 800 986 q 788 742 800 793 q 754 692 775 692 q 450 710 664 692 l 450 617 q 718 625 656 625 q 756 538 756 625 q 741 405 756 450 q 701 360 726 360 l 450 365 l 450 276 q 783 294 692 294 q 813 197 813 294 q 800 50 813 100 q 767 0 788 0 m 417 1206 q 449 1140 417 1140 q 482 1206 482 1140 q 565 1250 482 1250 q 647 1208 647 1250 q 595 1066 647 1104 q 449 1028 543 1028 q 303 1065 354 1028 q 253 1208 253 1101 q 335 1250 253 1250 q 417 1206 417 1250 z "},"ĕ":{"ha":889,"x_min":35,"x_max":854,"o":"m 414 314 q 500 224 414 224 q 631 258 550 224 q 715 292 711 292 q 785 213 742 292 q 828 96 828 133 q 717 14 828 42 q 499 -14 606 -14 q 322 3 393 -14 q 205 45 250 19 q 126 108 160 71 q 75 180 92 146 q 49 256 58 214 q 35 382 35 317 q 167 731 35 635 q 313 799 232 779 q 503 818 393 818 q 854 574 854 818 q 460 314 854 314 l 414 314 m 411 517 l 411 425 q 477 457 451 425 q 503 535 503 489 q 460 618 503 618 q 411 517 411 618 m 451 1025 q 484 960 451 960 q 517 1025 517 960 q 599 1069 517 1069 q 682 1028 682 1069 q 630 885 682 924 q 483 847 578 847 q 338 884 389 847 q 288 1028 288 921 q 369 1069 288 1069 q 451 1025 451 1069 z "},"Ė":{"ha":854,"x_min":63,"x_max":813,"o":"m 767 0 l 178 0 q 86 10 110 0 q 63 40 63 19 l 63 919 q 95 971 63 956 q 213 986 128 986 l 771 986 q 800 890 800 986 q 788 742 800 793 q 754 692 775 692 q 450 710 664 692 l 450 617 q 718 625 656 625 q 756 538 756 625 q 741 405 756 450 q 701 360 726 360 l 450 365 l 450 276 q 783 294 692 294 q 813 197 813 294 q 800 50 813 100 q 767 0 788 0 m 423 1264 q 454 1264 423 1264 q 508 1263 485 1264 q 560 1255 532 1261 q 604 1236 589 1249 q 642 1141 642 1206 q 591 1052 642 1076 q 448 1028 540 1028 q 304 1052 356 1028 q 253 1146 253 1076 q 311 1244 253 1219 q 423 1264 361 1264 z "},"ė":{"ha":889,"x_min":35,"x_max":854,"o":"m 414 314 q 500 224 414 224 q 631 258 550 224 q 715 292 711 292 q 785 213 742 292 q 828 96 828 133 q 717 14 828 42 q 499 -14 606 -14 q 322 3 393 -14 q 205 45 250 19 q 126 108 160 71 q 75 180 92 146 q 49 256 58 214 q 35 382 35 317 q 167 731 35 635 q 313 799 232 779 q 503 818 393 818 q 854 574 854 818 q 460 314 854 314 l 414 314 m 411 517 l 411 425 q 477 457 451 425 q 503 535 503 489 q 460 618 503 618 q 411 517 411 618 m 448 1083 q 479 1083 448 1083 q 533 1082 510 1083 q 585 1074 557 1081 q 629 1056 614 1068 q 667 960 667 1025 q 616 872 667 896 q 473 847 565 847 q 329 872 381 847 q 278 965 278 896 q 336 1064 278 1039 q 448 1083 386 1083 z "},"Ę":{"ha":854,"x_min":63,"x_max":825,"o":"m 767 0 l 178 0 q 86 10 110 0 q 63 40 63 19 l 63 919 q 95 971 63 956 q 213 986 128 986 l 771 986 q 800 890 800 986 q 788 742 800 793 q 754 692 775 692 q 450 710 664 692 l 450 617 q 718 625 656 625 q 756 538 756 625 q 741 405 756 450 q 701 360 726 360 l 450 365 l 450 276 q 783 294 692 294 q 813 197 813 294 q 800 50 813 100 q 767 0 788 0 m 639 -215 q 465 -176 533 -215 q 396 -56 396 -137 q 461 65 396 26 q 583 53 485 65 q 682 31 682 42 q 656 1 682 19 q 629 -32 629 -18 q 664 -54 629 -54 q 735 -48 699 -54 q 778 -42 771 -42 q 796 -58 785 -42 q 825 -182 825 -100 q 757 -208 825 -200 q 639 -215 689 -215 z "},"ę":{"ha":889,"x_min":35,"x_max":854,"o":"m 414 314 q 460 314 414 314 q 854 574 854 314 q 503 818 854 818 q 313 799 393 818 q 167 731 232 779 q 35 382 35 635 q 49 256 35 317 q 75 180 58 214 q 126 108 92 146 q 205 45 160 71 q 322 3 250 19 q 499 -14 393 -14 q 717 14 606 -14 q 828 96 828 42 q 785 213 828 133 q 715 292 742 292 q 631 258 711 292 q 500 224 550 224 q 414 314 414 224 m 411 517 q 460 618 411 618 q 503 535 503 618 q 477 457 503 489 q 411 425 451 425 l 411 517 m 351 65 q 474 53 375 65 q 572 31 572 42 q 546 1 572 19 q 519 -32 519 -18 q 554 -54 519 -54 q 625 -48 589 -54 q 668 -42 661 -42 q 686 -58 675 -42 q 715 -182 715 -100 q 647 -208 715 -200 q 529 -215 579 -215 q 355 -176 424 -215 q 286 -57 286 -137 q 303 14 286 -17 q 336 56 319 44 l 351 65 z "},"Ě":{"ha":854,"x_min":63,"x_max":813,"o":"m 767 0 l 178 0 q 86 10 110 0 q 63 40 63 19 l 63 919 q 95 971 63 956 q 213 986 128 986 l 771 986 q 800 890 800 986 q 788 742 800 793 q 754 692 775 692 q 450 710 664 692 l 450 617 q 718 625 656 625 q 756 538 756 625 q 741 405 756 450 q 701 360 726 360 l 450 365 l 450 276 q 783 294 692 294 q 813 197 813 294 q 800 50 813 100 q 767 0 788 0 m 696 1139 q 597 1075 696 1122 q 449 1028 499 1028 q 298 1076 400 1028 q 196 1139 196 1124 q 211 1226 196 1188 q 251 1264 226 1264 q 446 1210 269 1264 q 640 1264 621 1264 q 681 1226 665 1264 q 696 1139 696 1188 z "},"ě":{"ha":889,"x_min":35,"x_max":854,"o":"m 414 314 q 500 224 414 224 q 631 258 550 224 q 715 292 711 292 q 785 213 742 292 q 828 96 828 133 q 717 14 828 42 q 499 -14 606 -14 q 322 3 393 -14 q 205 45 250 19 q 126 108 160 71 q 75 180 92 146 q 49 256 58 214 q 35 382 35 317 q 167 731 35 635 q 313 799 232 779 q 503 818 393 818 q 854 574 854 818 q 460 314 854 314 l 414 314 m 411 517 l 411 425 q 477 457 451 425 q 503 535 503 489 q 460 618 503 618 q 411 517 411 618 m 711 958 q 613 894 711 942 q 465 847 514 847 q 313 895 415 847 q 211 958 211 943 q 226 1045 211 1007 q 267 1083 242 1083 q 461 1029 285 1083 q 656 1083 636 1083 q 696 1045 681 1083 q 711 958 711 1007 z "},"Ĝ":{"ha":943,"x_min":49,"x_max":901,"o":"m 364 -11 q 276 -1 317 -11 q 192 40 236 8 q 118 122 149 71 q 68 263 88 174 q 49 478 49 353 q 83 701 49 603 q 171 855 118 800 q 297 944 224 910 q 435 990 371 979 q 571 1000 499 1000 q 806 972 738 1000 q 874 863 874 943 q 850 724 874 799 q 781 650 826 650 q 686 672 769 650 q 561 693 603 693 q 442 492 442 693 q 469 341 442 390 q 539 286 497 292 l 539 411 q 610 475 539 446 q 769 504 681 504 q 886 468 858 504 q 901 428 901 447 l 901 43 q 828 14 901 25 q 677 3 756 3 q 578 10 599 3 q 554 53 557 18 l 544 135 l 533 135 q 484 32 524 75 q 364 -11 444 -11 m 297 1153 q 399 1216 297 1168 q 551 1264 501 1264 q 699 1217 600 1264 q 797 1153 797 1169 q 782 1066 797 1104 q 742 1028 767 1028 q 547 1082 722 1028 q 353 1028 371 1028 q 313 1066 328 1028 q 297 1153 297 1104 z "},"ĝ":{"ha":915,"x_min":35,"x_max":867,"o":"m 513 172 l 501 172 l 483 156 q 412 124 465 140 q 288 108 358 108 q 100 181 161 108 q 58 265 74 213 q 39 367 43 318 q 35 497 35 417 q 58 651 35 578 q 102 735 75 700 q 181 794 129 769 q 293 818 233 818 q 392 805 353 818 q 449 775 431 792 q 482 733 468 758 q 496 693 496 708 l 507 693 l 519 747 q 739 806 533 806 q 850 778 831 806 q 864 747 861 761 q 867 703 867 732 l 867 121 q 760 -129 867 -43 q 446 -215 653 -215 q 258 -203 336 -215 q 113 -132 113 -179 q 140 -19 113 -99 q 190 60 167 60 q 229 51 196 60 q 313 32 263 42 q 415 22 363 22 q 490 39 467 22 q 513 92 513 56 l 513 172 m 461 618 q 408 444 408 618 q 422 315 408 364 q 457 267 435 267 q 480 275 468 267 q 492 303 492 283 l 492 589 q 461 618 483 618 m 246 972 q 348 1035 246 988 q 499 1083 450 1083 q 647 1036 549 1083 q 746 972 746 989 q 731 885 746 924 q 690 847 715 847 q 496 901 671 847 q 301 847 319 847 q 261 885 276 847 q 246 972 246 924 z "},"Ğ":{"ha":943,"x_min":49,"x_max":901,"o":"m 364 -11 q 276 -1 317 -11 q 192 40 236 8 q 118 122 149 71 q 49 474 49 239 q 83 701 49 603 q 171 855 118 800 q 297 944 224 910 q 435 990 371 979 q 571 1000 499 1000 q 806 972 738 1000 q 874 863 874 943 q 850 724 874 799 q 781 650 826 650 q 686 672 769 650 q 561 693 603 693 q 442 492 442 693 q 469 341 442 390 q 539 286 497 292 l 539 411 q 610 475 539 446 q 746 504 681 504 q 841 496 811 504 q 882 472 871 488 q 901 428 901 447 l 901 43 q 828 14 901 25 q 677 3 756 3 q 578 10 599 3 q 554 53 557 18 l 544 135 l 533 135 q 484 32 524 75 q 364 -11 444 -11 m 524 1206 q 556 1140 524 1140 q 589 1206 589 1140 q 672 1250 589 1250 q 754 1208 754 1250 q 702 1066 754 1104 q 556 1028 650 1028 q 410 1065 461 1028 q 360 1208 360 1101 q 442 1250 360 1250 q 524 1206 524 1250 z "},"ğ":{"ha":915,"x_min":35,"x_max":867,"o":"m 513 92 l 513 172 l 501 172 q 482 155 496 165 q 413 126 468 144 q 290 108 358 108 q 174 129 221 108 q 100 181 126 150 q 58 265 74 213 q 35 488 35 347 q 103 735 35 649 q 181 794 129 769 q 293 818 233 818 q 392 805 353 818 q 450 774 431 792 q 494 706 489 735 l 496 693 l 507 693 l 519 747 q 739 806 533 806 q 850 778 831 806 q 864 747 861 761 q 867 703 867 732 l 867 121 q 760 -129 867 -43 q 446 -215 653 -215 q 147 -172 226 -215 q 113 -132 113 -153 q 140 -19 113 -99 q 190 60 167 60 q 229 50 196 60 q 401 22 335 22 q 490 39 467 22 q 513 92 513 56 m 457 267 q 482 278 472 267 q 492 303 492 289 l 492 589 q 461 618 486 618 q 408 444 408 618 q 422 315 408 364 q 457 267 435 267 m 465 1025 q 498 960 465 960 q 531 1025 531 960 q 613 1069 531 1069 q 696 1028 696 1069 q 644 885 696 924 q 497 847 592 847 q 352 884 403 847 q 301 1028 301 921 q 383 1069 301 1069 q 465 1025 465 1069 z "},"Ġ":{"ha":943,"x_min":49,"x_max":901,"o":"m 364 -11 q 276 -1 317 -11 q 192 40 236 8 q 118 122 149 71 q 68 263 88 174 q 49 478 49 353 q 83 701 49 603 q 171 855 118 800 q 297 944 224 910 q 435 990 371 979 q 571 1000 499 1000 q 806 972 738 1000 q 874 863 874 943 q 850 724 874 799 q 781 650 826 650 q 686 672 769 650 q 561 693 603 693 q 442 492 442 693 q 469 341 442 390 q 539 286 497 292 l 539 411 q 610 475 539 446 q 769 504 681 504 q 886 468 858 504 q 901 428 901 447 l 901 43 q 828 14 901 25 q 677 3 756 3 q 578 10 599 3 q 554 53 557 18 l 544 135 l 533 135 q 484 32 524 75 q 364 -11 444 -11 m 534 1264 q 565 1264 534 1264 q 619 1263 596 1264 q 672 1255 643 1261 q 715 1236 700 1249 q 753 1141 753 1206 q 702 1052 753 1076 q 559 1028 651 1028 q 415 1052 467 1028 q 364 1146 364 1076 q 422 1244 364 1219 q 534 1264 472 1264 z "},"ġ":{"ha":915,"x_min":35,"x_max":867,"o":"m 513 172 l 501 172 l 483 156 q 412 124 465 140 q 288 108 358 108 q 100 181 161 108 q 58 265 74 213 q 39 367 43 318 q 35 497 35 417 q 58 651 35 578 q 102 735 75 700 q 181 794 129 769 q 293 818 233 818 q 392 805 353 818 q 449 775 431 792 q 482 733 468 758 q 496 693 496 708 l 507 693 l 519 747 q 739 806 533 806 q 850 778 831 806 q 864 747 861 761 q 867 703 867 732 l 867 121 q 760 -129 867 -43 q 446 -215 653 -215 q 258 -203 336 -215 q 113 -132 113 -179 q 140 -19 113 -99 q 190 60 167 60 q 229 51 196 60 q 313 32 263 42 q 415 22 363 22 q 490 39 467 22 q 513 92 513 56 l 513 172 m 461 618 q 408 444 408 618 q 422 315 408 364 q 457 267 435 267 q 480 275 468 267 q 492 303 492 283 l 492 589 q 461 618 483 618 m 451 1083 q 482 1083 451 1083 q 536 1082 513 1083 q 588 1074 560 1081 q 632 1056 617 1068 q 669 960 669 1025 q 619 872 669 896 q 476 847 568 847 q 332 872 383 847 q 281 965 281 896 q 339 1064 281 1039 q 451 1083 389 1083 z "},"Ĥ":{"ha":1024,"x_min":63,"x_max":961,"o":"m 450 40 q 366 11 450 22 q 197 0 282 0 q 87 10 111 0 q 63 40 63 19 l 63 894 q 143 958 63 929 q 318 986 224 986 q 450 924 450 986 l 450 618 l 574 618 l 574 894 q 655 958 574 929 q 831 986 736 986 q 961 924 961 986 l 961 40 q 876 11 961 22 q 707 0 792 0 q 598 10 622 0 q 574 40 574 19 l 574 358 l 450 358 l 450 40 m 261 1153 q 363 1216 261 1168 q 515 1264 465 1264 q 663 1217 564 1264 q 761 1153 761 1169 q 746 1066 761 1104 q 706 1028 731 1028 q 511 1082 686 1028 q 317 1028 335 1028 q 276 1066 292 1028 q 261 1153 261 1104 z "},"ĥ":{"ha":924,"x_min":49,"x_max":875,"o":"m 446 972 q 527 1036 446 989 q 657 1083 608 1083 q 784 1037 706 1083 q 863 972 863 990 q 847 885 863 924 q 807 847 832 847 q 654 901 788 847 q 501 847 519 847 q 461 885 476 847 q 446 972 446 924 m 500 33 l 500 419 q 492 571 500 524 q 451 618 483 618 q 424 581 424 618 l 424 33 q 343 9 424 18 q 178 0 263 0 q 71 8 93 0 q 49 33 49 15 l 49 996 q 129 1054 49 1025 q 299 1083 210 1083 q 417 1049 392 1083 q 425 1025 425 1038 l 425 821 l 410 725 l 419 725 q 481 776 439 754 q 650 818 558 818 q 828 734 782 818 q 875 461 875 650 l 875 33 q 794 9 875 18 q 628 0 713 0 q 522 8 544 0 q 500 33 500 15 z "},"ħ":{"ha":924,"x_min":-75,"x_max":882,"o":"m 507 33 l 507 419 q 499 571 507 524 q 458 618 490 618 q 431 581 431 618 l 431 33 q 350 9 431 18 q 185 0 269 0 q 78 8 100 0 q 56 33 56 15 l 56 996 q 136 1054 56 1025 q 306 1083 217 1083 q 424 1049 399 1083 q 432 1025 432 1038 l 432 821 l 417 725 l 426 725 q 488 776 446 754 q 657 818 565 818 q 835 734 789 818 q 882 461 882 650 l 882 33 q 801 9 882 18 q 635 0 719 0 q 529 8 551 0 q 507 33 507 15 m 525 819 l -37 819 q -64 845 -53 819 q -75 914 -75 871 q -44 999 -75 957 q 15 1042 -12 1042 l 574 1042 q 610 951 610 1042 q 581 863 610 907 q 525 819 551 819 z "},"Ĩ":{"ha":513,"x_min":-69,"x_max":599,"o":"m 450 33 q 365 9 450 18 q 195 0 281 0 q 86 8 110 0 q 63 33 63 15 l 63 897 q 143 958 63 928 q 324 988 224 988 q 439 950 413 988 q 450 922 450 936 l 450 33 m 599 1124 q 527 1058 599 1103 q 402 1014 456 1014 q 274 1038 349 1014 q 178 1063 200 1063 q 96 1038 157 1063 q 10 1014 35 1014 q -42 1063 -15 1014 q -69 1139 -69 1113 q 6 1206 -69 1163 q 132 1250 82 1250 q 255 1226 182 1250 q 360 1203 328 1203 q 428 1226 369 1203 q 515 1250 488 1250 q 570 1199 542 1250 q 599 1124 599 1147 z "},"ĩ":{"ha":474,"x_min":-97,"x_max":571,"o":"m 425 742 l 425 33 q 345 9 425 18 q 181 0 265 0 q 73 8 97 0 q 49 33 49 15 l 49 717 q 128 776 49 747 q 299 806 207 806 q 425 742 425 806 m 571 957 q 499 892 571 936 q 374 847 428 847 q 247 872 321 847 q 151 896 172 896 q 68 872 129 896 q -18 847 7 847 q -70 897 -43 847 q -97 972 -97 946 q -22 1040 -97 996 q 104 1083 54 1083 q 227 1060 154 1083 q 332 1036 300 1036 q 401 1060 342 1036 q 487 1083 460 1083 q 542 1032 514 1083 q 571 957 571 981 z "},"Ī":{"ha":643,"x_min":-21,"x_max":664,"o":"m 579 1014 l 17 1014 q -10 1040 1 1014 q -21 1108 -21 1065 q 10 1194 -21 1151 q 69 1236 42 1236 l 628 1236 q 664 1146 664 1236 q 635 1058 664 1101 q 579 1014 606 1014 m 513 33 q 428 9 513 18 q 258 0 343 0 q 149 8 172 0 q 125 33 125 15 l 125 897 q 206 958 125 928 q 386 988 286 988 q 503 950 475 988 q 513 922 513 936 l 513 33 z "},"ī":{"ha":643,"x_min":-21,"x_max":664,"o":"m 579 847 l 17 847 q -10 873 1 847 q -21 942 -21 899 q 10 1027 -21 985 q 69 1069 42 1069 l 628 1069 q 664 979 664 1069 q 635 891 664 935 q 579 847 606 847 m 507 756 l 507 33 q 427 9 507 18 q 263 0 347 0 q 155 8 179 0 q 131 33 131 15 l 131 731 q 210 790 131 761 q 381 819 289 819 q 507 756 507 819 z "},"Ĭ":{"ha":513,"x_min":58,"x_max":453,"o":"m 450 33 q 365 9 450 18 q 195 0 281 0 q 86 8 110 0 q 63 33 63 15 l 63 897 q 143 958 63 928 q 324 988 224 988 q 439 950 413 988 q 450 922 450 936 l 450 33 m 222 1206 q 255 1140 222 1140 q 288 1206 288 1140 q 370 1250 288 1250 q 453 1208 453 1250 q 401 1066 453 1104 q 254 1028 349 1028 q 109 1065 160 1028 q 58 1208 58 1101 q 140 1250 58 1250 q 222 1206 222 1250 z "},"ĭ":{"ha":474,"x_min":40,"x_max":435,"o":"m 425 742 l 425 33 q 345 9 425 18 q 181 0 265 0 q 73 8 97 0 q 49 33 49 15 l 49 717 q 128 776 49 747 q 299 806 207 806 q 425 742 425 806 m 204 1025 q 237 960 204 960 q 269 1025 269 960 q 352 1069 269 1069 q 435 1028 435 1069 q 383 885 435 924 q 236 847 331 847 q 91 884 142 847 q 40 1028 40 921 q 122 1069 40 1069 q 204 1025 204 1069 z "},"Į":{"ha":513,"x_min":42,"x_max":471,"o":"m 195 0 q 238 0 195 0 q 365 9 281 0 q 450 33 450 18 l 450 922 q 439 950 450 936 q 324 988 413 988 q 143 958 224 988 q 63 897 63 928 l 63 33 q 86 8 63 15 q 195 0 110 0 m 285 -215 q 110 -176 179 -215 q 42 -56 42 -137 q 107 65 42 26 q 229 53 131 65 q 328 31 328 42 q 301 1 328 19 q 275 -32 275 -18 q 310 -54 275 -54 q 381 -48 344 -54 q 424 -42 417 -42 q 442 -58 431 -42 q 471 -182 471 -100 q 403 -208 471 -200 q 285 -215 335 -215 z "},"į":{"ha":486,"x_min":26,"x_max":456,"o":"m 431 718 q 304 783 431 783 q 133 753 211 783 q 54 693 54 724 l 54 33 q 78 8 54 15 q 187 0 103 0 q 351 9 271 0 q 431 33 431 18 l 431 718 m 242 1083 q 385 1056 333 1083 q 438 958 438 1029 q 243 833 438 833 q 49 958 49 833 q 242 1083 49 1083 m 269 -215 q 95 -176 164 -215 q 26 -56 26 -137 q 92 65 26 26 q 214 53 115 65 q 313 31 313 42 q 286 1 313 19 q 260 -32 260 -18 q 294 -54 260 -54 q 365 -48 329 -54 q 408 -42 401 -42 q 426 -58 415 -42 q 456 -182 456 -100 q 388 -208 456 -200 q 269 -215 319 -215 z "},"ı":{"ha":474,"x_min":49,"x_max":425,"o":"m 425 742 l 425 33 q 345 9 425 18 q 181 0 265 0 q 73 8 97 0 q 49 33 49 15 l 49 717 q 128 776 49 747 q 299 806 207 806 q 425 742 425 806 z "},"Ĳ":{"ha":1096,"x_min":63,"x_max":999,"o":"m 450 33 q 365 9 450 18 q 195 0 281 0 q 86 8 110 0 q 63 33 63 15 l 63 897 q 143 958 63 928 q 324 988 224 988 q 439 950 413 988 q 450 922 450 936 l 450 33 m 955 -103 q 941 -127 955 -103 q 876 -169 928 -150 q 758 -187 824 -187 q 661 -185 692 -187 q 597 -174 631 -183 q 543 -150 563 -165 q 499 -33 499 -112 q 557 81 499 81 q 585 86 575 81 q 611 172 611 99 l 611 896 q 691 956 611 926 q 861 986 771 986 q 999 921 999 986 l 999 153 q 990 0 999 57 q 955 -103 982 -57 z "},"ĳ":{"ha":1063,"x_min":56,"x_max":975,"o":"m 438 718 l 438 33 q 358 9 438 18 q 194 0 278 0 q 85 8 110 0 q 61 33 61 15 l 61 693 q 140 753 61 724 q 311 783 218 783 q 438 718 438 783 m 249 1083 q 392 1056 340 1083 q 444 958 444 1029 q 250 833 444 833 q 56 958 56 833 q 249 1083 56 1083 m 968 125 q 891 -131 968 -46 q 679 -215 814 -215 q 506 -190 544 -215 q 468 -74 468 -164 q 503 19 468 15 q 572 44 551 26 q 592 111 592 63 l 592 693 q 670 753 592 724 q 840 783 749 783 q 968 718 968 783 l 968 125 m 975 963 q 781 833 975 833 q 586 960 586 833 q 638 1057 586 1031 q 783 1083 690 1083 q 926 1059 876 1083 q 975 963 975 1035 z "},"Ĵ":{"ha":583,"x_min":21,"x_max":582,"o":"m 82 1083 q 184 1147 82 1099 q 335 1194 286 1194 q 483 1147 385 1194 q 582 1083 582 1100 q 567 997 582 1035 q 526 958 551 958 q 332 1013 507 958 q 138 958 156 958 q 97 997 113 958 q 82 1083 82 1035 m 477 -103 q 464 -127 477 -103 q 398 -169 450 -150 q 280 -187 346 -187 q 183 -185 214 -187 q 119 -174 153 -183 q 65 -150 85 -165 q 21 -33 21 -112 q 79 81 21 81 q 107 86 97 81 q 133 172 133 99 l 133 826 q 213 887 133 857 q 383 917 293 917 q 521 851 521 917 l 521 153 q 513 0 521 57 q 477 -103 504 -57 z "},"ĵ":{"ha":515,"x_min":14,"x_max":521,"o":"m 394 -164 q 380 -176 394 -164 q 317 -201 365 -187 q 183 -215 269 -215 q 55 -180 96 -215 q 14 -69 14 -144 q 49 19 14 7 q 78 45 72 28 q 83 111 83 63 l 83 693 q 162 753 83 724 q 332 783 240 783 q 460 718 460 783 l 460 125 q 456 -1 460 46 q 437 -94 451 -49 q 394 -164 422 -140 m 21 972 q 123 1035 21 988 q 274 1083 225 1083 q 422 1036 324 1083 q 521 972 521 989 q 506 885 521 924 q 465 847 490 847 q 271 901 446 847 q 76 847 94 847 q 36 885 51 847 q 21 972 21 924 z "},"Ĺ":{"ha":763,"x_min":63,"x_max":735,"o":"m 179 0 q 86 8 110 0 q 63 33 63 15 l 63 897 q 143 958 63 928 q 324 988 224 988 q 439 950 413 988 q 450 922 450 936 l 450 307 q 706 318 619 318 q 735 226 735 318 q 722 67 735 133 q 689 0 710 0 l 179 0 m 475 1264 q 540 1211 507 1264 q 572 1081 572 1158 q 452 1044 572 1060 q 253 1028 332 1028 q 205 1061 226 1028 q 183 1138 183 1094 q 287 1223 183 1182 q 475 1264 390 1264 z "},"ĺ":{"ha":472,"x_min":49,"x_max":500,"o":"m 424 1019 l 424 33 q 344 9 424 18 q 181 0 265 0 q 73 8 97 0 q 49 33 49 15 l 49 994 q 127 1054 49 1025 q 296 1083 206 1083 q 424 1019 424 1083 m 403 1347 q 467 1294 435 1347 q 500 1164 500 1242 q 380 1127 500 1143 q 181 1111 260 1111 q 133 1144 154 1111 q 111 1222 111 1178 q 215 1306 111 1265 q 403 1347 318 1347 z "},"Ľ":{"ha":833,"x_min":63,"x_max":778,"o":"m 179 0 q 86 8 110 0 q 63 33 63 15 l 63 897 q 143 958 63 928 q 324 988 224 988 q 439 950 413 988 q 450 922 450 936 l 450 307 q 706 318 619 318 q 735 226 735 318 q 722 67 735 133 q 689 0 710 0 l 179 0 m 578 510 q 519 575 538 510 q 499 714 501 644 q 494 913 494 817 q 719 986 494 986 q 768 936 758 986 q 778 764 778 886 q 578 510 778 510 z "},"ľ":{"ha":847,"x_min":49,"x_max":806,"o":"m 424 1019 l 424 33 q 344 9 424 18 q 181 0 265 0 q 73 8 97 0 q 49 33 49 15 l 49 994 q 127 1054 49 1025 q 296 1083 206 1083 q 424 1019 424 1083 m 606 607 q 547 672 565 607 q 526 811 529 742 q 522 1010 522 914 q 747 1083 522 1083 q 796 1033 786 1083 q 806 861 806 983 q 606 607 806 607 z "},"Ŀ":{"ha":843,"x_min":63,"x_max":801,"o":"m 179 0 q 86 8 110 0 q 63 33 63 15 l 63 897 q 143 958 63 928 q 324 988 224 988 q 439 950 413 988 q 450 922 450 936 l 450 307 q 706 318 619 318 q 735 226 735 318 q 722 67 735 133 q 689 0 710 0 l 179 0 m 801 571 q 801 530 801 571 q 764 458 801 489 q 653 428 726 428 q 543 458 581 428 q 506 571 506 489 q 544 680 506 653 q 654 707 582 707 q 764 680 726 707 q 801 571 801 653 z "},"ŀ":{"ha":844,"x_min":49,"x_max":803,"o":"m 424 1019 l 424 33 q 344 9 424 18 q 181 0 265 0 q 73 8 97 0 q 49 33 49 15 l 49 994 q 127 1054 49 1025 q 296 1083 206 1083 q 424 1019 424 1083 m 803 571 q 803 530 803 571 q 765 458 803 489 q 655 428 728 428 q 544 458 582 428 q 507 571 507 489 q 545 680 507 653 q 656 707 583 707 q 765 680 728 707 q 803 571 803 653 z "},"Ł":{"ha":849,"x_min":14,"x_max":821,"o":"m 265 0 q 172 8 196 0 q 149 33 149 15 l 149 435 l 51 435 q 25 460 36 435 q 14 534 14 486 q 44 631 14 582 q 104 681 75 681 l 149 681 l 149 897 q 229 958 149 928 q 410 988 310 988 q 525 950 499 988 q 536 922 536 936 l 536 681 l 676 681 q 713 590 713 681 q 683 490 713 544 q 628 435 654 435 l 536 435 l 536 307 q 792 318 706 318 q 821 226 821 318 q 808 67 821 133 q 775 0 796 0 l 265 0 z "},"ł":{"ha":768,"x_min":14,"x_max":754,"o":"m 571 33 q 492 9 571 18 q 328 0 413 0 q 220 8 244 0 q 196 33 196 15 l 196 431 l 51 431 q 25 456 36 431 q 14 530 14 482 q 44 627 14 578 q 104 676 75 676 l 196 676 l 196 994 q 274 1054 196 1025 q 443 1083 353 1083 q 571 1019 571 1083 l 571 676 l 718 676 q 754 586 754 676 q 725 485 754 540 q 669 431 696 431 l 571 431 l 571 33 z "},"Ń":{"ha":1033,"x_min":63,"x_max":971,"o":"m 450 40 q 365 11 450 22 q 194 0 279 0 q 86 10 110 0 q 63 40 63 19 l 63 893 q 142 957 63 928 q 324 986 222 986 q 378 983 360 986 q 444 924 425 976 l 578 565 l 583 565 l 583 893 q 663 957 583 928 q 843 986 742 986 q 953 953 931 986 q 971 910 971 929 l 971 40 q 885 11 971 22 q 698 0 800 0 q 586 26 596 0 l 457 368 l 450 368 l 450 40 m 642 1264 q 706 1211 674 1264 q 739 1081 739 1158 q 619 1044 739 1060 q 419 1028 499 1028 q 372 1061 393 1028 q 350 1138 350 1094 q 453 1223 350 1182 q 642 1264 557 1264 z "},"ń":{"ha":935,"x_min":49,"x_max":886,"o":"m 886 461 l 886 33 q 807 9 886 18 q 644 0 728 0 q 535 8 560 0 q 511 33 511 15 l 511 475 q 506 557 511 538 q 497 592 501 576 q 463 618 488 618 q 424 581 424 618 l 424 33 q 345 9 424 18 q 183 0 267 0 q 74 8 99 0 q 49 33 49 15 l 49 718 q 128 776 49 747 q 297 806 208 806 q 397 754 386 806 l 410 693 l 419 693 q 558 806 460 774 q 647 818 599 818 q 837 734 788 818 q 886 461 886 650 m 592 1083 q 656 1031 624 1083 q 689 900 689 978 q 569 863 689 879 q 369 847 449 847 q 322 881 343 847 q 300 958 300 914 q 403 1042 300 1001 q 592 1083 507 1083 z "},"Ň":{"ha":1033,"x_min":63,"x_max":971,"o":"m 450 40 q 365 11 450 22 q 194 0 279 0 q 86 10 110 0 q 63 40 63 19 l 63 893 q 142 957 63 928 q 324 986 222 986 q 378 983 360 986 q 444 924 425 976 l 578 565 l 583 565 l 583 893 q 663 957 583 928 q 843 986 742 986 q 953 953 931 986 q 971 910 971 929 l 971 40 q 885 11 971 22 q 698 0 800 0 q 586 26 596 0 l 457 368 l 450 368 l 450 40 m 767 1139 q 668 1075 767 1122 q 520 1028 569 1028 q 369 1076 471 1028 q 267 1139 267 1124 q 282 1226 267 1188 q 322 1264 297 1264 q 517 1210 340 1264 q 711 1264 692 1264 q 751 1226 736 1264 q 767 1139 767 1188 z "},"ň":{"ha":935,"x_min":49,"x_max":886,"o":"m 886 461 l 886 33 q 807 9 886 18 q 644 0 728 0 q 535 8 560 0 q 511 33 511 15 l 511 475 q 506 557 511 538 q 497 592 501 576 q 463 618 488 618 q 424 581 424 618 l 424 33 q 345 9 424 18 q 183 0 267 0 q 74 8 99 0 q 49 33 49 15 l 49 718 q 128 776 49 747 q 297 806 208 806 q 397 754 386 806 l 410 693 l 419 693 q 558 806 460 774 q 647 818 599 818 q 837 734 788 818 q 886 461 886 650 m 717 958 q 618 894 717 942 q 470 847 519 847 q 319 895 421 847 q 217 958 217 943 q 232 1045 217 1007 q 272 1083 247 1083 q 467 1029 290 1083 q 661 1083 642 1083 q 701 1045 686 1083 q 717 958 717 1007 z "},"Ŋ":{"ha":1033,"x_min":63,"x_max":971,"o":"m 927 -131 q 914 -155 927 -131 q 848 -197 900 -178 q 730 -215 796 -215 q 633 -213 664 -215 q 569 -202 603 -211 q 515 -178 535 -193 q 471 -61 471 -140 q 529 53 471 53 q 556 58 546 53 q 583 142 583 71 l 429 368 l 422 368 l 422 40 q 349 11 422 22 q 193 0 276 0 q 86 10 110 0 q 63 40 63 19 l 63 893 q 142 957 63 928 q 298 986 222 986 q 399 976 374 986 q 444 924 424 965 l 578 663 l 583 663 l 583 893 q 663 957 583 928 q 843 986 742 986 q 953 953 931 986 q 971 910 971 929 l 971 125 q 963 -28 971 29 q 927 -131 954 -85 z "},"ŋ":{"ha":935,"x_min":49,"x_max":886,"o":"m 626 -215 q 483 -180 524 -215 q 442 -69 442 -144 q 476 19 442 7 q 506 45 500 28 q 511 111 511 63 l 511 475 q 506 557 511 538 q 497 592 501 576 q 463 618 488 618 q 424 581 424 618 l 424 33 q 345 9 424 18 q 183 0 267 0 q 74 8 99 0 q 49 33 49 15 l 49 718 q 128 776 49 747 q 297 806 208 806 q 397 754 386 806 l 410 693 l 419 693 q 558 806 460 774 q 647 818 599 818 q 837 734 788 818 q 886 461 886 650 l 886 43 q 824 -152 886 -89 q 626 -215 761 -215 z "},"Ō":{"ha":1078,"x_min":49,"x_max":1029,"o":"m 539 -12 q 341 9 424 -12 q 189 86 258 31 q 49 507 49 196 q 87 735 49 638 q 193 889 125 832 q 539 1000 326 1000 q 730 981 649 1000 q 883 910 811 961 q 1029 507 1029 804 q 897 114 1029 240 q 539 -12 765 -12 m 493 226 q 501 216 493 226 q 539 206 510 206 q 585 226 568 206 q 613 312 601 246 q 624 496 624 378 q 613 678 624 614 q 585 761 601 742 q 539 781 568 781 q 493 761 510 781 q 465 678 476 742 q 454 496 454 614 q 465 312 454 378 q 493 226 476 246 m 797 1028 l 235 1028 q 208 1053 219 1028 q 197 1122 197 1079 q 228 1208 197 1165 q 288 1250 260 1250 l 846 1250 q 882 1160 882 1250 q 853 1072 882 1115 q 797 1028 824 1028 z "},"ō":{"ha":951,"x_min":35,"x_max":917,"o":"m 476 -12 q 297 6 372 -12 q 161 69 222 24 q 35 411 35 161 q 164 729 35 633 q 476 818 285 818 q 617 810 558 818 q 735 778 675 803 q 833 710 796 753 q 893 591 869 667 q 917 411 917 515 q 797 94 917 200 q 476 -12 678 -12 m 428 258 q 433 233 428 258 q 448 199 438 208 q 476 189 458 189 q 503 199 493 189 q 523 258 514 208 q 532 384 532 308 q 528 501 532 460 q 520 564 525 542 q 507 599 515 586 q 477 617 494 617 q 449 606 460 617 q 428 545 438 596 q 418 401 418 494 q 428 258 418 308 m 736 847 l 174 847 q 147 873 158 847 q 136 942 136 899 q 167 1027 136 985 q 226 1069 199 1069 l 785 1069 q 821 979 821 1069 q 792 891 821 935 q 736 847 763 847 z "},"Ŏ":{"ha":1078,"x_min":49,"x_max":1029,"o":"m 539 -12 q 341 9 424 -12 q 189 86 258 31 q 49 507 49 196 q 87 735 49 638 q 193 889 125 832 q 539 1000 326 1000 q 730 981 649 1000 q 883 910 811 961 q 1029 507 1029 804 q 897 114 1029 240 q 539 -12 765 -12 m 493 226 q 501 216 493 226 q 539 206 510 206 q 585 226 568 206 q 613 312 601 246 q 624 496 624 378 q 613 678 624 614 q 585 761 601 742 q 539 781 568 781 q 493 761 510 781 q 465 678 476 742 q 454 496 454 614 q 465 312 454 378 q 493 226 476 246 m 507 1206 q 540 1140 507 1140 q 572 1206 572 1140 q 655 1250 572 1250 q 738 1208 738 1250 q 685 1066 738 1104 q 539 1028 633 1028 q 394 1065 444 1028 q 343 1208 343 1101 q 425 1250 343 1250 q 507 1206 507 1250 z "},"ŏ":{"ha":951,"x_min":35,"x_max":917,"o":"m 476 -12 q 297 6 372 -12 q 161 69 222 24 q 35 411 35 161 q 164 729 35 633 q 476 818 285 818 q 617 810 558 818 q 735 778 675 803 q 833 710 796 753 q 893 591 869 667 q 917 411 917 515 q 797 94 917 200 q 476 -12 678 -12 m 428 258 q 433 233 428 258 q 448 199 438 208 q 476 189 458 189 q 503 199 493 189 q 523 258 514 208 q 532 384 532 308 q 528 501 532 460 q 520 564 525 542 q 507 599 515 586 q 477 617 494 617 q 449 606 460 617 q 428 545 438 596 q 418 401 418 494 q 428 258 418 308 m 442 1025 q 474 960 442 960 q 507 1025 507 960 q 590 1069 507 1069 q 672 1028 672 1069 q 620 885 672 924 q 474 847 568 847 q 328 884 379 847 q 278 1028 278 921 q 360 1069 278 1069 q 442 1025 442 1069 z "},"Ő":{"ha":1078,"x_min":49,"x_max":1029,"o":"m 539 -12 q 341 9 424 -12 q 189 86 258 31 q 49 507 49 196 q 87 735 49 638 q 193 889 125 832 q 539 1000 326 1000 q 730 981 649 1000 q 883 910 811 961 q 1029 507 1029 804 q 897 114 1029 240 q 539 -12 765 -12 m 493 226 q 501 216 493 226 q 539 206 510 206 q 585 226 568 206 q 613 312 601 246 q 624 496 624 378 q 613 678 624 614 q 585 761 601 742 q 539 781 568 781 q 493 761 510 781 q 465 678 476 742 q 454 496 454 614 q 465 312 454 378 q 493 226 476 246 m 406 1264 q 470 1211 438 1264 q 503 1081 503 1158 q 395 1044 503 1060 q 211 1028 288 1028 q 163 1061 185 1028 q 142 1139 142 1094 q 233 1224 142 1183 q 406 1264 324 1264 m 838 1264 q 902 1211 869 1264 q 935 1081 935 1158 q 827 1044 935 1060 q 643 1028 719 1028 q 595 1061 617 1028 q 574 1139 574 1094 q 665 1224 574 1183 q 838 1264 756 1264 z "},"ő":{"ha":951,"x_min":35,"x_max":917,"o":"m 476 -12 q 297 6 372 -12 q 161 69 222 24 q 35 411 35 161 q 164 729 35 633 q 476 818 285 818 q 617 810 558 818 q 735 778 675 803 q 833 710 796 753 q 893 591 869 667 q 917 411 917 515 q 797 94 917 200 q 476 -12 678 -12 m 428 258 q 433 233 428 258 q 448 199 438 208 q 476 189 458 189 q 503 199 493 189 q 523 258 514 208 q 532 384 532 308 q 528 501 532 460 q 520 564 525 542 q 507 599 515 586 q 477 617 494 617 q 449 606 460 617 q 428 545 438 596 q 418 401 418 494 q 428 258 418 308 m 343 1083 q 408 1031 375 1083 q 440 900 440 978 q 333 863 440 879 q 149 847 225 847 q 101 881 122 847 q 79 958 79 914 q 170 1043 79 1003 q 343 1083 261 1083 m 775 1083 q 840 1031 807 1083 q 872 900 872 978 q 765 863 872 879 q 581 847 657 847 q 533 881 554 847 q 511 958 511 914 q 602 1043 511 1003 q 775 1083 693 1083 z "},"Œ":{"ha":1422,"x_min":56,"x_max":1381,"o":"m 675 4 q 540 -12 625 -12 q 385 -1 454 -12 q 251 44 315 11 q 144 133 186 78 q 56 501 56 257 q 192 865 56 744 q 546 985 328 985 q 683 964 631 985 q 781 972 731 972 l 1339 972 q 1368 875 1368 972 q 1322 685 1368 685 q 1018 703 1268 685 l 1018 610 q 1286 618 1224 618 q 1324 531 1324 618 q 1309 398 1324 443 q 1269 353 1294 353 l 1018 358 l 1018 269 q 1351 288 1260 288 q 1381 192 1381 288 q 1335 0 1381 0 l 746 0 q 675 4 700 0 m 500 224 q 508 215 500 224 q 546 206 517 206 q 592 224 575 206 q 619 307 608 243 q 631 489 631 371 q 619 669 631 607 q 592 750 608 732 q 546 768 575 768 q 500 750 517 768 q 472 669 483 732 q 461 489 461 607 q 472 307 461 371 q 500 224 483 243 z "},"œ":{"ha":1388,"x_min":35,"x_max":1353,"o":"m 911 314 q 997 224 911 224 q 1128 258 1047 224 q 1214 292 1210 292 q 1282 213 1239 292 q 1325 96 1325 133 q 1214 14 1325 42 q 958 -14 1103 -14 q 714 40 814 -14 q 492 -12 613 -12 q 297 6 372 -12 q 161 69 222 24 q 35 411 35 161 q 119 710 35 611 q 216 778 156 753 q 335 810 276 803 q 476 818 394 818 q 719 768 621 818 q 1001 818 821 818 q 1353 574 1353 818 q 957 314 1353 314 l 911 314 m 428 258 q 433 233 428 258 q 448 199 438 208 q 475 189 458 189 q 502 199 492 189 q 522 260 513 210 q 532 385 532 311 q 528 501 532 460 q 520 564 525 542 q 507 599 515 586 q 477 617 494 617 q 449 606 460 617 q 428 545 438 596 q 418 401 418 494 q 428 258 418 308 m 908 517 l 908 425 q 974 457 949 425 q 1000 535 1000 489 q 957 618 1000 618 q 908 517 908 618 z "},"Ŕ":{"ha":1001,"x_min":63,"x_max":988,"o":"m 451 40 q 367 11 451 22 q 197 0 282 0 q 87 10 111 0 q 63 40 63 19 l 63 933 q 153 985 63 969 q 383 1000 244 1000 q 563 999 522 1000 q 660 994 604 999 q 748 981 715 990 q 820 956 781 971 q 882 916 860 940 q 925 858 904 892 q 963 688 963 799 q 926 502 963 578 q 828 388 889 426 q 988 68 988 136 q 714 0 988 0 q 604 7 635 0 q 565 38 574 14 l 475 324 l 451 325 l 451 40 m 451 539 l 488 539 q 568 664 568 539 q 547 754 568 728 q 497 781 525 781 l 451 781 l 451 539 m 625 1264 q 690 1211 657 1264 q 722 1081 722 1158 q 602 1044 722 1060 q 403 1028 482 1028 q 355 1061 376 1028 q 333 1138 333 1094 q 437 1223 333 1182 q 625 1264 540 1264 z "},"ŕ":{"ha":772,"x_min":49,"x_max":793,"o":"m 424 33 q 345 9 424 18 q 183 0 267 0 q 74 8 99 0 q 49 33 49 15 l 49 718 q 126 775 49 744 q 294 806 203 806 q 396 756 385 806 l 410 692 l 419 692 q 513 781 439 744 q 660 818 586 818 q 763 794 733 818 q 793 736 793 771 q 761 517 793 618 q 704 450 739 450 q 617 471 690 450 q 495 492 543 492 q 435 478 447 492 q 424 439 424 464 l 424 33 m 511 1083 q 576 1031 543 1083 q 608 900 608 978 q 488 863 608 879 q 289 847 368 847 q 241 881 263 847 q 219 958 219 914 q 323 1042 219 1001 q 511 1083 426 1083 z "},"ŗ":{"ha":821,"x_min":56,"x_max":800,"o":"m 431 439 l 431 33 q 352 9 431 18 q 190 0 274 0 q 81 8 106 0 q 56 33 56 15 l 56 718 q 133 775 56 744 q 301 806 210 806 q 403 756 392 806 l 417 692 l 426 692 q 519 781 446 744 q 667 818 593 818 q 770 794 740 818 q 800 734 800 771 q 794 640 800 697 q 767 517 789 583 q 711 450 746 450 q 624 471 697 450 q 502 492 550 492 q 442 478 454 492 q 431 439 431 464 m 483 67 q 474 146 474 94 q 503 231 474 197 q 621 265 532 265 q 740 231 710 265 q 769 125 769 196 q 542 -212 769 -212 q 501 -162 521 -212 q 481 -83 481 -112 q 490 -54 481 -54 q 536 -41 518 -54 q 558 -14 554 -28 l 563 0 q 483 67 507 0 z "},"Ř":{"ha":1001,"x_min":63,"x_max":988,"o":"m 451 40 q 367 11 451 22 q 197 0 282 0 q 87 10 111 0 q 63 40 63 19 l 63 933 q 153 985 63 969 q 383 1000 244 1000 q 563 999 522 1000 q 660 994 604 999 q 748 981 715 990 q 820 956 781 971 q 882 916 860 940 q 925 858 904 892 q 963 688 963 799 q 926 502 963 578 q 828 388 889 426 q 988 68 988 136 q 714 0 988 0 q 604 7 635 0 q 565 38 574 14 l 475 324 l 451 325 l 451 40 m 451 539 l 488 539 q 568 664 568 539 q 547 754 568 728 q 497 781 525 781 l 451 781 l 451 539 m 750 1139 q 651 1075 750 1122 q 503 1028 553 1028 q 352 1076 454 1028 q 250 1139 250 1124 q 265 1226 250 1188 q 306 1264 281 1264 q 500 1210 324 1264 q 694 1264 675 1264 q 735 1226 719 1264 q 750 1139 750 1188 z "},"ř":{"ha":772,"x_min":49,"x_max":793,"o":"m 424 439 l 424 33 q 345 9 424 18 q 183 0 267 0 q 74 8 99 0 q 49 33 49 15 l 49 718 q 126 775 49 744 q 294 806 203 806 q 396 756 385 806 l 410 692 l 419 692 q 513 781 439 744 q 660 818 586 818 q 763 794 733 818 q 793 734 793 771 q 788 640 793 697 q 760 517 782 583 q 704 450 739 450 q 617 471 690 450 q 495 492 543 492 q 435 478 447 492 q 424 439 424 464 m 636 958 q 538 894 636 942 q 390 847 439 847 q 238 895 340 847 q 136 958 136 943 q 151 1045 136 1007 q 192 1083 167 1083 q 386 1029 210 1083 q 581 1083 561 1083 q 621 1045 606 1083 q 636 958 636 1007 z "},"Ś":{"ha":922,"x_min":42,"x_max":881,"o":"m 462 -12 q 403 -12 462 -12 q 239 7 344 -12 q 88 50 133 26 q 42 96 42 74 q 64 258 42 174 q 117 342 86 342 q 232 304 122 342 q 397 267 342 267 q 469 278 453 267 q 486 315 486 290 q 379 383 486 351 q 280 421 333 396 q 181 476 226 446 q 104 563 135 507 q 74 692 74 619 q 442 1000 74 1000 q 679 983 579 1000 q 820 944 779 965 q 861 901 861 922 q 827 746 861 829 q 761 663 793 663 q 725 676 756 663 q 649 702 694 689 q 558 715 604 715 q 491 704 513 715 q 469 665 469 693 q 575 606 469 635 q 674 570 621 594 q 774 513 728 546 q 850 421 819 481 q 881 280 881 361 q 838 131 881 199 q 769 58 811 89 q 653 8 728 28 q 462 -12 579 -12 m 600 1264 q 665 1211 632 1264 q 697 1081 697 1158 q 577 1044 697 1060 q 378 1028 457 1028 q 330 1061 351 1028 q 308 1138 308 1094 q 412 1223 308 1182 q 600 1264 515 1264 z "},"ś":{"ha":804,"x_min":28,"x_max":807,"o":"m 419 -12 q 83 32 189 -12 q 28 78 28 56 q 61 211 28 135 q 119 288 94 288 q 213 257 133 288 q 348 226 293 226 q 420 233 403 226 q 438 260 438 240 q 340 308 438 299 q 251 325 299 313 q 161 357 203 338 q 92 422 119 376 q 64 519 64 467 q 67 597 64 571 q 90 669 69 622 q 147 744 110 715 q 260 797 183 774 q 474 821 338 821 q 694 799 611 821 q 796 731 796 772 q 757 606 796 676 q 695 535 718 535 q 596 559 672 535 q 483 583 519 583 q 425 550 425 583 q 465 519 425 529 q 560 497 504 508 q 672 466 617 486 q 767 393 728 446 q 807 260 807 340 q 419 -12 807 -12 m 540 1083 q 605 1031 572 1083 q 638 900 638 978 q 517 863 638 879 q 318 847 397 847 q 270 881 292 847 q 249 958 249 914 q 352 1042 249 1001 q 540 1083 456 1083 z "},"Ŝ":{"ha":922,"x_min":42,"x_max":881,"o":"m 462 -12 q 403 -12 462 -12 q 239 7 344 -12 q 88 50 133 26 q 42 96 42 74 q 64 258 42 174 q 117 342 86 342 q 232 304 122 342 q 397 267 342 267 q 469 278 453 267 q 486 315 486 290 q 379 383 486 351 q 280 421 333 396 q 181 476 226 446 q 104 563 135 507 q 74 692 74 619 q 442 1000 74 1000 q 679 983 579 1000 q 820 944 779 965 q 861 901 861 922 q 827 746 861 829 q 761 663 793 663 q 725 676 756 663 q 649 702 694 689 q 558 715 604 715 q 491 704 513 715 q 469 665 469 693 q 575 606 469 635 q 674 570 621 594 q 774 513 728 546 q 850 421 819 481 q 881 280 881 361 q 838 131 881 199 q 769 58 811 89 q 653 8 728 28 q 462 -12 579 -12 m 215 1153 q 317 1216 215 1168 q 469 1264 419 1264 q 617 1217 518 1264 q 715 1153 715 1169 q 700 1066 715 1104 q 660 1028 685 1028 q 465 1082 640 1028 q 271 1028 289 1028 q 231 1066 246 1028 q 215 1153 215 1104 z "},"ŝ":{"ha":804,"x_min":28,"x_max":807,"o":"m 419 -12 q 83 32 189 -12 q 28 78 28 56 q 61 211 28 135 q 119 288 94 288 q 213 257 133 288 q 348 226 293 226 q 420 233 403 226 q 438 260 438 240 q 340 308 438 299 q 251 325 299 313 q 161 357 203 338 q 92 422 119 376 q 64 519 64 467 q 67 597 64 571 q 90 669 69 622 q 147 744 110 715 q 260 797 183 774 q 474 821 338 821 q 694 799 611 821 q 796 731 796 772 q 757 606 796 676 q 695 535 718 535 q 596 559 672 535 q 483 583 519 583 q 425 550 425 583 q 465 519 425 529 q 560 497 504 508 q 672 466 617 486 q 767 393 728 446 q 807 260 807 340 q 419 -12 807 -12 m 165 972 q 267 1035 165 988 q 419 1083 369 1083 q 567 1036 468 1083 q 665 972 665 989 q 650 885 665 924 q 610 847 635 847 q 415 901 590 847 q 221 847 239 847 q 181 885 196 847 q 165 972 165 924 z "},"Ş":{"ha":922,"x_min":42,"x_max":881,"o":"m 462 -12 q 520 -12 462 -12 q 653 8 579 -12 q 769 58 728 28 q 838 131 811 89 q 881 282 881 199 q 850 421 881 361 q 774 513 819 481 q 674 570 728 546 q 576 606 621 594 q 500 633 531 618 q 469 670 469 647 q 491 704 469 693 q 573 715 513 715 q 725 675 633 715 q 761 663 756 663 q 827 746 793 663 q 861 901 861 829 q 820 944 861 922 q 679 983 779 965 q 442 1000 579 1000 q 74 692 74 1000 q 104 563 74 619 q 181 476 135 507 q 280 421 226 446 q 379 383 333 396 q 456 352 425 369 q 486 313 486 335 q 469 278 486 290 q 397 267 453 267 q 232 304 342 267 q 117 342 122 342 q 64 258 86 342 q 42 96 42 174 q 88 50 42 74 q 239 7 133 26 q 462 -12 344 -12 m 440 -117 l 400 -118 q 378 -75 378 -118 l 378 -10 q 411 11 378 1 q 481 21 444 21 q 518 0 518 21 l 518 -35 q 639 -131 639 -39 q 597 -201 639 -174 q 509 -235 556 -228 q 410 -243 463 -243 q 392 -222 399 -243 q 385 -176 385 -200 q 396 -153 385 -153 q 499 -131 499 -153 q 440 -117 499 -117 z "},"ş":{"ha":804,"x_min":28,"x_max":807,"o":"m 419 -12 q 807 260 807 -12 q 767 393 807 340 q 672 466 728 446 q 560 497 617 486 q 465 519 504 508 q 425 550 425 529 q 483 583 425 583 q 596 559 519 583 q 695 535 672 535 q 757 606 718 535 q 796 731 796 676 q 756 776 796 756 q 695 799 732 789 q 594 815 658 808 q 433 821 529 821 q 260 797 338 821 q 147 744 183 774 q 90 669 110 715 q 67 597 69 622 q 64 519 64 571 q 92 422 64 467 q 161 357 119 376 q 251 325 203 338 q 340 308 299 313 q 410 292 382 304 q 438 260 438 281 q 420 233 438 240 q 348 226 403 226 q 213 257 293 226 q 119 288 133 288 q 61 211 94 288 q 28 78 28 135 q 83 32 28 56 q 419 -12 189 -12 m 369 -117 l 329 -118 q 307 -75 307 -118 l 307 -10 q 340 11 307 1 q 410 21 374 21 q 447 0 447 21 l 447 -35 q 568 -131 568 -39 q 526 -201 568 -174 q 438 -235 485 -228 q 339 -243 392 -243 q 321 -222 328 -243 q 314 -176 314 -200 q 325 -153 314 -153 q 428 -131 428 -153 q 369 -117 428 -117 z "},"Š":{"ha":922,"x_min":42,"x_max":881,"o":"m 769 58 q 749 43 769 58 q 653 8 728 28 q 462 -12 579 -12 q 239 7 344 -12 q 88 50 133 26 q 42 96 42 74 q 64 258 42 174 q 117 342 86 342 q 232 304 122 342 q 397 267 342 267 q 469 278 453 267 q 486 313 486 290 q 456 352 486 335 q 379 383 425 369 q 280 421 333 396 q 181 476 226 446 q 104 563 135 507 q 74 692 74 619 q 442 1000 74 1000 q 679 983 579 1000 q 820 944 779 965 q 861 901 861 922 q 827 746 861 829 q 761 663 793 663 q 725 675 756 663 q 573 715 633 715 q 491 704 513 715 q 469 670 469 693 q 500 633 469 647 q 576 606 531 618 q 674 570 621 594 q 774 513 728 546 q 850 421 819 481 q 881 282 881 361 q 838 131 881 199 q 769 58 811 89 m 725 1139 q 626 1075 725 1122 q 478 1028 528 1028 q 327 1076 429 1028 q 225 1139 225 1124 q 240 1226 225 1188 q 281 1264 256 1264 q 475 1210 299 1264 q 669 1264 650 1264 q 710 1226 694 1264 q 725 1139 725 1188 z "},"š":{"ha":804,"x_min":28,"x_max":807,"o":"m 419 -12 q 83 32 189 -12 q 28 78 28 56 q 61 211 28 135 q 119 288 94 288 q 213 257 133 288 q 348 226 293 226 q 420 233 403 226 q 438 260 438 240 q 410 292 438 281 q 340 308 382 304 q 251 325 299 313 q 161 357 203 338 q 92 422 119 376 q 64 519 64 467 q 67 597 64 571 q 90 669 69 622 q 147 744 110 715 q 260 797 183 774 q 433 821 338 821 q 594 815 529 821 q 695 799 658 808 q 756 776 732 789 q 796 731 796 756 q 757 606 796 676 q 695 535 718 535 q 596 559 672 535 q 483 583 519 583 q 425 550 425 583 q 465 519 425 529 q 560 497 504 508 q 672 466 617 486 q 767 393 728 446 q 807 260 807 340 q 419 -12 807 -12 m 663 958 q 564 894 663 942 q 416 847 465 847 q 265 895 367 847 q 163 958 163 943 q 178 1045 163 1007 q 218 1083 193 1083 q 413 1029 236 1083 q 607 1083 588 1083 q 647 1045 632 1083 q 663 958 663 1007 z "},"Ť":{"ha":904,"x_min":28,"x_max":876,"o":"m 646 33 q 560 9 646 18 q 390 0 475 0 q 281 8 304 0 q 258 33 258 15 l 258 631 l 65 631 q 39 669 50 631 q 28 785 28 708 q 44 924 28 863 q 89 986 61 986 l 840 986 q 869 947 861 986 q 876 835 876 908 q 861 696 876 761 q 819 631 846 631 l 646 631 l 646 33 m 701 1139 q 603 1075 701 1122 q 455 1028 504 1028 q 303 1076 406 1028 q 201 1139 201 1124 q 217 1226 201 1188 q 257 1264 232 1264 q 451 1210 275 1264 q 646 1264 626 1264 q 686 1226 671 1264 q 701 1139 701 1188 z "},"ť":{"ha":1050,"x_min":14,"x_max":994,"o":"m 594 13 q 582 1 594 13 q 481 -11 569 -11 q 333 1 392 -11 q 222 47 275 13 q 121 331 121 115 l 121 547 l 51 547 q 25 579 36 547 q 14 667 14 611 q 31 765 14 722 q 76 807 49 807 l 121 807 l 121 975 q 205 1044 121 1018 q 369 1071 289 1071 q 496 1008 496 1071 q 496 807 496 1008 l 599 807 q 635 703 635 807 q 619 591 635 635 q 578 547 603 547 l 496 547 l 496 293 q 522 245 496 267 q 589 224 547 224 q 614 200 608 224 q 619 129 619 176 q 594 13 619 36 m 794 607 q 736 672 754 607 q 715 811 718 742 q 711 1010 711 914 q 936 1083 711 1083 q 985 1033 975 1083 q 994 861 994 983 q 794 607 994 607 z "},"Ũ":{"ha":1022,"x_min":63,"x_max":960,"o":"m 960 388 q 845 88 960 188 q 513 -11 731 -11 q 179 88 296 -11 q 63 388 63 188 l 63 897 q 141 960 63 932 q 324 988 219 988 q 432 956 407 988 q 450 913 450 931 l 450 499 q 462 291 450 342 q 513 240 474 240 q 562 290 551 240 q 572 500 572 339 l 572 897 q 651 960 572 932 q 832 988 729 988 q 942 956 919 988 q 960 913 960 931 l 960 388 m 849 1124 q 777 1058 849 1103 q 652 1014 706 1014 q 524 1038 599 1014 q 428 1063 450 1063 q 346 1038 407 1063 q 260 1014 285 1014 q 208 1063 235 1014 q 181 1139 181 1113 q 256 1206 181 1163 q 382 1250 332 1250 q 505 1226 432 1250 q 610 1203 578 1203 q 678 1226 619 1203 q 765 1250 738 1250 q 820 1199 792 1250 q 849 1124 849 1147 z "},"ũ":{"ha":942,"x_min":49,"x_max":893,"o":"m 547 22 l 533 113 l 522 113 l 519 100 q 472 32 514 69 q 415 1 453 14 q 328 -12 376 -12 q 110 68 172 -12 q 49 349 49 149 l 49 726 q 131 780 49 754 q 303 806 213 806 q 424 743 424 806 l 424 390 q 432 237 424 285 q 474 189 440 189 q 518 226 518 189 l 518 726 q 604 781 518 756 q 792 806 690 806 q 893 751 893 806 l 893 36 q 806 8 893 17 q 633 0 718 0 q 547 22 549 0 m 808 957 q 737 892 808 936 q 612 847 665 847 q 484 872 558 847 q 388 896 410 896 q 306 872 367 896 q 219 847 244 847 q 167 897 194 847 q 140 972 140 946 q 216 1040 140 996 q 342 1083 292 1083 q 465 1060 392 1083 q 569 1036 538 1036 q 638 1060 579 1036 q 724 1083 697 1083 q 780 1032 751 1083 q 808 957 808 981 z "},"Ū":{"ha":1022,"x_min":63,"x_max":960,"o":"m 960 388 q 845 88 960 188 q 513 -11 731 -11 q 179 88 296 -11 q 63 388 63 188 l 63 897 q 141 960 63 932 q 324 988 219 988 q 432 956 407 988 q 450 913 450 931 l 450 499 q 462 291 450 342 q 513 240 474 240 q 562 290 551 240 q 572 500 572 339 l 572 897 q 651 960 572 932 q 832 988 729 988 q 942 956 919 988 q 960 913 960 931 l 960 388 m 772 1014 l 210 1014 q 183 1040 194 1014 q 172 1108 172 1065 q 203 1194 172 1151 q 263 1236 235 1236 l 821 1236 q 857 1146 857 1236 q 828 1058 857 1101 q 772 1014 799 1014 z "},"ū":{"ha":942,"x_min":49,"x_max":893,"o":"m 547 22 l 533 113 l 522 113 l 519 100 q 472 32 514 69 q 415 1 453 14 q 328 -12 376 -12 q 110 68 172 -12 q 49 349 49 149 l 49 726 q 131 780 49 754 q 303 806 213 806 q 424 743 424 806 l 424 390 q 432 237 424 285 q 474 189 440 189 q 518 226 518 189 l 518 726 q 604 781 518 756 q 792 806 690 806 q 893 751 893 806 l 893 36 q 806 8 893 17 q 633 0 718 0 q 547 22 549 0 m 731 847 l 168 847 q 142 873 153 847 q 131 942 131 899 q 162 1027 131 985 q 221 1069 193 1069 l 779 1069 q 815 979 815 1069 q 786 891 815 935 q 731 847 757 847 z "},"Ŭ":{"ha":1022,"x_min":63,"x_max":960,"o":"m 960 388 q 845 88 960 188 q 513 -11 731 -11 q 179 88 296 -11 q 63 388 63 188 l 63 897 q 141 960 63 932 q 324 988 219 988 q 432 956 407 988 q 450 913 450 931 l 450 499 q 462 291 450 342 q 513 240 474 240 q 562 290 551 240 q 572 500 572 339 l 572 897 q 651 960 572 932 q 832 988 729 988 q 942 956 919 988 q 960 913 960 931 l 960 388 m 478 1206 q 510 1140 478 1140 q 543 1206 543 1140 q 626 1250 543 1250 q 708 1208 708 1250 q 656 1066 708 1104 q 510 1028 604 1028 q 365 1065 415 1028 q 314 1208 314 1101 q 396 1250 314 1250 q 478 1206 478 1250 z "},"ŭ":{"ha":942,"x_min":49,"x_max":893,"o":"m 328 -12 q 110 68 172 -12 q 49 349 49 149 l 49 726 q 131 780 49 754 q 303 806 213 806 q 424 743 424 806 l 424 390 q 432 237 424 285 q 474 189 440 189 q 518 226 518 189 l 518 726 q 604 781 518 756 q 792 806 690 806 q 893 751 893 806 l 893 36 q 806 8 893 17 q 633 0 718 0 q 547 22 549 0 l 533 113 l 522 113 q 472 31 510 63 q 415 1 453 14 q 328 -12 376 -12 m 438 1025 q 470 960 438 960 q 503 1025 503 960 q 585 1069 503 1069 q 668 1028 668 1069 q 616 885 668 924 q 469 847 564 847 q 324 884 375 847 q 274 1028 274 921 q 356 1069 274 1069 q 438 1025 438 1069 z "},"Ů":{"ha":1022,"x_min":63,"x_max":960,"o":"m 960 388 q 845 88 960 188 q 513 -11 731 -11 q 179 88 296 -11 q 63 388 63 188 l 63 897 q 141 960 63 932 q 324 988 219 988 q 432 956 407 988 q 450 913 450 931 l 450 499 q 462 291 450 342 q 513 240 474 240 q 562 290 551 240 q 572 500 572 339 l 572 897 q 651 960 572 932 q 832 988 729 988 q 942 956 919 988 q 960 913 960 931 l 960 388 m 671 1149 q 671 1114 671 1149 q 632 1053 671 1079 q 511 1028 593 1028 q 390 1053 429 1028 q 351 1149 351 1079 q 390 1242 351 1219 q 511 1264 429 1264 q 632 1242 593 1264 q 671 1149 671 1219 m 474 1147 q 474 1139 474 1147 q 481 1126 474 1132 q 511 1121 489 1121 q 541 1126 533 1121 q 549 1147 549 1132 q 540 1166 549 1161 q 510 1171 532 1171 q 481 1166 489 1171 q 474 1147 474 1161 z "},"ů":{"ha":942,"x_min":49,"x_max":893,"o":"m 547 22 l 533 113 l 522 113 l 519 100 q 472 32 514 69 q 415 1 453 14 q 328 -12 376 -12 q 110 68 172 -12 q 49 349 49 149 l 49 726 q 131 780 49 754 q 303 806 213 806 q 424 743 424 806 l 424 390 q 432 237 424 285 q 474 189 440 189 q 518 226 518 189 l 518 726 q 604 781 518 756 q 792 806 690 806 q 893 751 893 806 l 893 36 q 806 8 893 17 q 633 0 718 0 q 547 22 549 0 m 631 969 q 631 934 631 969 q 592 873 631 899 q 471 847 553 847 q 350 873 389 847 q 311 969 311 899 q 350 1061 311 1039 q 471 1083 389 1083 q 592 1061 553 1083 q 631 969 631 1039 m 433 966 q 433 959 433 966 q 441 946 433 951 q 471 940 449 940 q 501 946 493 940 q 508 966 508 951 q 500 985 508 981 q 470 990 492 990 q 441 985 449 990 q 433 966 433 981 z "},"Ű":{"ha":1022,"x_min":63,"x_max":960,"o":"m 960 388 q 845 88 960 188 q 513 -11 731 -11 q 179 88 296 -11 q 63 388 63 188 l 63 897 q 141 960 63 932 q 324 988 219 988 q 432 956 407 988 q 450 913 450 931 l 450 499 q 462 291 450 342 q 513 240 474 240 q 562 290 551 240 q 572 500 572 339 l 572 897 q 651 960 572 932 q 832 988 729 988 q 942 956 919 988 q 960 913 960 931 l 960 388 m 378 1264 q 442 1211 410 1264 q 475 1081 475 1158 q 367 1044 475 1060 q 183 1028 260 1028 q 135 1061 157 1028 q 114 1139 114 1094 q 205 1224 114 1183 q 378 1264 296 1264 m 810 1264 q 874 1211 842 1264 q 907 1081 907 1158 q 799 1044 907 1060 q 615 1028 692 1028 q 567 1061 589 1028 q 546 1139 546 1094 q 637 1224 546 1183 q 810 1264 728 1264 z "},"ű":{"ha":942,"x_min":49,"x_max":893,"o":"m 547 22 l 533 113 l 522 113 l 519 100 q 472 32 514 69 q 415 1 453 14 q 328 -12 376 -12 q 110 68 172 -12 q 49 349 49 149 l 49 726 q 131 780 49 754 q 303 806 213 806 q 424 743 424 806 l 424 390 q 432 237 424 285 q 474 189 440 189 q 518 226 518 189 l 518 726 q 604 781 518 756 q 792 806 690 806 q 893 751 893 806 l 893 36 q 806 8 893 17 q 633 0 718 0 q 547 22 549 0 m 338 1083 q 402 1031 369 1083 q 435 900 435 978 q 327 863 435 879 q 143 847 219 847 q 95 881 117 847 q 74 958 74 914 q 165 1043 74 1003 q 338 1083 256 1083 m 769 1083 q 834 1031 801 1083 q 867 900 867 978 q 759 863 867 879 q 575 847 651 847 q 527 881 549 847 q 506 958 506 914 q 597 1043 506 1003 q 769 1083 688 1083 z "},"Ų":{"ha":1022,"x_min":63,"x_max":960,"o":"m 513 -11 q 622 -11 513 -11 q 845 88 731 -11 q 960 388 960 188 l 960 913 q 942 956 960 931 q 832 988 919 988 q 651 960 729 988 q 572 897 572 932 l 572 500 q 562 290 572 339 q 513 240 551 240 q 462 291 474 240 q 450 499 450 342 l 450 913 q 432 956 450 931 q 324 988 407 988 q 141 960 219 988 q 63 897 63 932 l 63 388 q 179 88 63 188 q 513 -11 296 -11 m 603 -215 q 428 -176 497 -215 q 360 -56 360 -137 q 425 65 360 26 q 547 53 449 65 q 646 31 646 42 q 619 1 646 19 q 593 -32 593 -18 q 628 -54 593 -54 q 699 -48 663 -54 q 742 -42 735 -42 q 760 -58 749 -42 q 789 -182 789 -100 q 721 -208 789 -200 q 603 -215 653 -215 z "},"ų":{"ha":942,"x_min":49,"x_max":956,"o":"m 769 -215 q 595 -176 664 -215 q 526 -56 526 -137 q 592 65 526 26 q 714 53 615 65 q 813 31 813 42 q 786 1 813 19 q 760 -32 760 -18 q 794 -54 760 -54 q 865 -48 829 -54 q 908 -42 901 -42 q 926 -58 915 -42 q 956 -182 956 -100 q 888 -208 956 -200 q 769 -215 819 -215 m 328 -12 q 110 68 172 -12 q 49 349 49 149 l 49 726 q 131 780 49 754 q 303 806 213 806 q 424 743 424 806 l 424 390 q 432 237 424 285 q 474 189 440 189 q 518 226 518 189 l 518 726 q 604 781 518 756 q 792 806 690 806 q 893 751 893 806 l 893 36 q 806 8 893 17 q 633 0 718 0 q 547 22 549 0 l 533 113 l 522 113 q 472 31 510 63 q 415 1 453 14 q 328 -12 376 -12 z "},"Ŵ":{"ha":1425,"x_min":21,"x_max":1404,"o":"m 444 0 q 357 10 378 0 q 328 43 336 19 l 21 890 q 120 951 21 917 q 321 986 219 986 q 460 904 451 986 l 507 464 l 526 464 l 565 904 q 753 986 572 986 q 846 967 822 986 q 872 918 869 949 l 918 464 l 938 464 l 974 904 q 1069 965 978 944 q 1249 986 1160 986 q 1372 960 1339 986 q 1404 904 1404 933 l 1107 43 q 901 0 1092 0 q 825 10 844 0 q 799 43 806 19 l 726 285 l 710 285 l 636 43 q 444 0 624 0 m 476 1153 q 578 1216 476 1168 q 730 1264 681 1264 q 878 1217 779 1264 q 976 1153 976 1169 q 961 1066 976 1104 q 921 1028 946 1028 q 726 1082 901 1028 q 532 1028 550 1028 q 492 1066 507 1028 q 476 1153 476 1104 z "},"ŵ":{"ha":1379,"x_min":14,"x_max":1365,"o":"m 1110 33 q 922 0 1092 0 q 744 33 751 0 l 697 286 l 678 286 l 633 33 q 390 0 629 0 q 302 8 324 0 q 272 33 281 15 q 14 701 14 668 q 115 770 14 735 q 308 806 215 806 q 432 742 428 806 l 479 361 l 496 361 l 513 668 q 583 729 514 703 q 724 756 653 756 q 830 738 794 756 q 867 696 865 721 l 882 361 l 897 361 l 943 718 q 1037 778 947 751 q 1194 806 1126 806 q 1303 786 1263 806 q 1365 714 1365 756 q 1240 375 1365 710 q 1110 33 1114 40 m 453 972 q 555 1035 453 988 q 706 1083 657 1083 q 854 1036 756 1083 q 953 972 953 989 q 938 885 953 924 q 897 847 922 847 q 703 901 878 847 q 508 847 526 847 q 468 885 483 847 q 453 972 453 924 z "},"Ŷ":{"ha":969,"x_min":14,"x_max":956,"o":"m 676 40 q 592 11 676 22 q 423 0 507 0 q 314 9 339 0 q 289 40 289 18 l 289 282 q 14 893 14 844 q 107 954 14 922 q 303 986 200 986 q 443 908 435 986 l 481 535 l 496 535 l 522 899 q 621 962 525 938 q 803 986 717 986 q 922 961 889 986 q 956 908 956 936 q 676 282 956 882 l 676 40 m 249 1153 q 351 1216 249 1168 q 502 1264 453 1264 q 650 1217 551 1264 q 749 1153 749 1169 q 733 1066 749 1104 q 693 1028 718 1028 q 499 1082 674 1028 q 304 1028 322 1028 q 264 1066 279 1028 q 249 1153 249 1104 z "},"ŷ":{"ha":918,"x_min":49,"x_max":869,"o":"m 517 90 l 517 172 l 506 172 q 485 154 499 165 q 419 125 471 143 q 305 107 368 107 q 194 127 242 107 q 118 181 146 147 q 75 272 90 215 q 49 528 49 363 l 49 719 q 131 777 49 749 q 303 806 213 806 q 424 743 424 806 l 424 568 q 468 290 424 290 q 494 328 494 290 l 494 719 q 582 777 494 749 q 769 806 669 806 q 869 751 869 806 l 869 94 q 450 -215 869 -215 q 150 -172 229 -215 q 115 -132 115 -153 q 143 -20 115 -99 q 194 58 171 58 q 233 50 200 58 q 405 22 336 22 q 495 38 474 22 q 517 90 517 53 m 222 972 q 324 1035 222 988 q 476 1083 426 1083 q 624 1036 525 1083 q 722 972 722 989 q 707 885 722 924 q 667 847 692 847 q 472 901 647 847 q 278 847 296 847 q 238 885 253 847 q 222 972 222 924 z "},"Ÿ":{"ha":969,"x_min":14,"x_max":956,"o":"m 676 40 q 592 11 676 22 q 423 0 507 0 q 314 9 339 0 q 289 40 289 18 l 289 282 q 14 893 14 844 q 107 954 14 922 q 303 986 200 986 q 443 908 435 986 l 481 535 l 496 535 l 522 899 q 621 962 525 938 q 803 986 717 986 q 922 961 889 986 q 956 908 956 936 q 676 282 956 882 l 676 40 m 403 1041 q 384 1027 403 1041 q 293 1014 365 1014 q 183 1041 221 1014 q 146 1141 146 1068 q 184 1239 146 1214 q 294 1264 222 1264 q 403 1239 365 1264 q 442 1141 442 1214 q 403 1041 442 1068 m 788 1041 q 769 1027 788 1041 q 678 1014 750 1014 q 568 1041 606 1014 q 531 1141 531 1068 q 569 1239 531 1214 q 678 1264 607 1264 q 788 1239 750 1264 q 826 1141 826 1214 q 788 1041 826 1068 z "},"Ź":{"ha":885,"x_min":35,"x_max":850,"o":"m 815 704 q 742 589 815 679 q 521 344 668 499 l 814 344 q 840 303 829 344 q 850 188 850 263 q 833 57 850 114 q 786 0 815 0 l 110 0 q 52 81 69 0 q 35 256 35 161 q 113 369 35 276 q 347 629 192 463 l 78 629 q 40 750 40 629 q 58 910 40 835 q 104 986 76 986 l 744 986 q 815 704 815 986 m 553 1264 q 617 1211 585 1264 q 650 1081 650 1158 q 530 1044 650 1060 q 331 1028 410 1028 q 283 1061 304 1028 q 261 1138 261 1094 q 365 1223 261 1182 q 553 1264 468 1264 z "},"ź":{"ha":800,"x_min":35,"x_max":765,"o":"m 738 594 q 680 491 738 575 q 507 260 622 407 l 731 260 q 765 163 765 260 q 747 49 765 99 q 703 0 729 0 l 104 0 q 51 66 67 0 q 35 208 35 132 q 99 309 35 225 q 293 546 164 393 l 81 546 q 46 643 46 546 q 63 756 46 707 q 108 806 81 806 l 671 806 q 738 594 738 806 m 511 1083 q 576 1031 543 1083 q 608 900 608 978 q 488 863 608 879 q 289 847 368 847 q 241 881 263 847 q 219 958 219 914 q 323 1042 219 1001 q 511 1083 426 1083 z "},"Ż":{"ha":885,"x_min":35,"x_max":850,"o":"m 815 704 q 742 589 815 679 q 521 344 668 499 l 814 344 q 840 303 829 344 q 850 188 850 263 q 833 57 850 114 q 786 0 815 0 l 110 0 q 52 81 69 0 q 35 256 35 161 q 113 369 35 276 q 347 629 192 463 l 78 629 q 40 750 40 629 q 58 910 40 835 q 104 986 76 986 l 744 986 q 815 704 815 986 m 417 1264 q 448 1264 417 1264 q 503 1263 479 1264 q 555 1255 526 1261 q 599 1236 583 1249 q 636 1141 636 1206 q 585 1052 636 1076 q 442 1028 535 1028 q 299 1052 350 1028 q 247 1146 247 1076 q 306 1244 247 1219 q 417 1264 356 1264 z "},"ż":{"ha":800,"x_min":35,"x_max":765,"o":"m 738 594 q 680 491 738 575 q 507 260 622 407 l 731 260 q 765 163 765 260 q 747 49 765 99 q 703 0 729 0 l 104 0 q 51 66 67 0 q 35 208 35 132 q 99 309 35 225 q 293 546 164 393 l 81 546 q 46 643 46 546 q 63 756 46 707 q 108 806 81 806 l 671 806 q 738 594 738 806 m 376 1083 q 407 1083 376 1083 q 461 1082 438 1083 q 513 1074 485 1081 q 557 1056 542 1068 q 594 960 594 1025 q 544 872 594 896 q 401 847 493 847 q 257 872 308 847 q 206 965 206 896 q 264 1064 206 1039 q 376 1083 314 1083 z "},"Ž":{"ha":885,"x_min":35,"x_max":850,"o":"m 815 704 q 742 589 815 679 q 521 344 668 499 l 814 344 q 840 303 829 344 q 850 188 850 263 q 833 57 850 114 q 786 0 815 0 l 110 0 q 52 81 69 0 q 35 256 35 161 q 113 369 35 276 q 347 629 192 463 l 78 629 q 40 750 40 629 q 58 910 40 835 q 104 986 76 986 l 744 986 q 815 704 815 986 m 686 1125 q 588 1061 686 1108 q 440 1014 489 1014 q 288 1062 390 1014 q 186 1125 186 1110 q 201 1212 186 1174 q 242 1250 217 1250 q 436 1196 260 1250 q 631 1250 611 1250 q 671 1212 656 1250 q 686 1125 686 1174 z "},"ž":{"ha":800,"x_min":35,"x_max":765,"o":"m 738 594 q 680 491 738 575 q 507 260 622 407 l 731 260 q 765 163 765 260 q 747 49 765 99 q 703 0 729 0 l 104 0 q 51 66 67 0 q 35 208 35 132 q 99 309 35 225 q 293 546 164 393 l 81 546 q 46 643 46 546 q 63 756 46 707 q 108 806 81 806 l 671 806 q 738 594 738 806 m 650 958 q 551 894 650 942 q 403 847 453 847 q 252 895 354 847 q 150 958 150 943 q 165 1045 150 1007 q 206 1083 181 1083 q 400 1029 224 1083 q 594 1083 575 1083 q 635 1045 619 1083 q 650 958 650 1007 z "},"ƒ":{"ha":776,"x_min":14,"x_max":749,"o":"m 432 -164 q 418 -176 432 -164 q 356 -201 404 -187 q 222 -215 308 -215 q 94 -180 135 -215 q 53 -69 53 -144 q 88 19 53 7 q 117 45 111 28 q 122 111 122 63 l 122 458 l 51 458 q 14 585 14 458 q 31 678 14 635 q 76 722 49 722 l 122 722 q 149 885 122 815 q 215 991 176 954 q 307 1050 253 1028 q 490 1083 388 1083 q 749 999 749 1083 q 731 849 749 907 q 682 790 713 790 q 635 799 669 790 q 569 808 601 808 q 517 783 536 808 q 497 722 497 757 l 682 722 q 719 600 719 722 q 703 502 719 546 q 661 458 688 458 l 497 458 l 497 125 q 493 -1 497 46 q 474 -94 489 -49 q 432 -164 460 -140 z "},"ˆ":{"ha":611,"x_min":56,"x_max":556,"o":"m 56 972 q 158 1035 56 988 q 309 1083 260 1083 q 457 1036 358 1083 q 556 972 556 989 q 540 885 556 924 q 500 847 525 847 q 306 901 481 847 q 111 847 129 847 q 71 885 86 847 q 56 972 56 924 z "},"ˇ":{"ha":611,"x_min":56,"x_max":556,"o":"m 556 958 q 457 894 556 942 q 309 847 358 847 q 158 895 260 847 q 56 958 56 943 q 71 1045 56 1007 q 111 1083 86 1083 q 306 1029 129 1083 q 500 1083 481 1083 q 540 1045 525 1083 q 556 958 556 1007 z "},"˘":{"ha":506,"x_min":56,"x_max":450,"o":"m 219 1025 q 252 960 219 960 q 285 1025 285 960 q 367 1069 285 1069 q 450 1028 450 1069 q 398 885 450 924 q 251 847 346 847 q 106 884 157 847 q 56 1028 56 921 q 138 1069 56 1069 q 219 1025 219 1069 z "},"˙":{"ha":528,"x_min":69,"x_max":458,"o":"m 240 1083 q 270 1083 240 1083 q 325 1082 301 1083 q 377 1074 349 1081 q 421 1056 406 1068 q 458 960 458 1025 q 408 872 458 896 q 265 847 357 847 q 121 872 172 847 q 69 965 69 896 q 128 1064 69 1039 q 240 1083 178 1083 z "},"˚":{"ha":458,"x_min":69,"x_max":389,"o":"m 389 969 q 389 934 389 969 q 350 873 389 899 q 229 847 311 847 q 108 873 147 847 q 69 969 69 899 q 108 1061 69 1039 q 229 1083 147 1083 q 350 1061 311 1083 q 389 969 389 1039 m 192 966 q 192 959 192 966 q 199 946 192 951 q 229 940 207 940 q 259 946 251 940 q 267 966 267 951 q 258 985 267 981 q 228 990 250 990 q 199 985 207 990 q 192 966 192 981 z "},"˛":{"ha":547,"x_min":69,"x_max":499,"o":"m 135 65 q 257 53 158 65 q 356 31 356 42 q 329 1 356 19 q 303 -32 303 -18 q 338 -54 303 -54 q 408 -48 372 -54 q 451 -42 444 -42 q 469 -58 458 -42 q 499 -182 499 -100 q 431 -208 499 -200 q 313 -215 363 -215 q 138 -176 207 -215 q 69 -57 69 -137 q 86 14 69 -17 q 119 56 103 44 l 135 65 z "},"˜":{"ha":779,"x_min":56,"x_max":724,"o":"m 724 957 q 652 892 724 936 q 527 847 581 847 q 399 872 474 847 q 303 896 325 896 q 221 872 282 896 q 135 847 160 847 q 83 897 110 847 q 56 972 56 946 q 131 1040 56 996 q 257 1083 207 1083 q 380 1060 307 1083 q 485 1036 453 1036 q 553 1060 494 1036 q 640 1083 613 1083 q 695 1032 667 1083 q 724 957 724 981 z "},"˝":{"ha":932,"x_min":69,"x_max":863,"o":"m 333 1083 q 398 1031 365 1083 q 431 900 431 978 q 323 863 431 879 q 139 847 215 847 q 91 881 113 847 q 69 958 69 914 q 160 1043 69 1003 q 333 1083 251 1083 m 765 1083 q 830 1031 797 1083 q 863 900 863 978 q 755 863 863 879 q 571 847 647 847 q 523 881 544 847 q 501 958 501 914 q 592 1043 501 1003 q 765 1083 683 1083 z "},"̇":{"ha":528,"x_min":69,"x_max":458,"o":"m 240 1083 q 270 1083 240 1083 q 325 1082 301 1083 q 377 1074 349 1081 q 421 1056 406 1068 q 458 960 458 1025 q 408 872 458 896 q 265 847 357 847 q 121 872 172 847 q 69 965 69 896 q 128 1064 69 1039 q 240 1083 178 1083 z "},"–":{"ha":935,"x_min":42,"x_max":893,"o":"m 808 264 l 79 264 q 53 290 64 264 q 42 363 42 315 q 72 460 42 411 q 132 510 103 510 l 857 510 q 893 419 893 510 q 864 319 893 374 q 808 264 835 264 z "},"—":{"ha":1325,"x_min":42,"x_max":1321,"o":"m 1236 264 l 79 264 q 53 290 64 264 q 42 363 42 315 q 72 460 42 411 q 132 510 103 510 l 1285 510 q 1321 419 1321 510 q 1292 319 1321 374 q 1236 264 1263 264 z "},"‘":{"ha":381,"x_min":42,"x_max":325,"o":"m 242 1083 q 300 1018 282 1083 q 321 879 318 949 q 325 681 325 776 q 100 607 325 607 q 51 657 61 607 q 42 831 42 707 q 242 1083 42 1083 z "},"’":{"ha":381,"x_min":56,"x_max":339,"o":"m 139 607 q 81 672 99 607 q 60 811 63 742 q 56 1010 56 914 q 281 1083 56 1083 q 329 1033 319 1083 q 339 861 339 983 q 139 607 339 607 z "},"‚":{"ha":381,"x_min":56,"x_max":339,"o":"m 139 -214 q 81 -149 99 -214 q 60 -10 63 -79 q 56 189 56 93 q 281 263 56 263 q 329 213 319 263 q 339 39 339 163 q 139 -214 339 -214 z "},"“":{"ha":785,"x_min":42,"x_max":729,"o":"m 646 1083 q 717 947 701 1083 q 729 681 729 843 q 504 607 729 607 q 456 657 465 607 q 446 831 446 707 q 646 1083 446 1083 m 242 1083 q 300 1018 282 1083 q 321 879 318 949 q 325 681 325 776 q 100 607 325 607 q 51 657 61 607 q 42 831 42 707 q 242 1083 42 1083 z "},"”":{"ha":785,"x_min":56,"x_max":743,"o":"m 139 607 q 67 744 83 607 q 56 1010 56 847 q 281 1083 56 1083 q 329 1033 319 1083 q 339 861 339 983 q 139 607 339 607 m 543 607 q 486 672 503 607 q 464 811 467 742 q 460 1010 460 914 q 685 1083 460 1083 q 733 1033 724 1083 q 743 861 743 983 q 543 607 743 607 z "},"„":{"ha":785,"x_min":56,"x_max":743,"o":"m 139 -214 q 67 -78 83 -214 q 56 189 56 26 q 281 263 56 263 q 329 213 319 263 q 339 39 339 163 q 139 -214 339 -214 m 543 -214 q 486 -149 503 -214 q 464 -10 467 -79 q 460 189 460 93 q 685 263 460 263 q 733 213 724 263 q 743 39 743 163 q 543 -214 743 -214 z "},"†":{"ha":713,"x_min":14,"x_max":699,"o":"m 324 -201 q 233 -165 233 -201 l 233 439 l 51 439 q 25 465 36 439 q 14 538 14 490 q 44 635 14 586 q 104 685 75 685 l 233 685 l 233 924 q 280 968 233 950 q 377 986 326 986 q 453 975 428 986 q 479 949 479 964 l 479 685 l 663 685 q 699 594 699 685 q 669 494 699 549 q 614 439 640 439 l 479 439 l 479 -144 q 427 -185 479 -168 q 324 -201 375 -201 z "},"‡":{"ha":713,"x_min":14,"x_max":699,"o":"m 479 100 l 479 -144 q 433 -187 479 -172 q 332 -201 386 -201 q 233 -165 233 -201 l 233 100 l 50 100 q 14 190 14 100 q 43 291 14 236 q 99 346 72 346 l 233 346 l 233 439 l 51 439 q 25 465 36 439 q 14 538 14 490 q 44 635 14 586 q 104 685 75 685 l 233 685 l 233 929 q 284 972 233 958 q 394 986 335 986 q 479 950 479 986 l 479 685 l 663 685 q 699 594 699 685 q 669 494 699 549 q 614 439 640 439 l 479 439 l 479 346 l 661 346 q 688 320 676 346 q 699 247 699 294 q 668 149 699 199 q 608 100 638 100 l 479 100 z "},"•":{"ha":521,"x_min":63,"x_max":458,"o":"m 458 417 q 260 228 458 228 q 63 417 63 228 q 115 558 63 518 q 259 597 168 597 q 404 558 350 597 q 458 417 458 518 z "},"…":{"ha":1317,"x_min":97,"x_max":1261,"o":"m 393 131 q 393 90 393 131 q 356 18 393 49 q 245 -12 318 -12 q 135 18 172 -12 q 97 131 97 49 q 135 240 97 213 q 246 267 174 267 q 356 240 318 267 q 393 131 393 213 m 828 131 q 828 90 828 131 q 790 18 828 49 q 678 -12 751 -12 q 568 18 606 -12 q 531 131 531 49 q 569 240 531 213 q 679 267 607 267 q 790 240 751 267 q 828 131 828 213 m 1261 131 q 1261 90 1261 131 q 1224 18 1261 49 q 1113 -12 1186 -12 q 1003 18 1040 -12 q 965 131 965 49 q 1003 240 965 213 q 1113 267 1040 267 q 1223 240 1185 267 q 1261 131 1261 213 z "},"‰":{"ha":1964,"x_min":42,"x_max":1922,"o":"m 536 61 q 490 16 519 32 q 393 0 461 0 q 325 36 325 0 q 328 47 325 39 l 819 917 q 842 951 832 939 q 881 974 853 963 q 950 986 908 986 q 1036 949 1036 986 q 1033 936 1036 942 l 536 61 m 311 457 q 205 468 250 457 q 121 507 160 479 q 42 728 42 564 q 125 942 42 888 q 311 988 196 988 q 499 942 425 988 q 582 728 582 888 q 503 507 582 563 q 311 457 431 457 m 311 592 q 329 600 322 592 q 347 699 347 619 q 342 808 347 778 q 329 844 336 838 q 311 851 322 851 q 275 722 275 851 q 311 592 275 592 m 1042 -14 q 935 -3 981 -14 q 851 36 890 8 q 772 257 772 93 q 856 469 772 417 q 1042 517 926 517 q 1229 469 1156 517 q 1313 257 1313 417 q 1233 36 1313 92 q 1042 -14 1161 -14 m 1042 121 q 1060 128 1053 121 q 1078 228 1078 149 q 1072 337 1078 307 q 1060 374 1067 367 q 1042 381 1053 381 q 1006 251 1006 381 q 1042 121 1006 121 m 1651 -14 q 1545 -3 1590 -14 q 1461 36 1500 8 q 1382 257 1382 93 q 1464 469 1382 417 q 1651 517 1536 517 q 1839 469 1765 517 q 1922 257 1922 417 q 1842 36 1922 92 q 1651 -14 1771 -14 m 1651 121 q 1669 128 1663 121 q 1688 228 1688 149 q 1682 337 1688 307 q 1669 374 1676 367 q 1651 381 1663 381 q 1615 251 1615 381 q 1651 121 1615 121 z "},"‹":{"ha":558,"x_min":21,"x_max":517,"o":"m 354 400 q 517 33 517 67 q 442 0 517 0 q 322 8 367 0 q 262 25 276 15 q 224 63 247 35 q 111 230 201 90 q 21 400 21 369 q 117 568 21 431 q 190 672 151 618 q 237 740 228 726 q 259 767 246 754 q 320 792 272 779 q 442 806 368 806 q 517 757 517 806 q 354 400 517 728 z "},"›":{"ha":544,"x_min":42,"x_max":524,"o":"m 42 757 q 211 806 42 806 q 300 765 267 806 q 315 747 304 761 q 343 711 326 732 q 442 559 360 690 q 524 399 524 428 q 440 230 524 369 q 331 58 356 90 q 282 13 306 26 q 197 0 258 0 q 97 5 136 0 q 50 17 58 10 q 42 36 42 24 q 82 140 42 49 q 204 400 122 232 q 42 757 42 726 z "},"⁄":{"ha":581,"x_min":-74,"x_max":638,"o":"m 138 61 q 92 16 121 32 q -6 0 63 0 q -74 36 -74 0 q -71 47 -74 39 l 421 917 q 444 951 433 939 q 482 974 454 963 q 551 986 510 986 q 638 949 638 986 q 635 936 638 942 l 138 61 z "},"€":{"ha":868,"x_min":14,"x_max":826,"o":"m 826 94 q 774 8 826 29 q 620 -12 722 -12 q 473 -8 518 -12 q 367 15 428 -4 q 265 67 307 33 q 187 165 224 100 q 133 319 150 229 l 35 319 q 14 376 14 319 q 31 432 14 404 q 65 460 49 460 l 119 460 l 119 514 l 63 514 q 42 569 42 514 q 59 627 42 599 q 93 656 76 656 l 132 656 q 283 921 164 851 q 426 974 358 965 q 583 986 515 986 q 668 985 651 986 q 713 982 685 985 q 758 973 742 979 q 790 956 774 967 q 822 883 822 935 q 742 738 822 738 q 674 753 728 738 q 588 768 619 768 q 531 656 542 768 l 694 656 q 715 604 715 656 q 698 546 715 578 q 667 514 681 514 l 526 514 l 526 460 l 667 460 q 688 408 688 460 q 670 351 688 382 q 639 319 653 319 l 533 319 q 586 206 547 206 q 681 220 621 206 q 756 235 740 235 q 826 94 826 235 z "},"™":{"ha":911,"x_min":35,"x_max":876,"o":"m 461 642 q 414 656 414 642 l 414 961 q 532 986 414 986 q 603 958 594 986 l 644 831 l 651 831 l 685 953 q 722 976 689 967 q 816 986 756 986 q 876 967 876 986 l 876 656 q 763 642 876 642 q 710 656 710 642 l 719 792 l 714 792 l 685 664 q 642 651 681 651 q 601 664 603 651 l 568 792 l 563 792 q 575 656 575 693 q 461 642 575 642 m 365 838 l 293 838 l 293 656 q 179 642 293 642 q 131 656 131 642 l 131 838 l 50 838 q 35 892 35 838 q 60 986 35 986 l 374 986 q 389 938 389 986 q 365 838 389 838 z "},"⅓":{"ha":1150,"x_min":42,"x_max":1108,"o":"m 388 61 q 342 16 371 32 q 244 0 313 0 q 176 36 176 0 q 179 47 176 39 l 671 917 q 694 951 683 939 q 732 974 704 963 q 801 986 760 986 q 888 949 888 986 q 885 936 888 942 l 388 61 m 192 454 q 129 472 129 454 l 129 783 l 54 783 q 42 840 42 783 q 54 933 42 896 q 138 959 57 947 q 283 971 218 971 q 347 936 347 971 l 347 472 q 192 454 347 454 m 679 40 q 708 164 679 122 q 726 181 719 181 q 769 167 733 181 q 840 154 806 154 q 875 176 875 154 q 808 208 875 207 q 781 210 782 210 q 764 260 764 217 q 781 308 764 303 q 808 311 783 310 q 875 340 875 313 q 842 363 875 363 q 772 347 810 363 q 729 331 733 331 q 698 385 711 331 q 685 458 685 440 q 703 489 685 476 q 869 524 750 524 q 1044 483 988 524 q 1101 385 1101 442 q 1086 322 1101 350 q 1043 274 1068 289 q 1088 227 1068 264 q 1108 151 1108 190 q 1040 32 1108 71 q 865 -7 971 -7 q 703 22 767 -7 q 679 40 679 32 z "},"⅔":{"ha":1261,"x_min":42,"x_max":1219,"o":"m 500 61 q 454 16 483 32 q 357 0 425 0 q 289 36 289 0 q 292 47 289 39 l 783 917 q 806 951 796 939 q 844 974 817 963 q 914 986 872 986 q 1000 949 1000 986 q 997 936 1000 942 l 500 61 m 93 767 q 57 821 72 767 q 42 922 42 875 q 64 944 42 932 q 228 978 121 978 q 403 942 336 978 q 471 828 471 906 q 451 752 471 788 q 406 697 431 717 q 347 658 381 676 q 275 629 304 636 l 447 629 q 475 550 475 629 q 466 485 475 510 q 447 458 457 461 l 439 454 l 90 454 q 44 599 44 454 q 93 644 44 611 q 190 715 142 676 q 238 778 238 753 q 203 800 238 800 q 133 783 169 800 q 93 767 97 767 m 790 40 q 819 164 790 122 q 838 181 831 181 q 881 167 844 181 q 951 154 917 154 q 986 176 986 154 q 919 208 986 207 q 892 210 893 210 q 875 260 875 217 q 892 308 875 303 q 919 311 894 310 q 986 340 986 313 q 953 363 986 363 q 883 347 921 363 q 840 331 844 331 q 809 385 822 331 q 796 458 796 440 q 814 489 796 476 q 980 524 861 524 q 1156 483 1099 524 q 1213 385 1213 442 q 1197 322 1213 350 q 1154 274 1179 289 q 1199 227 1179 264 q 1219 151 1219 190 q 1151 32 1219 71 q 976 -7 1082 -7 q 814 22 878 -7 q 790 40 790 32 z "},"−":{"ha":768,"x_min":42,"x_max":726,"o":"m 642 264 l 79 264 q 53 290 64 264 q 42 363 42 315 q 72 460 42 411 q 132 510 103 510 l 690 510 q 726 419 726 510 q 697 319 726 374 q 642 264 668 264 z "},"":{"ha":944,"x_min":10,"x_max":935,"o":"m 666 8 q 627 -2 666 8 q 472 -12 588 -12 q 278 8 357 -12 q 136 82 200 28 q 10 500 10 189 q 142 907 10 800 q 285 981 207 960 q 472 1001 363 1001 q 659 981 581 1001 q 803 907 738 960 q 935 500 935 800 q 808 82 935 189 q 666 8 744 28 m 442 224 q 473 206 454 206 q 503 224 492 206 q 521 307 514 243 q 528 489 528 371 q 521 673 528 607 q 503 760 514 739 q 473 782 492 782 q 442 761 454 782 q 415 489 415 714 q 442 224 415 265 z "},"":{"ha":944,"x_min":88,"x_max":857,"o":"m 183 626 q 116 718 144 626 q 88 894 88 810 q 131 938 88 914 q 261 982 174 963 q 451 1001 349 1001 q 850 722 850 1001 q 817 576 850 644 q 743 467 783 508 q 647 392 703 426 q 529 331 586 353 l 807 331 q 825 323 815 331 q 846 278 835 315 q 857 187 857 242 q 850 95 857 132 q 833 42 843 58 q 796 1 811 4 l 789 0 l 181 0 q 93 274 93 0 q 275 442 93 304 q 399 551 342 492 q 456 649 456 611 q 393 690 456 690 q 262 658 331 690 q 183 626 193 626 z "},"":{"ha":944,"x_min":90,"x_max":853,"o":"m 840 742 q 729 532 840 601 q 769 499 744 525 q 810 446 793 472 q 853 285 853 378 q 743 60 853 132 q 442 -12 633 -12 q 263 3 347 -12 q 135 40 179 19 q 90 76 90 60 q 107 211 90 153 q 144 294 124 269 q 178 318 165 318 q 259 293 192 318 q 392 268 326 268 q 458 310 458 268 q 317 371 458 367 q 257 374 263 372 q 228 496 228 383 q 257 619 228 608 q 317 622 263 622 q 458 679 458 625 q 398 721 458 721 q 264 692 338 721 q 183 663 190 663 q 125 756 151 663 q 99 888 99 849 q 181 961 99 924 q 440 1001 268 1001 q 840 742 840 1001 z "},"":{"ha":944,"x_min":81,"x_max":863,"o":"m 863 33 q 778 9 863 18 q 608 0 693 0 q 499 8 524 0 q 475 33 475 15 l 475 204 l 128 204 q 81 435 81 204 q 194 661 81 461 q 350 924 307 861 q 475 968 367 947 q 686 989 583 989 q 863 924 863 989 l 863 33 m 499 421 l 500 724 l 403 421 l 499 421 z "},"":{"ha":944,"x_min":89,"x_max":854,"o":"m 89 93 q 114 256 89 183 q 169 329 139 329 q 257 295 176 329 q 377 261 338 261 q 438 274 417 261 q 460 307 460 286 q 178 397 460 383 q 129 694 129 400 q 175 989 129 989 l 789 989 q 825 878 825 989 q 812 731 825 811 q 767 651 799 651 l 378 651 l 378 589 q 761 503 646 589 q 854 294 854 432 q 751 72 854 157 q 422 -12 649 -12 q 182 21 275 -12 q 89 93 89 54 z "},"":{"ha":944,"x_min":54,"x_max":890,"o":"m 442 608 q 448 613 442 608 q 508 636 454 618 q 631 654 563 654 q 748 634 700 654 q 823 583 796 614 q 865 507 850 553 q 890 354 890 432 q 884 237 890 276 q 853 149 878 197 q 788 67 829 100 q 672 10 747 33 q 494 -12 596 -12 q 165 108 276 -12 q 54 497 54 228 q 158 884 54 765 q 475 1003 263 1003 q 728 981 621 1003 q 836 931 836 960 q 809 804 836 894 q 760 714 782 714 q 719 721 753 714 q 546 740 624 740 q 446 702 468 740 q 424 590 424 664 q 442 608 429 597 m 472 482 q 432 333 432 482 q 472 183 432 183 q 515 333 515 183 q 472 482 515 482 z "},"":{"ha":944,"x_min":113,"x_max":833,"o":"m 646 33 q 553 9 642 18 q 379 0 465 0 q 269 8 293 0 q 246 33 246 15 q 433 653 246 71 l 149 653 q 118 719 129 653 q 113 804 113 751 q 127 923 113 857 q 174 989 142 989 l 732 989 q 819 958 800 989 q 833 897 833 935 q 801 713 833 858 q 719 354 769 567 q 646 33 668 142 z "},"":{"ha":944,"x_min":56,"x_max":888,"o":"m 888 311 q 472 -12 888 -12 q 56 311 56 -12 q 122 531 56 457 q 89 603 104 551 q 74 707 74 656 q 175 934 74 867 q 471 1001 276 1001 q 767 934 665 1001 q 869 707 869 867 q 854 603 869 656 q 821 531 839 551 q 888 311 888 457 m 426 301 q 426 267 426 301 q 438 210 426 232 q 472 189 449 189 q 505 210 494 189 q 515 301 515 232 q 505 394 515 371 q 472 417 494 417 q 438 394 449 417 q 426 301 426 371 m 472 633 q 515 716 515 633 q 472 799 515 799 q 426 716 426 799 q 472 633 426 633 z "},"":{"ha":944,"x_min":54,"x_max":890,"o":"m 297 350 q 116 437 178 350 q 54 665 54 524 q 132 883 54 785 q 256 970 174 938 q 450 1003 338 1003 q 781 889 671 1003 q 890 499 890 775 q 788 105 890 222 q 469 -12 685 -12 q 214 6 319 -12 q 108 54 108 25 q 135 179 108 89 q 185 269 163 269 q 225 264 192 269 q 402 250 328 250 q 499 290 476 250 q 521 394 521 329 q 435 365 501 379 q 297 350 369 350 m 472 522 q 513 665 513 522 q 472 807 513 807 q 429 665 429 807 q 472 522 429 522 z "},"":{"ha":944,"x_min":10,"x_max":935,"o":"m 817 86 q 759 37 817 86 q 472 -12 700 -12 q 127 86 244 -12 q 10 428 10 185 q 142 758 10 665 q 476 843 260 843 q 814 750 693 843 q 935 421 935 657 q 817 86 935 185 m 419 276 q 424 251 419 276 q 441 216 429 226 q 473 206 453 206 q 506 217 493 206 q 535 417 535 242 q 506 614 535 589 q 472 625 493 625 q 440 615 451 625 q 419 556 429 604 q 410 417 410 508 q 419 276 410 325 z "},"":{"ha":944,"x_min":153,"x_max":793,"o":"m 793 33 q 708 9 793 18 q 539 0 624 0 q 430 8 454 0 q 406 33 406 15 l 406 479 l 176 479 q 153 581 153 479 q 176 763 153 682 q 335 812 183 790 q 667 833 486 833 q 793 769 793 833 l 793 33 z "},"":{"ha":944,"x_min":72,"x_max":874,"o":"m 168 538 q 108 608 143 538 q 72 750 72 679 q 124 791 72 769 q 269 828 175 813 q 467 843 363 843 q 865 571 865 843 q 836 461 865 511 q 765 381 807 411 q 671 328 724 350 q 507 282 586 292 l 507 275 l 824 275 q 874 163 874 275 q 828 14 874 56 q 804 0 818 4 l 165 0 q 100 67 125 0 q 78 249 78 125 q 272 378 78 281 q 407 463 346 415 q 468 547 468 510 q 406 589 468 589 q 260 563 343 589 q 168 538 178 538 z "},"":{"ha":944,"x_min":97,"x_max":847,"o":"m 833 231 q 847 129 847 188 q 822 16 847 71 q 758 -75 797 -39 q 661 -137 718 -111 q 550 -178 604 -164 q 431 -203 496 -193 q 222 -215 335 -215 q 160 -157 185 -215 q 135 -24 135 -99 q 174 50 135 50 q 392 81 313 50 q 471 164 471 111 q 265 228 471 228 q 222 348 222 228 q 265 468 222 468 q 427 482 385 468 q 469 535 469 496 q 450 573 469 557 q 381 589 431 589 q 267 563 332 589 q 192 536 203 536 q 130 610 163 536 q 97 753 97 683 q 219 817 97 790 q 449 843 342 843 q 843 582 843 843 q 800 439 843 493 q 738 378 763 389 l 725 371 q 833 231 803 332 z "},"":{"ha":944,"x_min":49,"x_max":894,"o":"m 894 -129 q 810 -153 894 -144 q 640 -162 725 -162 q 531 -155 554 -162 q 507 -129 507 -147 l 507 0 l 97 0 q 49 231 49 0 q 199 494 49 258 q 394 782 350 731 q 513 818 413 803 q 718 833 613 833 q 894 769 894 833 l 894 -129 m 531 243 l 532 569 l 372 243 l 531 243 z "},"":{"ha":944,"x_min":114,"x_max":831,"o":"m 193 -215 q 138 -156 161 -215 q 114 -24 114 -97 q 154 49 114 49 q 371 80 290 49 q 451 161 451 111 q 399 207 451 199 q 179 215 346 215 q 134 341 150 215 q 118 553 118 467 q 164 833 118 833 l 778 833 q 814 722 814 833 q 801 583 814 658 q 756 508 788 508 l 367 508 l 367 446 q 831 153 831 446 q 583 -167 831 -89 q 193 -215 431 -215 z "},"":{"ha":944,"x_min":56,"x_max":889,"o":"m 524 622 q 534 624 524 622 q 573 626 544 625 q 651 628 601 628 q 747 610 700 628 q 822 567 794 593 q 864 497 849 540 q 889 355 889 433 q 883 237 889 276 q 853 149 876 197 q 788 67 829 100 q 672 10 747 33 q 496 -12 597 -12 q 165 101 275 -12 q 56 483 56 215 q 164 900 56 763 q 496 1058 260 1024 q 751 1074 601 1074 q 815 1014 790 1074 q 840 881 840 954 q 804 808 840 808 q 532 765 640 808 q 424 642 424 721 q 433 597 424 611 q 447 603 440 600 q 463 609 453 606 q 488 616 472 613 q 524 622 504 619 m 514 326 q 514 397 514 326 q 472 468 514 468 q 431 326 431 468 q 472 183 431 183 q 514 326 514 183 z "},"":{"ha":944,"x_min":49,"x_max":894,"o":"m 607 -128 q 507 -152 600 -143 q 328 -161 414 -161 q 218 -153 242 -161 q 194 -128 194 -146 q 500 497 194 -94 l 85 497 q 54 564 65 497 q 49 649 49 596 q 63 767 49 701 q 110 833 78 833 l 793 833 q 876 818 858 833 q 894 769 894 803 q 797 392 894 699 q 607 -128 700 86 z "},"":{"ha":944,"x_min":42,"x_max":904,"o":"m 904 311 q 473 -12 904 -12 q 42 311 42 -12 q 74 454 42 376 q 142 571 106 532 q 97 663 121 594 q 72 788 72 732 q 472 1074 72 1074 q 872 788 872 1074 q 848 663 872 732 q 803 571 824 594 q 872 454 839 532 q 904 311 904 376 m 435 211 q 442 200 435 211 q 472 189 449 189 q 509 211 496 189 q 522 303 522 233 q 472 417 522 417 q 422 303 422 417 q 435 211 422 233 m 422 784 q 422 743 422 784 q 472 701 422 701 q 522 784 522 701 q 472 867 522 867 q 422 784 422 867 z "},"":{"ha":944,"x_min":56,"x_max":889,"o":"m 281 204 q 242 204 281 204 q 149 253 203 204 q 75 367 94 301 q 56 496 56 433 q 65 600 56 558 q 99 688 74 642 q 167 767 125 733 q 281 822 208 800 q 449 843 354 843 q 779 729 669 843 q 889 347 889 615 q 764 -76 889 40 q 538 -189 675 -160 q 193 -215 408 -215 q 129 -156 154 -215 q 104 -22 104 -96 q 140 51 104 51 q 522 190 522 51 q 511 246 522 215 q 493 238 501 242 q 472 229 485 233 q 441 221 460 225 q 400 213 422 217 q 281 204 358 204 m 474 376 q 514 514 514 376 q 504 619 514 590 q 474 647 494 647 q 431 512 431 647 q 474 376 431 376 z "},"":{"ha":610,"x_min":35,"x_max":575,"o":"m 304 -12 q 198 -1 243 -12 q 114 38 153 10 q 35 258 35 94 q 117 472 35 418 q 304 518 189 518 q 492 472 418 518 q 575 258 575 418 q 494 38 575 93 q 304 -12 424 -12 m 304 122 q 322 131 315 122 q 340 229 340 150 q 335 338 340 308 q 322 375 329 368 q 304 382 315 382 q 268 252 268 382 q 304 122 268 122 z "},"":{"ha":382,"x_min":21,"x_max":326,"o":"m 171 0 q 108 18 108 0 l 108 329 l 33 329 q 21 385 21 329 q 33 479 21 442 q 117 505 36 493 q 262 517 197 517 q 326 482 326 517 l 326 18 q 171 0 326 0 z "},"":{"ha":503,"x_min":35,"x_max":468,"o":"m 86 313 q 50 367 65 313 q 35 468 35 421 q 58 492 35 478 q 222 524 114 524 q 397 488 329 524 q 464 374 464 451 q 444 298 464 333 q 399 242 424 263 q 340 206 374 222 q 268 175 297 182 l 440 175 q 468 96 468 175 q 459 31 468 56 q 442 3 450 7 l 432 0 l 83 0 q 38 144 38 0 q 85 190 38 157 q 182 260 133 222 q 231 324 231 299 q 197 346 231 346 q 128 329 164 346 q 86 313 92 313 z "},"":{"ha":506,"x_min":35,"x_max":464,"o":"m 35 40 q 64 164 35 122 q 82 181 75 181 q 125 167 89 181 q 196 154 161 154 q 231 176 231 154 q 164 208 231 207 q 136 210 138 210 q 119 260 119 217 q 136 308 119 303 q 164 311 139 310 q 231 340 231 313 q 198 363 231 363 q 127 347 165 363 q 85 331 89 331 q 53 385 67 331 q 40 458 40 440 q 58 489 40 476 q 224 524 106 524 q 400 483 343 524 q 457 385 457 442 q 442 322 457 350 q 399 274 424 289 q 444 227 424 264 q 464 151 464 190 q 395 32 464 71 q 221 -7 326 -7 q 58 22 122 -7 q 35 40 35 32 z "},"":{"ha":511,"x_min":21,"x_max":456,"o":"m 299 0 q 238 18 238 0 l 238 101 l 46 101 q 21 224 21 101 q 83 342 21 238 q 171 482 146 447 q 243 506 181 494 q 361 517 306 517 q 456 482 456 517 l 456 18 q 299 0 456 0 m 250 217 l 250 376 l 199 217 l 250 217 z "},"":{"ha":506,"x_min":35,"x_max":464,"o":"m 35 49 q 48 142 35 99 q 78 186 61 186 q 124 169 82 186 q 199 151 167 151 q 232 175 232 151 q 217 197 232 190 q 192 206 201 203 q 165 210 182 208 q 138 213 149 213 q 108 215 128 214 q 82 217 89 217 q 56 367 56 218 q 81 517 56 517 l 431 517 q 450 457 450 517 q 439 361 450 385 q 418 338 428 338 l 189 338 l 189 306 q 394 275 325 306 q 464 163 464 244 q 412 37 464 81 q 225 -7 360 -7 q 90 11 146 -7 q 35 49 35 29 z "},"":{"ha":538,"x_min":35,"x_max":503,"o":"m 243 293 q 360 326 276 326 q 474 286 444 326 q 503 172 503 246 q 464 56 503 108 q 394 10 442 28 q 281 -7 347 -7 q 99 54 163 -7 q 35 256 35 115 q 271 524 35 524 q 412 512 349 524 q 475 485 475 500 q 460 413 475 467 q 433 358 446 358 q 410 361 431 358 q 307 372 347 372 q 255 352 267 372 q 243 293 243 332 m 299 166 q 299 200 299 166 q 269 235 299 235 q 240 166 240 235 q 269 97 240 97 q 299 166 299 97 z "},"":{"ha":436,"x_min":21,"x_max":415,"o":"m 153 0 q 92 18 92 0 q 192 339 92 36 l 40 339 q 26 365 32 339 q 21 419 21 392 q 28 481 21 446 q 53 517 36 517 l 361 517 q 406 503 396 517 q 415 469 415 490 q 398 372 415 447 q 355 186 381 296 q 317 18 329 76 q 153 0 313 0 z "},"":{"ha":536,"x_min":35,"x_max":501,"o":"m 501 165 q 268 -7 501 -7 q 35 165 35 -7 q 82 274 35 221 q 44 368 44 319 q 267 524 44 524 q 490 368 490 524 q 453 274 490 319 q 501 165 501 222 m 239 160 q 239 130 239 160 q 268 100 239 100 q 297 160 297 100 q 268 219 297 219 q 239 160 239 219 m 239 373 q 239 351 239 373 q 268 329 239 329 q 297 373 297 329 q 268 417 297 417 q 239 373 239 417 z "},"":{"ha":539,"x_min":35,"x_max":504,"o":"m 165 192 q 35 344 35 192 q 89 468 35 413 q 260 524 143 524 q 440 463 376 524 q 504 258 504 401 q 444 53 504 114 q 268 -7 385 -7 q 126 3 188 -7 q 64 30 64 13 q 78 101 64 47 q 106 156 93 156 q 129 153 108 156 q 232 144 192 144 q 284 163 272 144 q 296 215 296 182 q 165 192 249 192 m 269 282 q 297 351 297 282 q 269 419 297 419 q 239 351 239 419 q 269 282 239 282 z "},"":{"ha":610,"x_min":35,"x_max":575,"o":"m 304 510 q 198 521 243 510 q 114 560 153 532 q 35 781 35 617 q 117 994 35 940 q 304 1040 189 1040 q 492 994 418 1040 q 575 781 575 940 q 494 560 575 615 q 304 510 424 510 m 304 644 q 322 653 315 644 q 340 751 340 672 q 335 860 340 831 q 322 897 329 890 q 304 904 315 904 q 268 774 268 904 q 304 644 268 644 z "},"":{"ha":382,"x_min":21,"x_max":326,"o":"m 171 510 q 108 528 108 510 l 108 839 l 33 839 q 21 895 21 839 q 33 989 21 951 q 117 1015 36 1003 q 262 1026 197 1026 q 326 992 326 1026 l 326 528 q 171 510 326 510 z "},"":{"ha":503,"x_min":35,"x_max":468,"o":"m 86 828 q 50 882 65 828 q 35 983 35 936 q 58 1006 35 993 q 222 1039 114 1039 q 397 1003 329 1039 q 464 889 464 967 q 444 813 464 849 q 399 758 424 778 q 340 719 374 738 q 268 690 297 697 l 440 690 q 468 611 468 690 q 459 547 468 571 q 442 519 450 522 l 432 515 l 83 515 q 38 660 38 515 q 85 705 38 672 q 182 776 133 738 q 231 839 231 814 q 197 861 231 861 q 128 844 164 861 q 86 828 92 828 z "},"":{"ha":506,"x_min":35,"x_max":464,"o":"m 35 556 q 64 681 35 638 q 82 696 75 696 q 125 683 89 696 q 196 669 161 669 q 231 692 231 669 q 164 725 231 722 q 136 725 138 725 q 119 774 119 732 q 136 824 119 817 q 164 825 139 825 q 231 856 231 828 q 198 878 231 878 q 127 862 165 878 q 85 846 89 846 q 53 901 67 846 q 40 974 40 956 q 58 1006 40 992 q 224 1039 106 1039 q 400 998 343 1039 q 457 900 457 957 q 442 839 457 865 q 399 789 424 804 q 444 742 424 779 q 464 667 464 706 q 395 547 464 586 q 221 508 326 508 q 58 536 122 508 q 35 556 35 547 z "},"":{"ha":511,"x_min":21,"x_max":456,"o":"m 299 510 q 238 528 238 510 l 238 611 l 46 611 q 21 733 21 611 q 83 852 21 747 q 171 992 146 957 q 243 1015 181 1004 q 361 1026 306 1026 q 456 992 456 1026 l 456 528 q 299 510 456 510 m 250 726 l 250 886 l 199 726 l 250 726 z "},"":{"ha":499,"x_min":35,"x_max":464,"o":"m 35 558 q 48 652 35 608 q 78 696 61 696 q 124 678 82 696 q 199 661 167 661 q 232 685 232 661 q 217 706 232 700 q 192 715 201 713 q 165 720 182 718 q 138 723 149 722 q 108 725 128 724 q 82 726 89 726 q 56 877 56 728 q 81 1026 56 1026 l 431 1026 q 450 967 450 1026 q 439 871 450 894 q 418 847 428 847 l 189 847 l 189 815 q 394 785 325 815 q 464 672 464 754 q 412 547 464 590 q 225 503 360 503 q 90 521 146 503 q 35 558 35 539 z "},"":{"ha":538,"x_min":35,"x_max":503,"o":"m 243 808 q 360 842 276 842 q 474 801 444 842 q 503 688 503 761 q 464 572 503 624 q 394 526 442 543 q 281 508 347 508 q 99 569 163 508 q 35 771 35 631 q 271 1039 35 1039 q 412 1027 349 1039 q 475 1000 475 1015 q 460 928 475 982 q 433 874 446 874 q 410 878 431 874 q 307 888 347 888 q 255 867 267 888 q 243 808 243 847 m 299 681 q 299 716 299 681 q 269 750 299 750 q 240 681 240 750 q 269 613 240 613 q 299 681 299 613 z "},"":{"ha":436,"x_min":21,"x_max":415,"o":"m 153 510 q 92 528 92 510 q 192 849 92 546 l 40 849 q 26 875 32 849 q 21 928 21 901 q 28 991 21 956 q 53 1026 36 1026 l 361 1026 q 406 1013 396 1026 q 415 978 415 1000 q 398 881 415 957 q 355 696 381 806 q 317 528 329 586 q 153 510 313 510 z "},"":{"ha":536,"x_min":35,"x_max":501,"o":"m 501 681 q 268 508 501 508 q 35 681 35 508 q 82 789 35 736 q 44 883 44 835 q 267 1039 44 1039 q 490 883 490 1039 q 453 789 490 835 q 501 681 501 738 m 239 675 q 239 645 239 675 q 268 615 239 615 q 297 675 297 615 q 268 735 297 735 q 239 675 239 735 m 239 888 q 239 866 239 888 q 268 844 239 844 q 297 888 297 844 q 268 932 297 932 q 239 888 239 932 z "},"":{"ha":539,"x_min":35,"x_max":504,"o":"m 165 707 q 35 860 35 707 q 89 983 35 928 q 260 1039 143 1039 q 440 978 376 1039 q 504 773 504 917 q 444 569 504 629 q 268 508 385 508 q 126 518 188 508 q 64 545 64 528 q 78 617 64 563 q 106 671 93 671 q 129 668 108 671 q 232 660 192 660 q 284 678 272 660 q 296 731 296 697 q 165 707 249 707 m 269 797 q 297 866 297 797 q 269 935 297 935 q 239 866 239 935 q 269 797 239 797 z "},"":{"ha":944,"x_min":196,"x_max":749,"o":"m 749 33 q 664 9 749 18 q 494 0 579 0 q 385 8 410 0 q 361 33 361 15 l 361 633 l 219 633 q 196 735 196 633 q 219 918 196 836 q 367 967 226 944 q 582 989 507 989 q 682 983 657 989 q 719 970 707 978 q 739 953 732 963 q 749 924 749 938 l 749 33 z "},"":{"ha":1022,"x_min":49,"x_max":974,"o":"m 856 86 q 798 37 856 86 q 511 -12 739 -12 q 166 86 283 -12 q 49 428 49 185 q 181 758 49 665 q 515 843 299 843 q 853 750 732 843 q 974 421 974 657 q 856 86 974 185 m 458 276 q 463 251 458 276 q 480 216 468 226 q 512 206 492 206 q 544 217 532 206 q 574 417 574 242 q 544 614 574 589 q 511 625 532 625 q 479 615 490 625 q 458 556 468 604 q 449 417 449 508 q 458 276 449 325 z "},"":{"ha":717,"x_min":14,"x_max":654,"o":"m 654 33 q 569 9 654 18 q 400 0 485 0 q 291 8 315 0 q 267 33 267 15 l 267 479 l 38 479 q 14 581 14 479 q 38 763 14 682 q 196 812 44 790 q 528 833 347 833 q 654 769 654 833 l 654 33 z "},"":{"ha":892,"x_min":49,"x_max":850,"o":"m 144 538 q 84 608 119 538 q 49 750 49 679 q 100 791 49 769 q 245 828 151 813 q 443 843 339 843 q 842 571 842 843 q 813 461 842 511 q 742 381 783 411 q 647 328 700 350 q 483 282 563 292 l 483 275 l 800 275 q 850 163 850 275 q 806 14 850 56 q 781 0 794 4 l 142 0 q 76 67 101 0 q 54 249 54 125 q 250 378 54 281 q 383 463 322 415 q 444 547 444 510 q 382 589 444 589 q 237 563 319 589 q 144 538 154 538 z "},"":{"ha":847,"x_min":49,"x_max":799,"o":"m 786 231 q 799 129 799 188 q 774 16 799 71 q 709 -75 749 -39 q 613 -137 669 -111 q 501 -178 556 -164 q 382 -203 447 -193 q 174 -215 286 -215 q 111 -157 136 -215 q 86 -24 86 -99 q 125 50 86 50 q 343 81 264 50 q 422 164 422 111 q 217 228 422 228 q 174 348 174 228 q 217 468 174 468 q 378 482 336 468 q 421 535 421 496 q 401 573 421 557 q 333 589 382 589 q 219 563 283 589 q 143 536 154 536 q 81 610 114 536 q 49 753 49 683 q 171 817 49 790 q 400 843 293 843 q 794 582 794 843 q 753 439 794 494 q 689 378 717 392 l 676 371 q 786 231 754 332 z "},"":{"ha":929,"x_min":21,"x_max":867,"o":"m 867 -129 q 782 -153 867 -144 q 612 -162 697 -162 q 503 -155 526 -162 q 479 -129 479 -147 l 479 0 l 69 0 q 21 231 21 0 q 172 494 21 258 q 367 782 322 731 q 485 818 385 803 q 690 833 585 833 q 867 769 867 833 l 867 -129 m 503 243 l 504 569 l 344 243 l 503 243 z "},"":{"ha":814,"x_min":49,"x_max":765,"o":"m 128 -215 q 72 -156 96 -215 q 49 -24 49 -97 q 89 49 49 49 q 306 80 225 49 q 386 161 386 111 q 333 207 386 199 q 114 215 281 215 q 69 341 85 215 q 53 553 53 467 q 99 833 53 833 l 713 833 q 749 722 749 833 q 735 583 749 658 q 690 508 722 508 l 301 508 l 301 446 q 765 153 765 446 q 517 -167 765 -89 q 128 -215 365 -215 z "}}}
